<svg xmlns="http://www.w3.org/2000/svg" viewBox="0 0 518.48 221.78"><defs><style>.cls-1,.cls-5{font-size:12.43px;}.cls-1{fill:#fff;}.cls-1,.cls-14,.cls-2,.cls-5{font-family:FiraSans-Regular, Fira Sans;}.cls-2{font-size:14.65px;}.cls-14,.cls-2,.cls-5{fill:#ffcea8;}.cls-3{fill:#ef7b10;stroke:#f18f00;stroke-width:1.99px;}.cls-12,.cls-13,.cls-3{stroke-miterlimit:10;}.cls-4{fill:#9fa0d0;}.cls-10,.cls-11,.cls-12,.cls-13,.cls-6,.cls-7,.cls-8,.cls-9{fill:none;}.cls-6,.cls-7,.cls-8{stroke:#c7c1b8;}.cls-10,.cls-11,.cls-6,.cls-7,.cls-8,.cls-9{stroke-linejoin:round;}.cls-6{stroke-width:1.09px;}.cls-7{stroke-width:1.16px;}.cls-8{stroke-width:1.21px;}.cls-9{stroke:#989898;stroke-width:0.87px;}.cls-10,.cls-11{stroke:#fff;}.cls-10{stroke-width:0.48px;}.cls-11{stroke-width:0.5px;}.cls-12{stroke:#ef7b10;}.cls-12,.cls-13{stroke-width:5.98px;fill-rule:evenodd;}.cls-13{stroke:#9fa0d0;}.cls-14{font-size:21.29px;}</style></defs><g id="Capa_2" data-name="Capa 2"><g id="Web"><g id="_02_Consecuencias" data-name="02 Consecuencias"><g id="Seccion_02" data-name="Seccion 02"><g id="graph_3" data-name="graph 3"><g id="y_copia" data-name="y copia"><text class="cls-1" transform="translate(24.68 168.55)">$1500 </text><text class="cls-1" transform="translate(26.1 146.13)">$1750 </text><text class="cls-1" transform="translate(23.2 125.48)">$2000 </text><text class="cls-1" transform="translate(24.7 104.83)">$2250 </text><text class="cls-1" transform="translate(23.91 84.18)">$2500 </text><text class="cls-1" transform="translate(25.33 63.53)">$2750 </text></g><g id="x_copia" data-name="x copia"><text class="cls-1" transform="translate(67.28 179.82)">2016<tspan x="-0.32" y="14.92">M07 </tspan></text><text class="cls-1" transform="translate(110.86 180)">2016<tspan x="-1.65" y="14.92">M08 </tspan></text><text class="cls-1" transform="translate(154.44 179.82)">2016<tspan x="-1.33" y="14.92">M09 </tspan></text><text class="cls-1" transform="translate(200.39 180)">2016<tspan x="-0.19" y="14.92">M10 </tspan></text><text class="cls-1" transform="translate(247.51 179.82)">2016<tspan x="4.66" y="14.92">M11</tspan></text><text class="cls-1" transform="translate(291.09 179.82)">2016<tspan x="0.6" y="14.92">M12 </tspan></text><text class="cls-1" transform="translate(338.53 181.18)">2017<tspan x="-1.29" y="14.92">M01 </tspan></text><text class="cls-1" transform="translate(382.11 180)">2017<tspan x="-2.06" y="14.92">M02 </tspan></text><text class="cls-1" transform="translate(427.44 179.82)">2017<tspan x="-2.11" y="14.92">M03 </tspan></text><text class="cls-1" transform="translate(471.02 180)">2017<tspan x="-2.52" y="14.92">M04 </tspan></text></g><text class="cls-2" transform="translate(12.37 163.91) rotate(-90)">USD / tonelada</text><g id="x_labels_copia" data-name="x labels copia"><path class="cls-3" d="M94.15,217.12H71.59a2.66,2.66,0,0,1,0-5.31H94.15a2.66,2.66,0,0,1,0,5.31Z"/><text class="cls-1" transform="translate(109.05 217.39)">Canad치 - Argentina </text><path class="cls-4" d="M306.76,217H284.2a2.65,2.65,0,0,1,0-5.3h22.56a2.65,2.65,0,1,1,0,5.3Z"/><text class="cls-1" transform="translate(323.04 217.25)">Viet Nam-India-Ucrania-Tailandia </text><text class="cls-5" transform="translate(33.87 192.46)">A침o </text></g><g id="grid_copia" data-name="grid copia"><line class="cls-6" x1="63.84" y1="57.12" x2="67.05" y2="57.12"/><line class="cls-7" x1="63.84" y1="57.71" x2="67.05" y2="57.71"/><line class="cls-8" x1="65.6" y1="79.11" x2="68.94" y2="79.11"/><line class="cls-8" x1="65.6" y1="100.29" x2="68.94" y2="100.29"/><line class="cls-8" x1="65.6" y1="121.47" x2="68.94" y2="121.47"/><line class="cls-8" x1="65.6" y1="142.65" x2="68.94" y2="142.65"/><line class="cls-8" x1="65.6" y1="163.83" x2="68.94" y2="163.83"/><line class="cls-9" x1="68.94" y1="167.26" x2="68.94" y2="56.97"/><line class="cls-9" x1="113.9" y1="167.26" x2="113.9" y2="56.97"/><line class="cls-9" x1="158.85" y1="167.26" x2="158.85" y2="56.97"/><line class="cls-9" x1="203.8" y1="167.26" x2="203.8" y2="56.97"/><line class="cls-9" x1="248.75" y1="167.26" x2="248.75" y2="56.97"/><line class="cls-9" x1="293.71" y1="167.26" x2="293.71" y2="56.97"/><line class="cls-9" x1="338.66" y1="167.26" x2="338.66" y2="56.97"/><line class="cls-9" x1="383.61" y1="167.26" x2="383.61" y2="56.97"/><line class="cls-9" x1="428.57" y1="167.26" x2="428.57" y2="56.97"/><line class="cls-9" x1="473.52" y1="167.26" x2="473.52" y2="56.97"/><line class="cls-10" x1="67.31" y1="57.71" x2="498.56" y2="57.71"/><line class="cls-11" x1="69.21" y1="79.11" x2="518.48" y2="79.11"/><line class="cls-11" x1="69.21" y1="100.29" x2="518.48" y2="100.29"/><line class="cls-11" x1="69.21" y1="121.47" x2="518.48" y2="121.47"/><line class="cls-11" x1="69.21" y1="142.65" x2="518.48" y2="142.65"/><line class="cls-11" x1="69.21" y1="163.83" x2="518.48" y2="163.83"/></g><polyline id="data_2" data-name="data 2" class="cls-12" points="92.84 93.62 136.27 87.98 184.62 93.35 272.98 96.38 320.29 81.98 409.66 92.69 499.91 71.99"/><polyline id="data_1" data-name="data 1" class="cls-13" points="92.78 117.64 139.66 124.43 183.16 139.41 228.05 132.4 270.52 133.58 306.17 135.97 362.81 142.65 413.57 137.47 454.59 142.38 499.97 135.4"/><text class="cls-14" transform="translate(63.12 17.98)">Comparaci칩n de precios de importaci칩n<tspan x="0" y="25.55">en EUA, 2016 - 2017 </tspan></text></g></g></g></g></g></svg>