<svg xmlns="http://www.w3.org/2000/svg" viewBox="0 0 320.14 492.29"><defs><style>.cls-1{fill:none;stroke:#fff;stroke-linejoin:round;stroke-width:2.61px;}.cls-2{font-size:30.75px;}.cls-2,.cls-3{fill:#2d2521;font-family:FiraSans-Light, Fira Sans;font-weight:300;}.cls-3{font-size:29.92px;}.cls-4{letter-spacing:-0.02em;}.cls-5{letter-spacing:-0.01em;}.cls-6{letter-spacing:-0.01em;}.cls-7{letter-spacing:-0.03em;}</style></defs><g id="Capa_2" data-name="Capa 2"><g id="iphone_6_7_8_plus_portrait" data-name="iphone 6 7 8 plus portrait"><g id="_02_Consecuencias" data-name="02 Consecuencias"><g id="Seccion_02" data-name="Seccion 02"><g id="_Grupo_En_" data-name="&lt;Grupo En&gt;"><line class="cls-1" y1="34.76" x2="320.14" y2="34.76"/><line class="cls-1" y1="73.65" x2="320.14" y2="73.65"/><line class="cls-1" y1="112.55" x2="320.14" y2="112.55"/><line class="cls-1" y1="151.44" x2="320.14" y2="151.44"/><line class="cls-1" y1="189.81" x2="320.14" y2="189.81"/><line class="cls-1" y1="228.18" x2="320.14" y2="228.18"/><line class="cls-1" y1="266.55" x2="320.14" y2="266.55"/><line class="cls-1" y1="304.91" x2="320.14" y2="304.91"/><line class="cls-1" y1="343.28" x2="320.14" y2="343.28"/><line class="cls-1" y1="381.65" x2="320.14" y2="381.65"/><line class="cls-1" y1="420.02" x2="320.14" y2="420.02"/><line class="cls-1" x1="186.4" y1="452.19" x2="186.4" y2="2.5"/><text class="cls-2" transform="translate(0 25.91)">Australia</text><text class="cls-2" transform="translate(228.65 25.91)">18.83%</text><text class="cls-2" transform="translate(0 64.35)">Singapore</text><text class="cls-2" transform="translate(227.09 64.35)">22.90%</text><text class="cls-2" transform="translate(0 102.79)">UK</text><text class="cls-2" transform="translate(227.27 102.79)">26.82%</text><text class="cls-2" transform="translate(0 141.23)">Japan</text><text class="cls-2" transform="translate(227.45 141.23)">34.63%</text><text class="cls-2" transform="translate(0 179.66)">Portugal</text><text class="cls-2" transform="translate(224.07 179.66)">38.00%</text><text class="cls-2" transform="translate(0 218.1)">Netherlands</text><text class="cls-2" transform="translate(231.76 218.1)">38.71%</text><text class="cls-2" transform="translate(0 256.54)">Italy</text><text class="cls-2" transform="translate(225.06 256.54)">43.08%</text><text class="cls-2" transform="translate(0 294.98)">Belgium</text><text class="cls-2" transform="translate(226.99 294.98)">48.35%</text><text class="cls-2" transform="translate(0 333.42)">Spain</text><text class="cls-2" transform="translate(230.22 333.42)">51.83%</text><text class="cls-2" transform="translate(0 371.86)">Poland</text><text class="cls-2" transform="translate(232.01 371.86)">55.12%</text><text class="cls-2" transform="translate(0 410.3)">Germany</text><text class="cls-2" transform="translate(228.78 410.3)">55.42%</text><text class="cls-2" transform="translate(0 447.15)">France</text><text class="cls-2" transform="translate(234.44 447.15)">61.71%</text><text class="cls-3" transform="translate(0.63 486.19) scale(0.63 0.58)">UN <tspan class="cls-4" x="47.99" y="0">C</tspan><tspan class="cls-5" x="63.85" y="0">O</tspan><tspan class="cls-6" x="84.35" y="0">M</tspan><tspan x="107.03" y="0">TRADE, 2</tspan><tspan class="cls-7" x="219.5" y="0">0</tspan><tspan x="235.12" y="0">15</tspan></text></g></g></g></g></g></svg>