<svg xmlns="http://www.w3.org/2000/svg" xmlns:xlink="http://www.w3.org/1999/xlink" viewBox="0 0 720 569"><defs><style>.cls-1{fill:none;}.cls-2{fill:#d88100;}.cls-3{clip-path:url(#clip-path);}.cls-4{opacity:0.65;}.cls-4,.cls-6{isolation:isolate;}.cls-5{clip-path:url(#clip-path-2);}.cls-7{fill-rule:evenodd;}</style><clipPath id="clip-path"><rect class="cls-1" x="133.9" y="74.9" width="489.8" height="473.6"/></clipPath><clipPath id="clip-path-2"><rect class="cls-1" x="161.3" y="103.8" width="462.4" height="372.1"/></clipPath></defs><title>Recurso 6</title><g id="Capa_2" data-name="Capa 2"><g id="Capa_1-2" data-name="Capa 1"><rect class="cls-2" width="720" height="569"/><g class="cls-3"><g id="Old_Beehive.psd" data-name="Old Beehive.psd"><image class="cls-4" width="522" height="439" transform="translate(125.37 81.28)" xlink:href="../../Dise%C3%B1o/F707B602FEC65C62.png"/><g class="cls-5"><image id="Capa_2-2" data-name="Capa 2" class="cls-6" width="939" height="767" transform="translate(167.27 104.29) scale(0.49 0.48)" xlink:href="../../Dise%C3%B1o/F707B602FEC65C63.png"/></g></g></g><path class="cls-7" d="M607.4,174.5h.8c4.9,5.1,10.8,8.9,17.2,12.2s13.4,6.3,22.2,6.7c2.3-4.9,4.9-10.6,7.2-15.9.4-1,.9-2.9,1.6-2.4a.71.71,0,0,1,.5-.7h.1a6.69,6.69,0,0,1,1.4,1.9c6.6,9.9,15.2,17.6,24.8,24.2,8.9,6.1,19.1,10.6,30.3,14.5.8.3,1.4.5,2.4.8.6.2,2.1.4,2.2.9.2.9-.7.5-.7,1.3-5.4,2.2-10.6,4.6-15.9,6.9-1.4,24.8-5,47-17.8,58.8,11.8.9,23.8-.5,32.8-3.9.4-.2,1.5-.8,1.6,0s-1,.9-1.5,1.1c-9.2,3.5-21.4,4.6-33.3,3.8-.2,16.3,0,32.9-.1,49.3,1.6,1.2,3.4,2.1,4.9,3.3a12.4,12.4,0,0,1-1,2,8.7,8.7,0,0,0,1.4.8c.4.2,1.2.4,1.4.8s-.9,1.2-1.2,1.6c-.5.6-.9,1.1-1.3,1.6a18.66,18.66,0,0,1,.4,2.5c1.4.8,3,1.4,4.4,2.2,0,.9.3,2,.4,3s.5,2.1.1,2.5c-.5-.4-.5-1.6-.6-2.5s-.3-1.9-.4-2.7c-1.2-.7-2.6-1.2-3.8-1.9a12,12,0,0,1-.5,3.3c.7,1.4,1.8,2.8,2.4,4.2a17.91,17.91,0,0,1-2,2.8c-.3.4-.7.9-1,1.3s-.6,1.1-1.1,1.1c-.3-.5.3-1,.6-1.3.9-1.2,2.1-2.6,3-3.9-.6-1.2-1.4-2.3-2-3.5a37.28,37.28,0,0,1-2,4c.6,1.4.6,3.1-.3,4a2.86,2.86,0,0,1-4.5-1,4.27,4.27,0,0,1,.1-2.5c-.5-1-1.1-2-1.6-3a13.27,13.27,0,0,1-.3,2.1,7.47,7.47,0,0,0-.3,2c.1.7,1.3,2,1.6,2.6a14.8,14.8,0,0,0,.8,1.3c.2.4.8.7.6,1.3-.5.1-.8-.6-1-1-.8-1.3-1.9-2.7-2.6-3.9.2-.9.3-1.7.5-2.6a22.11,22.11,0,0,0,.5-2.5c0-1.3-1-2.4-.7-3.9-1.1.4-2.3,1.3-3.5,1.9l-.6,2.7a9.89,9.89,0,0,1-.7,2.6c-.4-.3-.2-.9-.1-1.3.3-1.4.7-3.1,1-4.4,1.3-.7,2.5-1.5,3.9-2.2-.2-1.1.4-1.7.4-2.7a17.69,17.69,0,0,0-.6-3c-.3-1.4-1.1-3-.2-3.7l-1.2-1.8c1.5-1.8,3-3.3,4.7-5.2.4-.5,1.4-1.2,1.5-1.7a13,13,0,0,0,0-2.8V284.7c-.2-.1-.4.3-.7.3s-.3-.5-.6-.6a99.34,99.34,0,0,1-17.2-3c-4.9,11.1-12.6,18.2-22,23.9a42.91,42.91,0,0,1-16.3,5.9,26.66,26.66,0,0,1-16.1-2.3c-.5-.2-1.5-1-1.8-.9s-.8,1.7-1.1,2.5a92,92,0,0,1-8.4,16.6,93.77,93.77,0,0,1-28.1,28,128.53,128.53,0,0,1-15.5,8.6c-.7.3-1.6,1.1-2.4.6-.1-.8.8-1,1.3-1.3,8.2-4,16.3-8.4,23.2-13.9-8.2-.8-13.2-5.1-17.4-10.7a37.86,37.86,0,0,1-6.8-15,18,18,0,0,1-.5-3.2c-.1-.9-.5-2.8,0-3,.9-.4.7,1.6.8,2.7a37.78,37.78,0,0,0,2.2,8.8,32.51,32.51,0,0,0,5.2,9.2c4,5.2,9.3,10.2,17.6,10.2.6,0,2.2-1.7,2.7-2.1a92.5,92.5,0,0,0,15.4-17c-5.5,2.1-12.5,1.3-17.2-.5-7.7-3-12.8-8-17.4-14.4a69,69,0,0,1-10.1-22.6c-.2-.3-.5,0-.8-.3v-.7a79.55,79.55,0,0,0,13.4-3.3,18.67,18.67,0,0,1-6.4-8.5c-4.5-10.7-6-25.2-6.8-39.6,5.6-3.9,8.8-11,10.4-20.2,1.4-8.2,1.7-18.3,2.6-27a14.05,14.05,0,0,0,.2-1.8c0-.5-.6-1.1-.9-1.8-1.9-3.8-3.7-7.4-5.6-11-.3-.5-.9-1.2-.3-1.8.7-.1.9.9,1.2,1.4,2.1,4.3,4.4,8.8,6.7,12.8,13.5-.7,22.8-6.2,32.5-11.1A37.75,37.75,0,0,1,607.4,174.5Zm41.2,18.9c1.8,1.6,3.1,3.9,4.8,5.6,5.2,5.3,10.6,10.3,17.1,14.2,7.8,4.7,16.8,9.2,27.5,10.7.8.1,1.6.4,2.2.4a8.82,8.82,0,0,0,2-.9c4.8-2.2,9.6-4.2,14.2-6.3-25.4-7.7-46.2-21-60-41.5C654,181.4,651.3,187.5,648.6,193.4ZM596.8,180l-9.6,4.8a55,55,0,0,1-22.2,6.1c2.8,5.2,5.7,10.2,8.8,15.1a2.75,2.75,0,0,1,2-.2,53.75,53.75,0,0,0,25.8-6c.8-.4,2.9-1.4,3.2-1.9a21.58,21.58,0,0,0,.2-2.8c.5-6.8,1.3-13.1,2-19.4h-.1A63.83,63.83,0,0,0,596.8,180Zm9,17.2a14.79,14.79,0,0,1,2.1-1.3c.7.3,1.1,1.2,1.8,1.7,6.8,5.5,18.2,6,29.1,6.7.7,0,1.5-.2,2.1.3a13.66,13.66,0,0,1-.2,1.9,104.28,104.28,0,0,0,5.6-10.5c.3-.5.7-1.1.6-1.5-8.8-.5-15.8-3.5-22.2-7-6.2-3.3-11.9-6.9-16.7-11.7a.1.1,0,0,0-.1-.1C607.2,182.8,606.3,189.8,605.8,197.2Zm-42.2,1.5c-.8,11.7-1.4,24.2-5.4,32.4a24.92,24.92,0,0,1-6.3,8.2,110.39,110.39,0,0,0,12.3,3.3c1.4.3,3.3,1,4.5.8,1.8-.3,3.5-3.1,4.2-4.6,2.8-6.2,3.2-18,2-26.6a31.85,31.85,0,0,0-.6-3.7,11.33,11.33,0,0,0-1.3-2c-3.1-4.8-6-10.1-8.8-14.9C564.1,194,563.8,196.3,563.6,198.7ZM670,213.9a88,88,0,0,1-21.3-19.1c0-.1-.1-.1-.1.1a39.47,39.47,0,0,0,1.2,7.4,56.74,56.74,0,0,0,2.3,6.2,44,44,0,0,0,6.6,10.1c5,6.1,11.3,10.6,16.3,16.5,7.9-3.2,15.8-6.5,23.3-10.1A72.69,72.69,0,0,1,670,213.9Zm-27.7-8.2a15.54,15.54,0,0,0-1.8,3.3,29.76,29.76,0,0,0-.1,4.3,50.59,50.59,0,0,0,4.1,16.6,49.39,49.39,0,0,0,5.5,9.8c.5.7,1.7,2.7,2.3,2.7.3,0,.9-.3,1.4-.4a179,179,0,0,0,20.3-6.6c-1.9-2.9-4.6-5-7.1-7.3-8.8-8.1-17.3-16.9-19.1-32.8a.1.1,0,0,0-.1-.1C646.1,198.7,644.2,202.4,642.3,205.7Zm-36.6-7c-.3,4-.5,8.1-.5,12.4.5.1.8.7,1.1,1a10.59,10.59,0,0,0,1.2,1c4.9,4.1,11.8,6.5,19,7.9.8.2,3.1.8,3.8.6.3-.1.9-1,1.2-1.5a112.9,112.9,0,0,0,7.9-11.6,33.1,33.1,0,0,1,.4-3.3c-12.6-.6-25.3-1.1-32.2-8.2C607.1,197.6,606.3,198,605.7,198.7Zm-18.5,22.7a17,17,0,0,0,2.2.1c4.7-.4,8.9-3.6,11.9-6.5,1-.9,2.8-2.1,3-3.3a16,16,0,0,0,0-3.1c.1-3.1.2-6.8.3-9.4a54,54,0,0,1-29.7,7.6c.2,1.7,1.3,2.8,2.2,4,2.6,3.7,5.1,7.2,7.9,10.6C585.6,220.6,586.2,221.3,587.2,221.4Zm-10.8-4a54.52,54.52,0,0,1,.1,7c-.3,7.5-1.5,14.9-5,18.5-.3.3-1.2.7-1.1,1,3.3.5,6.6.9,10.1,1.1,3.9-4.6,3.9-13.7,4.4-22.2-3.3-3.9-6.3-8-9.3-12.2A45.33,45.33,0,0,1,576.4,217.4Zm56.8,2.2a11.23,11.23,0,0,0-2.1,2.9,12.12,12.12,0,0,0-.1,2.8c0,7,1,13.1,3,17.6.3.7,1.1,2.3,1.6,2.4a19.09,19.09,0,0,0,2-.2,103.34,103.34,0,0,0,13.4-2.4c-1.3-1.9-2.8-3.7-4.1-5.9a53.71,53.71,0,0,1-7.5-26.2s.1-.1,0-.1A81,81,0,0,1,633.2,219.6Zm-27.7,2.9c3.3,4,8.5,6.2,14.2,7.6a6.13,6.13,0,0,0,2.6.4c.6-.1,1.4-1.3,1.9-1.9,1.6-1.8,3-3.3,4.5-5,.3-.3.8-.6.7-1-9.6-1.7-18.3-4.4-24.2-10.3C605.1,215.7,605.4,219.2,605.5,222.5Zm-19.5-.3a6,6,0,0,0,1.4,2c1.1,1.3,2.2,2.3,3.4,3.6.5.5,1.2,1.6,1.8,1.7a8.08,8.08,0,0,0,2-.3c4.4-.8,7.5-3.7,10.1-6.4-.4-2.9-.3-6.2-.4-9.4C600.1,217.7,594.3,223.5,586,222.2Zm38.8,7.3a15.25,15.25,0,0,0-1.8,1.9,17.32,17.32,0,0,0-.5,3.5c-.1,4,1.4,7.9,3.2,9.8a5.3,5.3,0,0,0,1.2,1c1.1.3,2.5-.1,3.7-.1s2.5-.1,3.6-.2c-3.1-5-4.3-13.4-4.2-21.8A68.72,68.72,0,0,1,624.8,229.5Zm-32.3,10.6c.4-3.5-.7-7.4-1-10.2-1.8-2-3.7-4-5.5-6.1,0-.1-.1-.1-.1.1,0,.9-.2,1.8-.2,2.7a26.2,26.2,0,0,1-.1,2.8c-.2,5.4-1.1,10.8-2.8,14.1-.3.6-.9,1.1-.9,1.6,2.7.2,5.4.2,8.3.2A10.38,10.38,0,0,0,592.5,240.1Zm1-9.8a126.52,126.52,0,0,0,13.8,12.5c-1-6-1.9-12.2-2.6-18.6C601.7,227.2,598.4,229.7,593.5,230.3Zm14.6,12.4a97.44,97.44,0,0,0,12.6-10.5c.3-.2.7-.5.6-.7a31.32,31.32,0,0,1-15.6-7.1C606.2,230.7,607.3,236.6,608.1,242.7Zm67.1-6.5c2.2,7.7,1.7,18.7-.2,26.2s-4.9,13.8-9.8,17.8c-.1.1-.3.2-.3.4a90.71,90.71,0,0,0,14.8,2.7,6.17,6.17,0,0,0,2.3.2c.7-.2,1.7-1.5,2.4-2.2a33.66,33.66,0,0,0,5.9-8.1c6.5-12.4,9.2-29.6,10-47.9h-.1C692.1,229.2,683.6,232.6,675.2,236.2Zm-82.6-5c.6,3,1.4,7,.7,10.2a11,11,0,0,1-1.2,2.9c-.1.3-.5.5-.3.8a110.54,110.54,0,0,0,14.6-1.6c-4.5-4-9.3-8.2-13.7-12.5A.31.31,0,0,0,592.6,231.2Zm16.2,12.3a83.34,83.34,0,0,0,16.6,2.2c-2.5-2.5-4.3-7.8-3.5-13.2A169.49,169.49,0,0,1,608.8,243.5Zm43.9-.1a18.82,18.82,0,0,1,.7,6.9,26.62,26.62,0,0,1-4.4,12.3,33.79,33.79,0,0,1-7.8,8.5,94,94,0,0,0,22.2,9.1c5.2-3.5,8.5-10,10.6-17.6a61.73,61.73,0,0,0,1-23.2,7,7,0,0,0-.8-2.9A193.16,193.16,0,0,1,652.7,243.4Zm-101.3-3.2c-.1,0-.1.1-.1.2,1,14.9,2.8,31.4,8.3,41.2,1.3,2.2,3.1,4.3,5.5,5.1a59.38,59.38,0,0,0,15.5-9c-3.5-1.4-5.4-4.7-7-8.3-3-7-4.4-16.3-5.6-25A118.47,118.47,0,0,1,551.4,240.2Zm86.5,5.9a13.61,13.61,0,0,0-2.1.2c-.5.2-1.2,1.4-1.8,2-3.2,3.1-7.9,5-7.2,12.1a79.19,79.19,0,0,0,13.5,10.1,27.45,27.45,0,0,0,5.7-5.1c3.1-3.9,6.2-9.1,6.6-15.3a14.73,14.73,0,0,0-.8-6.5A122,122,0,0,1,637.9,246.1Zm-32-.3c.2-.3,1-1.5.4-1.3a95.47,95.47,0,0,1-14.8,1.7c3.5,2.4,6.7,5.1,8.7,9.3C602,252.7,604.2,249.1,605.9,245.8ZM569,244.7c-.1,0-.1.1-.1.2a157.7,157.7,0,0,0,2.7,15.8c1.8,7.2,4,14.1,9.9,16.4a83.21,83.21,0,0,0,9-8.8c.2-.2.5-.3.4-.6-3.4-.3-5.6-2.7-7-5.3-2.3-4.2-3.5-10.5-3.9-16.4C576.3,245.7,572.6,245.2,569,244.7Zm33.3,9.3a23.81,23.81,0,0,0-1.8,3c-.3,1.3.4,1.8,1,2.5a5,5,0,0,0,5,1.7,11.47,11.47,0,0,0,3.8-2,101.86,101.86,0,0,0-2.9-14.4C606.1,247.6,604,251.2,602.3,254Zm10.1-8.6a11.86,11.86,0,0,0-2.8-.5h.1c3,2.6,6.2,5.1,9.4,7.4.1-3.6,2.2-4.9,4.9-5.6A83.94,83.94,0,0,1,612.4,245.4Zm-1.3,12.5c.8-.6,1.2-1.8,2-2.6,1.4-1.4,3.5-1.9,6-1.5a10.33,10.33,0,0,0-2.5-2.1c-2.7-2-5.3-4.2-7.9-6.2,0,0-.1-.1-.1,0A77.73,77.73,0,0,1,611.1,257.9Zm-30-11.7c.6,6.7,1.8,13.3,4.8,17.4a9.92,9.92,0,0,0,3.2,2.6,5.33,5.33,0,0,0,2.8.4c.6-.2,1.5-1.7,2-2.3a58.59,58.59,0,0,0,3.7-5c.4-.5,1.7-2.1,1.7-2.7a8.38,8.38,0,0,0-.9-2.3,21,21,0,0,0-1.6-2.2,28.54,28.54,0,0,0-5.2-4.5,3.81,3.81,0,0,0-4.1-1.3c-2.2,0-4.5,0-6.5-.2C581.1,246,581.1,246.1,581.1,246.2Zm46.6.5a1,1,0,0,1-.4.5c-2.1.4-4.5.5-6,1.7a5.22,5.22,0,0,0-1.2,4.5c.1.4.9,1.1,1.3,1.6a45.67,45.67,0,0,0,4.4,4.4c-.5-7.6,5.2-9.1,8.3-12.8,0,.1.4-.3.1-.3A35.48,35.48,0,0,1,627.7,246.7ZM616,275.5a8.59,8.59,0,0,0,5.9-3.3,17.58,17.58,0,0,0,3.4-7.7,15.51,15.51,0,0,0,.5-3.4c-.1-.4-1-1.2-1.4-1.6-1.6-1.6-3-3.1-4.4-4.7-1,.3-2.2-.2-3.5-.1-1.9.2-3,1.5-3.9,3a10,10,0,0,0-1.2,1.9,19.16,19.16,0,0,0,.4,3c.4,4.1.6,8.3.7,12.5A30.92,30.92,0,0,0,616,275.5Zm-10-13.2c-3,.4-5.2-1.7-6.5-3.9-1.5,2-3.3,4.7-5,6.9a10.06,10.06,0,0,0-1.7,2.2,6.8,6.8,0,0,0,1.1,3.1c1.6,3.1,4.3,4.9,8.3,5.5a26.66,26.66,0,0,0,9.4-.7,140.67,140.67,0,0,0-.9-15C609.1,261.1,607.8,262.1,606,262.3Zm20.8-.4c0-.1-.1-.1,0,0-.9,6.2-3.2,11.7-7.6,13.8-1.9.9-4.1.8-6.8.7,0,3.3-.2,6.4-.5,9.5,1.7.2,3.5.8,5.6.6,5-.4,9.2-2.9,12.8-5.6a41.31,41.31,0,0,0,8.6-9.1c.1-.2.4-.3.3-.6A111.36,111.36,0,0,1,626.8,261.9ZM592,268.3c-2.9,3.1-5.9,6.2-9,9a12.57,12.57,0,0,1,1.8,3,28.37,28.37,0,0,0,6.6,7.9,16.65,16.65,0,0,0,5.8,2.9c5.9,1.2,10.2-1.9,13.8-4.4.2-3.3.5-6.5.5-10.1C602.9,278.7,593.7,276.5,592,268.3Zm37.6,14.4c-4,2.9-9.4,5.6-15.5,4.7-.5-.1-1.4-.7-2-.3-.3.2-.4,1.6-.5,2.4a103.83,103.83,0,0,1-3.9,17.4c4.1,3.1,10.8,4.3,17.5,3.3,9.3-1.4,16.4-5.5,22.6-10.2a47,47,0,0,0,15-18.9,86.69,86.69,0,0,1-22.4-9.4A53.6,53.6,0,0,1,629.6,282.7ZM595,291.4a17.29,17.29,0,0,1-4.2-2.5,30.92,30.92,0,0,1-4.6-4.9c-.6-.8-1.3-1.8-2-2.8-.5-.9-1.2-2.7-1.8-3-.4-.1-.6-.1-.8.1a63.89,63.89,0,0,1-15.7,9.1c4.5,9.8,11.7,17.7,22.2,21.2a25,25,0,0,0,12.3,1,32.59,32.59,0,0,0,6.2-2.2,94.65,94.65,0,0,0,4.3-19.3C607,290.9,600.9,293.7,595,291.4Zm-43.1-.1c3,11.3,7.8,21.3,15,28.3a34.22,34.22,0,0,0,12.6,8.3c4.8,1.7,12.3,2.1,17.3-.3a79.42,79.42,0,0,0,9.2-18.7c-4.5,2.3-11.6,2.7-16.9,1.3a43.11,43.11,0,0,1-7.9-3.5,32.75,32.75,0,0,1-6.6-5c-4-3.9-7-8.8-9.7-13.8A72.72,72.72,0,0,1,551.9,291.3Zm124.8,45.1a5,5,0,0,1,.8,1.2c1.6-1.4,3.1-3.1,4.6-4.7a11.11,11.11,0,0,0-.1-2.6C680.3,332.4,678.4,334.2,676.7,336.4ZM678,338a8.88,8.88,0,0,0,1.8,2.4,3.7,3.7,0,0,1,2.4-2,34.94,34.94,0,0,0-.1-4.6C680.7,335.2,679.4,336.7,678,338Zm5-.8c1.2.6,2.3,1.2,3.5,1.8.2-.6.6-1,.8-1.6-1.4-.9-2.8-1.8-4.3-2.7Zm0,1.3c1.4.1,1.9,1.2,2.7,1.9a4.05,4.05,0,0,1,.5-.9c-1-.6-2.1-1.1-3.1-1.6A1.27,1.27,0,0,0,683,338.5Zm-4.6,4.9c.3-.9.6-1.6.9-2.5a15,15,0,0,0-1.8-2.4C677.4,340,678.1,341.9,678.4,343.4ZM686,341a17.25,17.25,0,0,1,1,2.4c.6-.8,1.4-1.5,2-2.4-.8-.4-1.6-.8-2.4-1.3C686.5,340.2,686.1,340.5,686,341Z"/></g></g></svg>