<svg xmlns="http://www.w3.org/2000/svg" viewBox="0 0 1440 758"><defs><style>.cls-1{fill:#2d2521;}.cls-2{opacity:0.3;}.cls-3{fill:#525466;fill-rule:evenodd;}</style></defs><title>Recurso 1</title><g id="Capa_2" data-name="Capa 2"><g id="Capa_1-2" data-name="Capa 1"><rect class="cls-1" width="1440" height="758"/><g class="cls-2"><path class="cls-3" d="M628.7,108.9h6.1c5.1,1.9,11.6,2.5,16.8,4.3,1.4-.5.8,1.1.9,1.9,6.5.1,11.3-1.6,17.8-1.4a111.7,111.7,0,0,1-22,9.2c.1,3.1,2.4,3.9,2.8,6.7-1.9.8-4.4.9-4.7,3.4-1,3,2,1.8,1.9,3.9-3.9,2.4-8.5,4.1-11.2,7.7,1,2.4.2,6-.5,8.2-8.4-1.1-14.3,2.7-22,5.3a39.85,39.85,0,0,0-8.4,3.4c-2.3,1.4-4.6,3.8-7,4.8-6.4,2.7-14.7,1.6-18.7,5.3-1.1,1-1.5,2.8-2.3,3.9-4.1,5.3-9.8,8.9-12.6,14.9-7.1,2.5-9.5-3.1-15.9-2.9-1.8-6.5-5.2-18.5-2.8-26.5,1.4-4.8,5.2-5.7,8.9-7.7-.4-1.7-4.3.5-6.1.5a11.31,11.31,0,0,0,.5-4.3c2.6.1,3.7-1.3,6.5-1a7.07,7.07,0,0,0-6.1-1.9c.8-3.7,4.2-5.2,2.8-9.6-2.7-8.5-27.7-2.2-28-12.1,5.3-3.2,14.6-2.3,21.5-3.9.7-2.7-2.1-1.7-1.9-3.9,10.2-1.8,20.2-3.7,31.3-4.3,5-.3,10.6,1,15.9,0,1.7-.3,2.8-1.9,4.7-2.4C606.5,107.8,618.6,111.3,628.7,108.9Z"/><path class="cls-3" d="M557.7,111.8c-1.7,2.2-4.9,2.2-7.5,2.9-3.8,1-6.9,1-11.7,1.9-12.8,2.4-24.1,8.7-34.1,13.5-1.5.2-1.2-1.3-2.3-1.4-.8.4-.8,1.8-1.9,1.9-6.7-1.1-16.6-2.2-20.1,2.4,5.8-2.1,12.9-1.2,18.7.5-.5,4.4-5.4,2.1-8.9,2.4-6.9.6-14.3,2.9-20.1-.5-2.1-.4,1.4-2.7-1.4-3.4-2.2,1.1-2.7,4-4.7,5.3-4-2.3-11.9-.6-15.9-2.9a9,9,0,0,1,3.7-6.3,54.5,54.5,0,0,1,6.1,1.4v3.9h4.7c.9-1.4,0-4.5.9-5.8,5-.6,8.1,1,10.3,3.4,3.6-2.6,10.6-1.6,13.1-5.3-4.2,1.4-6.9.6-9.3-1.9a15.6,15.6,0,0,1,.9-6.8c1.6-.4.8,1.8,1.9,1.9a14.86,14.86,0,0,0,6.5-4.3c17.5,2,33.6-4.9,51.4-3.4C543.2,111.7,552.3,111.6,557.7,111.8Z"/><path class="cls-3" d="M472.2,120c1.3,1.4,1.3,5.6.9,7.2h-4.2c-1-1.7-2.4-3-2.8-5.3C468.3,121.5,469.3,119.8,472.2,120Z"/><path class="cls-3" d="M465.1,123.8c-2.3,5.3-9.3,1.5-13.5.5C452.3,117.3,461.9,123.1,465.1,123.8Z"/><path class="cls-3" d="M439,122.4a10.14,10.14,0,0,1-11.7,5.3C430.3,125.4,434,119.5,439,122.4Z"/><path class="cls-3" d="M418,125.8c.6,2.7-1.2,2.9-1.9,4.3a7.74,7.74,0,0,1,7,2.9c5.9.7,6.5-4.3,11.7-4.3-.6,2.6-.4,3.3,2.3,3.4-.3,2.1-2,2.8-3.3,3.9-7.5-2.7-13.5,3.7-19.2,2.9-3.3-.5-4.4-4.9-8.4-2.9-.8-5.3-8.7-1.7-10.3-5.3C404.2,129.9,409.5,126.2,418,125.8Z"/><path class="cls-3" d="M400.2,135.9c1.9,1.6,2.5,4.5,4.2,6.3,3.6-.5,9.9,0,11.2,3.4,2.2-2.9,4.7-5.4,9.3-5.8.1,3.8.2,7.6-1.9,9.2.7,1.5,2.1,2.4,2.3,4.3-2.2,4.6-6.3,3.3-11.2,2.4-9.1-1.6-18.2,2.3-24.8,3.9a4.89,4.89,0,0,1-.5-2.9c-2.2-.3-3.7-1.3-5.6-1.9,1.7-4.5,4.1-6.9,5.6-10.6-4.7,2.2-9.1,6.8-16.4,4.8.8-2.7-2.7-2.7-1.4-4.3a71.36,71.36,0,0,0,10.7-3.9C383.3,133.3,393.9,137.4,400.2,135.9Z"/><path class="cls-3" d="M450.2,137.8c.1,2.5-2.1,2.7-1.4,5.8a38.4,38.4,0,0,1-11.2,4.3c-1.1-1.9-1.9-4.2-4.7-4.3-.3-2.2,1.6-2.2,2.3-3.4,1.2.6,1.5,2,2.8,2.4,1.1-.5.2-3,.5-4.3C442.3,139.2,445.6,137.4,450.2,137.8Z"/><path class="cls-3" d="M177.3,213c14.1-5.4,28.2-10.7,42-16.4-.9-2.3-5.1-1.2-7.9-1.4-2.4-.8,1.6-2.6,1.4-4.3-1.2.7-3.2.6-4.7,1-.7-4.4,1.7-5.6,2.8-8.2,4.7-3.9,12.2-4.7,18.2-7.2,3.8,0,8.2.7,7.9-3.4-1.9.6-7.1-.5-11.2-.5.3-1.6,1.3-2.5.9-4.8,5.9-1,10.7-3.1,16.4-4.3.2,1.5-1.3,1.3-1.4,2.4,2.2.4,3.2-.5,5.1-.5-.4-2.4-.9-4.8-1.4-7.2,14.7-3,27.1-8.3,42-11.1-.8,1.8.1.9.9,1.9,10.2,3,22.7,3.6,34.6,4.8a10,10,0,0,0,3.3,2.4c4.2-.2,8.3-.5,10.7-2.4,5.9,2.4,15.1-.9,20.6-3.4,1.1.6,1.5,2,1.9,3.4,1.9-.4,3.2-1.5,5.1-1.9.8.3,0,2.3.9,2.4,7.1-1.5,15.2,1.6,21.5,3.9-.6,1.4-2.3,1.5-3.7,1.9,2.9,2.7,10.4-1,15.4,1,1-3.7,5.9-3.6,9.3-4.8,3,5.5,10.5,3.9,18.2,3.9,1.1-.4.2-2.7.5-3.9,3.4-1.5,7.8-3.5,12.1-1.4,1.1-.4.2-2.7.5-3.9a46.79,46.79,0,0,0,15.9-12.5,41.12,41.12,0,0,1,13.1,0c-3.7,4.6-11.9,4.5-16.8,7.7,1.2,1.8.9,5.2.9,8.2.6,1.4,4.3-.5,4.2,1.4a2.7,2.7,0,0,0,.5,1.9c.1,3-4.4,1.6-2.8,4.8,4.4-1.2,10.5-4.9,13.1-9.6-2.2-.4-4.2-1.1-7-1-1.2-8.6,11.6-13,17.3-12.5,2.3,1.2-3.6,2-3.3,4.3a48.29,48.29,0,0,1,12.1-4.8c2.4,3.1,7.2.6,12.1,1,2.6.8,2,4.6,5.6,6.8,1.1.6,3.2-.4,4.2,0,.6.3.4,2,.9,2.4,3.2,2.4,5.9.4,6.5,3.4.5,2.2-1.4,3.6-2.8,5.3.8,2.7,3.1,1.2,5.1,1.9,2.6,1.7,4.7,3.9,7,5.8-3.2.2-3.3,3.7-7,3.4-1.8.2-1.5,2.6-3.3,2.9-3.5-.5-4.2-4-6.5-5.8-.8.4-1.4,1.2-2.3,1.4-.2,4.2,3.3,4.7,4.2,7.7-.9,2.4-4.1,2.5-3.7,6.3-3.3-1-5.1-3.5-7.9-4.8-.4,2,3.6,3.7,3.3,7.2-4.9-.7-8.7-2.6-13.1-3.9-1.6-3-3.2-6-6.1-7.7-3.5,1.1-7.4,4.7-9.8.5,2.1-5.1,8.5-2.3,13.6-2.9.3-5.3,6.5-4.5,8.9-7.7,0-1.1-.8-1.4-.5-2.9-6.1-1.1-5.9,6.3-12.1,3.4-.7-5.5,6.4-3,8.9-5.3-2.7-5.8-10-3.5-17.3-3.4-1.2.7,1.7,1.1.9,2.9a7.54,7.54,0,0,0-3.7,5.8c-2.6,3.1-8.7,2.5-11.2,5.8-2,0-1.6-2.6-4.2-1.9-.2,4.4,8.7,3.6,7.5,10.6-4,.7-5.2-1.4-7.5-2.4-2.3,1.3-3.7,3.6-7,3.9-1.6-.5-.5-3.6-3.7-2.4,3-2.4,6.2-4.5,8.4-7.7-4.7,3.2-9.1,6.6-15.9,7.7-8.2,7.1-21.4,9.1-27.6,18.3,1.5-.2,1.6.9,3.3.5-.1,2.3-1.4,3.4-.9,6.3.9,1.2,2.8-.7,4.7,0,1.9,1.9,5.5,2,6.1,5.3,3.4-.4,4.6,1.4,6.1,2.9,3.2-.4,4.9.8,7.9.5-.9,2.6-2.8,4.2-3.3,7.2-.1.9,3.9.1,1.9,1.4.3,2.7-.4,1.3-2.3,1.4-.5,1.1,1.6,3.4,1.4,5.8,6.6-1.3,7.3-8.6,8.9-14.9,7.6-1,13-4.3,15.4-10.6,0-2.2-2.5-2-2.8-3.9,5.6-3.2,7.3-10.5,10.7-15.9,4.9-.1,9.5,1.8,12.6-.5,3.3,2,4.1,6.7,9.3,6.8-2.8,2.7-4.8,8.3,0,10.1,5.8-1.6,8.9-5.9,13.5-8.7.1,5.9,4.1,12.8.5,16.9,3.8,4.6,11.9,7.5,11.2,14.9-.2,2.2-2.5,3.1-3.3,4.8-.5,1.1,1.5,4.3-1.4,4.3.5,1.4,2.4,1.4,1.9,3.9h5.1a11.34,11.34,0,0,0,.5,8.7c-1.6,1.3-3.5,2.1-4.7,3.9-1.3-.4-1.2-2.3-1.9-3.4-2.2,1.5-2.6,1.5-3.7-1H495.3c3.1-6.7,9.3-10.3,13.5-15.9-3.6.6-4.4,3-7.9,4.3-6.8,2.5-15.9-.9-23.4,1-2.3.6-2.8,2.8-4.7,3.9-3.1,1.8-7.1,1.1-7.9,4.3,4.5-2,10.5-6.7,15.9-3.4a26.93,26.93,0,0,1-4.7,8.7c1.1,3.8,4,5.6,7.5,4.8,2.9-.7,4.2-6.1,7.5-5.3-.6,2.6.1,2.9.5,5.3-7.9,2.5-15.3,8-23.4,8.7-2.3-3.6,1.2-3.8,2.8-5.8-8.1,2.9-22.3,5.5-19.6,14.9-4.6,2.6-9.7,1.9-13.5,4.3-3.1,1.9-3.7,7.5-8.4,6.8a8.64,8.64,0,0,1-4.7,6.3,11.61,11.61,0,0,0,.5,4.8c-4.2,8.2-12.5,9.8-19.6,15.9-2.6,2.2-7.4,7.4-7.9,10.1-1.3,6.7,5.1,16.1-.9,22.2-10-1.7-2.2-16.8-9.3-20.3-1.4.3-2.4,1-3.7,1.4-1.6-3.1-7.8-3.9-12.1-2.9-3,.7-4.5,4.1-7,4.3-3.2.3-6.4-2.8-9.3-2.4-3.1.5-6.1,4.2-8.4,5.8-3.2,2.1-5.9,3.5-8.9,5.3,1.9,8.3-4.8,15-5.1,21.7-.3,7.1,4.4,12.5,9.3,16.4,4.3-1,8.3-2.3,12.6-3.4,1.6-2.3,2.1-5.9,3.3-8.7,3.3-1.5,8.8-1.9,13.1-1-3.7,7.1-6,15.7-9.3,23.1,5.7,1.3,16.4-1.9,19.2,3.9-1.1,5.9-2.8,11.3-3.3,17.8,2,3.4,4,6.8,7.5,8.7,5-3.5,13.5-2.9,15.9,2.4,4.5-1.8,5.1-7.6,7.5-11.6,6.8.4,9.7-5.7,14.5-5.8,1.8,3.4-3.3,2.8-1.9,7.2,1.9-.2,5-3.2,5.6-6.3,2.7,1.8,3.5,4.8,7.5,5.8s8.8-.6,11.7,2.4c2.6-2.4,7.5-2.5,12.1-2.9-.7,1.4-3.2.9-3.7,2.4,1.8,2.5,6.6,1.9,6.1,6.8,4.3,1.4,8.2,3.1,8.9,8.2,3.2.3,5.8,4.1,9.3,4.8,3.2.7,6.2-.4,8.9.5,4.1,1.4,5,4.7,8.4,6.7.4,4.9,1.4,9.2,4.7,11.1.4,1.8-.6,2.3-.5,3.9,1.4,2.7,6.2,1.9,5.1,7.2,1.3,1,1.8-2.9,4.2-2.4,3.3,1.5,5.9,3.9,10.3,4.3v4.3c3.2-1,11.4,3.5,15.9,0,7.2,3,9.6,11,18.2,12.5,3.8,6.9,2.3,9.8-.5,15.9-3.5,7.6-7.3,14.7-11.2,19.8-.5,14.7.9,33.1-9.8,39.5-2.6,1.6-5.9,1.7-8.4,2.9-4.8,2.3-8.1,5.6-12.1,9.2a26.13,26.13,0,0,1-3.7,20.3h-3.3c-1.8,8.2-3.9,16.2-10.3,19.8-4.1-.7-7.7-2-10.3-4.3,0,1.1,2.8,3.1,2.8,5.8.3,1.8,3,1.1,3.3,2.9,1,4.8-.4,7.2-1.9,10.6-3.7,1.1-8.5,2.2-12.1,1.9-1.8,2.1.7,4.2-.5,6.3-.3,3.4-6,3.5-8.4,1.9.3,4.2,2,6.9,7,6.3-1.8,2.9-4.9,4.9-3.3,10.1-6.2,3.9-1.2,10.9,3.7,12.5-3.5,2.2-2.2,9.3-5.1,12.1,2.8,8.6,8.9,13.6,18.2,15.4-.3,3.4-4.1,3.2-5.6,5.3-.5,0-.7.5-1.9,0-19.4-2.6-28.9-15.5-36.9-29.9,0-1.9,1.2-2.7,1.9-3.9-.9-1.6-3.2-1.9-5.1-2.4a14.38,14.38,0,0,0,0-10.1c1.2-1.6,2.8-1.9,3.7-1.4a42.8,42.8,0,0,0-1.9-9.2c-2.6.4,1.3,4.2,0,4.8-6.6-.6-4.4-10-5.6-15.9-.7-3.7-3.1-5.6-3.7-8.2.9-7.1,2.8-14.7,1.9-23.1-.3-2.9-2-5.6-2.3-8.7-2-16.3,1.2-34.7-3.7-49.2-6.5-4.9-12.8-9.9-19.6-14.5-4.8-13.4-13.2-23-18.7-35.7a10,10,0,0,0-3.3-2.4c-2-5.5-3.4-11.7,1.9-14.5-5.8-5-.9-10.9.5-17.4,1.4-.3,2.4-1,3.7-1.4v-3.9c2.8-1.3,4.5-3.7,6.1-6.3-.6-3.2.8-7.8,0-12.1-.4-2-1.9-3-2.8-4.8-1.6-3.3-.2-5-2.8-5.3-3.8-.4-2.9,4-4.2,6.7-3.4,2.8-5.7-6.5-9.8-2.9-3.9-2.9-6.1-7.5-10.7-9.6,2.2-6-4.6-6.8-4.2-12.5-5.5-1.2-10.5-1.4-14.5-3.4-4.4-2.1-5.4-8.5-10.3-9.6-9.1,4.5-18.8-2.1-24.3-7.2-.7-.7-1.8.4-2.8,0-1.5-.5-8.8-6.7-9.3-7.7-1.7-3.5,1.8-7.3.9-11.6-1.3-6.4-8.9-8.7-11.2-14.5a25,25,0,0,1,.9-4.3c-4.1-5.2-7.9-10.8-7.9-20.3-1.8.4-2.2-.6-3.7-.5-2.4,4.9-.3,8,1.4,12.5,2.7,7.3,4.8,16.6,8.4,22.2-.6,1.4-2.2,2-2.8,3.4-1.8-3.6-3.3-7.5-7-9.2.8-1.1.4-3.4,1.4-4.3-2.1-3.5-5.9-5.1-7.9-8.7,0-2.1,2.4-1.7,2.8-3.4-4.3-4.2-1.6-12.2-3.3-18.3-1.3-4.7-5.3-5.1-8.4-7.7-1.4-8.3-1.9-17.9-2.3-24.6,4.1-2.7,4-7.3,6.1-11.6s7.2-6.9,9.8-11.6c2.2-4,1.6-7.9,5.1-11.1-1-3.8-7.3-4.7-5.1-10.1,0-1.8,3,.5,4.2.5-.4-5.1-1.2-12.1.5-16.4-1.1-1.3-3.7,0-5.1,0-.6-8.2,2.5-15.5-2.3-19.3-5.8-.7-11.1-2-15.4-4.3a69,69,0,0,1-20.6,5.8c1.7-2.6,5.3-3.2,7-5.8-3.5,1.5-7,3.1-11.7,3.4-1.2.7,1.7,1.1.9,2.9-4.4,4.4-10.3,3.8-15.9,5.3-3.9,1-7,4.1-10.7,5.8-10.2,4.6-21.8,5.8-34.1,8.2C177.3,213.4,177.3,213.2,177.3,213ZM419.8,401.6a4.31,4.31,0,0,0,1.9,2.9,7.65,7.65,0,0,0-.9-4.3A1.5,1.5,0,0,1,419.8,401.6Z"/><path class="cls-3" d="M653.9,169.2c-2.2,6.9-11,7-18.7,8.2-1.5-2.3-5.3-2.2-5.1-6.3a10.05,10.05,0,0,1-6.5-1.9c1.5-.5,2.8-3.8,5.6-3.9,1.8,0,3,2.5,5.1,2.9C641.3,169.4,650.3,163.2,653.9,169.2Z"/><path class="cls-3" d="M682.9,192.8c2.1,1.6-1,5.1-2.8,5.8.2,2,4.2.2,5.1,1.4.4,3-2.1,2.9-2.8,4.8,2.7,4.6,7,7.6,7.9,14h4.2a3.43,3.43,0,0,1-1.9,5.3c.5.6,1.3.9.9,2.4-.5,0-.4.6-.5,1-4,2.3-9.1-.1-13.6,1-2.2.5-5.7,3.6-9.3,2.4,2.6-1.5,3.1-5.2,7-5.3a10.57,10.57,0,0,0-4.7-1v-2.4c1-.7,3.5.1,3.7-1.4.5-1.6-1.5-.7-2.3-1,1-1.9,2.8-2.9,5.6-2.9.1-2.4-1.4-3-1.4-5.3-1.8-.3-2.3.9-4.2.5-.1-1.1-.9-2,0-2.9-2.4.6-2.5-1.2-3.7-1.9-.1-1.3.6-1.6,1.9-1.4-.5-.6-1.3-.9-1.4-1.9C670.7,196.3,678.8,196.6,682.9,192.8Z"/><path class="cls-3" d="M672.1,209.7c-.3,1.5.8,1.4.5,2.9-2.6,1.8-1.3,7.6-3.3,10.1-5.2-.4-9.1,4.9-13.5,1,.1-2.6,2-3.4,3.7-4.3.1-1.7-1.6-1.5-2.3-2.4,1.6-1.1-.3-3.1,1.4-4.3,1.7-.3,2.3.6,3.3,1C662.2,209.8,666.9,207.4,672.1,209.7Z"/><path class="cls-3" d="M1120.6,335.5c3.1,4.2,1.5,11.7-.5,15.9C1114.9,348.7,1115.1,338,1120.6,335.5Z"/><path class="cls-3" d="M416.6,356.7c-1.1,5.5-9.7,3.2-15.4,3.9,1.4-10.1-8.7-8.4-13.1-12.5-4.2.3-4,5.2-7.9,5.8-2.5-4.1,2.1-5.6,4.2-7.7a60.25,60.25,0,0,1,22.4,3.9A11.79,11.79,0,0,0,416.6,356.7Z"/><path class="cls-3" d="M419.8,359.1c7.2,1.3,16.3-1.1,16.8,7.7-6.5-.9-10.3.9-13.5,3.4-1.6-3.7-7.6.1-9.8-2.9.1-2.7,3.9-1.7,6.5-1.9C420.8,364.1,420.2,360.5,419.8,359.1Z"/><path class="cls-3" d="M1086.1,359.6c.1,5-2,7.9-7.5,7.2C1075.8,361.8,1081,357.7,1086.1,359.6Z"/><path class="cls-3" d="M1128.1,381.8c2.7,2.5,6.7,1.4,9.8,3.9a6.58,6.58,0,0,1-.9,4.3c3.5,0,7.9,3,6.5,9.6,1.3,1.9,3.6,2.7,4.7,4.8-1.6,4,.2,7.4.5,12.1-1.3-.1-3.1.3-3.7-.5.7,1.6.4,4,.5,6.3-3.7-1.3-6.6-3.5-6.1-9.2-.4-1.2-2.6.8-3.7-.5a21.22,21.22,0,0,0-2.8,4.3c-2.1-4.6,2-6.9,3.3-9.6,3.4,1.6,5.1-.7,7.5-1.4-1.4-2.7-1.8-6.5-3.3-9.2a5.89,5.89,0,0,0-2.3,2.4c1,1.5,3,2,2.3,5.3-1.9.1-2.3,1.8-4.7,1.4-1.3-.6-1.5-2.3-1.9-3.9-3.1-.5-3.5-3.8-3.3-7.7,3.2,0,4.8,3.3,8.4,1.4-3.8-2.7-4.9-8.2-10.7-8.7-.8.2-.8,3.6,0,3.9-2.9,1.1-5.5-3.5-4.2-6.8-7.6-4.3-.9-11.3-1.4-19.8C1132,361.6,1128.3,375.8,1128.1,381.8Z"/><path class="cls-3" d="M1113.2,413.6c2.7,3.2,8.4,5.2,8.9,9.2.5,4.3-5.3,6.3-5.1,11.6.9,2.9,3.7,3.9,4.2,7.2-.3,1.8-3.4.7-4.2,1.9.6,6.1-2.3,8.5-5.1,11.1-.3,2.8.5,4.3.5,6.7-5.9,5.8-13.9-3.5-20.6,0a8.69,8.69,0,0,1-3.7-3.4,21.21,21.21,0,0,0,.5-5.3c-3.9-3.3-3.7-10.2-2.8-14.9,2.3-.1,3.7.6,5.6,1,1.5-.9,1.4-3.3,2.3-4.8,1.6-.8,2.1-2.7,4.7-2.4C1102.5,424.7,1111.4,422.9,1113.2,413.6Z"/><path class="cls-3" d="M1066.5,444.9c-4.6,4.9,5.7,5.5,5.6,11.6,2,.1,2.6-.9,4.2,0-4.5,4.6-.2,12.4-6.5,14.9-14.9-4.3-15.7-23-23.4-34.7-1.8-.9-3.5-1.9-5.1-2.9-1-5.1-4.3-7.8-8.9-9.2,0-1.8,1.3-2.2,1.9-3.4,5.3,2,9.6,5.2,15,7.2C1052.1,436.9,1061.5,438.7,1066.5,444.9Z"/><path class="cls-3" d="M1144,437.2c2.6,4.3-.9,8.3-6.1,8.2-3.3-.1-6-3.8-8.4-3.4-3.3.6-4.1,5.2-.9,8.2,3.1-.9,5.1-3.8,8.9-1.4-.7,2.7-2.8,3.8-5.1,4.8,2,4.4,4.9,7.8,4.7,14.5-2,1.8-3.8-.1-5.6.5-1.1-5-.7-9.2-4.2-11.1-.5,3.7,1.8,8.1,0,12.5-2.2-.3-3,.8-4.7,1,.6-6.5-.1-9.8-1.9-14.5,3.4-4.4,2.7-13,6.1-17.4C1133.1,439.7,1140.8,442.4,1144,437.2Z"/><path class="cls-3" d="M1177.2,447.8c-1.7,5.8,2.3,8.5,5.1,11.1,3.5-2.2,4.7-6.8,8.9-8.2,10.4,2.8,18.9,7.5,27.1,12.5.5,1.6.8,3.3,1.4,4.8,4.6.1,6.8,2.7,7.9,6.3-1.5,0-2.3.8-4.2.5,2,7.2,9.4,9,11.7,15.9-3.9-1.8-6.8-.4-10.7-2.9-3-1.9-4.8-6.5-7.9-9.2-2.4-2-5.8,3.5-8.4,6.3-8.4.4-10.6-5.9-18.7-4.3-.1-2.7,2.4-2.7,3.3-4.3-.2-11-10.4-11.8-19.6-13.5-.5-1.7-2.9-4-1.4-6.3-1.7-3.5-7.6-2.7-7.9-7.7C1168.1,446.8,1172.6,446.9,1177.2,447.8Z"/><path class="cls-3" d="M1083.3,474.8a19.58,19.58,0,0,1,5.1-.5c1-.4.4-2.5,1.4-2.9,3.7,2.7,9,1.2,12.6,3.4.2,2-2.7.8-2.8,2.4,2.7,1.2,6.2,1.6,8.9,2.9,7.5-3.9,17.6,4.9,24.3-1,5.3,3.8,12.3-1.7,17.8,1-5.2,3.3-10.3,6.7-14.5,11.1-1.9-5,4.2-5.9,6.1-8.7-3.4-.1-6,2.2-9.3,2.4-2.1.1-3.9-1.3-6.1-1.4-4.4-.2-9.8,2.8-13.5-1-6.9,3.2-14.7.1-24.8-1.4-5.3-.8-9.7-2.1-11.7-5.8a59.68,59.68,0,0,1-6.1-1C1072.1,468.1,1081.7,470.5,1083.3,474.8Z"/><path class="cls-3" d="M1167.4,491.2c3.5,1.9,6.2,4.5,9.8,6.3,2.1-.9,3.9-2.1,6.5-2.4,3.7,5.1-3.9,8.1-5.1,12.5,5,4.7,7.5,11.8,15.9,13,6.8-6.2,5.3-20.9,9.8-29.4,3.6,2.9,3.5,9.5,4.2,15.4,1.8.4,2.2-.6,3.7-.5,2.3,10.5,3.3,22.3,11.2,27-.8,1.7-.4,4,0,5.8,5.1,2.7,5.2,10.7,9.3,14.5-3,12.4-4.8,23.8-12.1,31.3-1.1,1.1-3,1.8-4.2,2.9-6.3,5.6-9.9,13.8-15.9,19.8-7.8-.7-10.3,4.2-14.5,7.2-1.2-1.3-2.5-2.5-2.8-4.8-1.9,3-9.7,2.5-14,.5-3.7-4.1-1.8-7.7-2.8-12.5-2.3.8-3,3.3-4.7,4.8-1.5-.5-2.8-1.3-2.8-3.4,3.7-.8,7.3-1.8,7.9-5.8-2.8-.2-2.2,3.2-5.6,2.4.8-3.6,4.6-4,5.6-7.2-4,1.2-5.7,4.7-8.9,6.8-3.4-.5-1.1-3.9-1.9-5.8-1.5-3.8-5.7-4.3-7.9-7.2-13.4-.9-26,2.6-33.2,9.6-12.9-4.2-18.4,9.2-29,2.9.4-1.7-.7-1.9-.5-3.4,8.2-6.2,7.1-23.6,3.3-33.8.1-1.8,1.9-1.9,3.3-2.4-.2-1.6-.9-2.6-.9-4.3,2.5-2.9.8-10.1,4.2-12.1,1-.2.9.7.9,1.4,8.2-10,30-6,31.8-22.7,2,0,1.7-2.4,3.7-2.4-.4,1.4.7,1.2.5,2.4,1.5-3.4,5.8-4,6.5-8.2,1.4-.3,1.4.8,2.8.5.3-7.3,9-7.7,9.8-.5,1.8-.4,3.3-1.1,5.1-1.4.7-5.2,4.5-11,11.2-11.6C1167.5,495.1,1166.1,492.9,1167.4,491.2Z"/><path class="cls-3" d="M867.9,512.4c-1,.4-1.6,1.2-3.3,1,2.3,4-1.4,7-2.3,10.6-.5,2,0,4.1-.5,6.3-.9,3.8-2.7,8.2-3.7,12.5-1.6,6.6-3.8,14.6-11.2,14-5.3-.4-8.6-7.9-7-15.4.7-3.4,3.9-4.7,4.7-8.7.8-4.3-1.6-8.9-1.4-11.6s2.5-3.6,2.3-6.8c11.5-.8,12.6-12.4,20.6-16.9C868.3,501.1,868.8,506.7,867.9,512.4Z"/><path class="cls-3" d="M1298.7,605.5v1.4c-2.2,2.9-4.6,7.9-8.9,7.2-2.6,5.5-8.3,10.3-15.4,9.6-3.5,4-10.3,4.5-11.7,10.6-10.6.6-13.1,9.6-22,12.1-2.6-.8-5.4-1.5-6.5-3.9,11.3-7.7,24.9-13.2,34.6-22.7,2.6,1.7,3.3,1.1,5.6-.5,1.7-.5.5,2.1,1.4,2.4,2.2-.8,3.3-2.7,4.7-4.3-.8-1.6-3.1-1.6-3.3-3.9,2.2,0,2.9-1.6,5.1-1.4,2.9-4.4,3.6-11.1,3.7-18.3,2,0,2.6,1.5,4.2,1.9a38.25,38.25,0,0,1-.9,7.2c2.6.4,1.7,4.4,3.7,5.3C1295.3,607.8,1296.6,606.2,1298.7,605.5Z"/><path class="cls-3" d="M1175.8,618c2.2,3.6,7.6,3,12.1,1.9-2.8,6.4-6.9,15-15.9,12.1C1173.1,627.2,1174.7,622.9,1175.8,618Z"/><path class="cls-3" d="M838.9,374.1c-1.3-5.4-6.5-6.7-7.5-12.5-3-3.3-6.8-5.4-7.9-10.1-.4-1.6.1-3.3-.5-4.8-1.4-3.7-4.4-7.5-6.5-11.1-2.2-3.8-5.4-6.8-7.5-10.1h-4.2c4.5,10.4,9,20.9,15,29.9-2.1,6.4,2.4,7.8,4.2,11.1,1.3,2.2,1,5.6,1.9,7.2,3.5,6.4,14.2,11.4,17.3,18.8-1.5,4.5,2.3,4.6,3.3,7.7,6.1-2.2,12.1-4.6,20.1-4.8,1.8.4,1-1.8,2.3-1.9,1.1,0,1.4.8,2.8.5-.4,18.7-10.8,27.2-16.8,40-4.3,2.6-8,6.7-11.7,11.1-3.5,4.1-8,7.8-10.7,12.1-2.1,3.3-5.3,10.2-5.6,14.5-.6,8,5.2,15.6,6.1,24.6.5,5.3-1.2,10.1-.5,16.4-2.7,4.1-7,6.6-11.7,8.7-2.9,4.2-7.7,6.5-10.3,11.1,2.3,5,3.1,12.7.9,18.3-3.5,1.8-7.5,3.2-9.3,6.8,1.3,4.2-.5,8.1-1.9,11.1-6.8,7.2-12,15.9-19.6,22.2-4,0-7.1,1-9.3,2.9-2.2-.3-4.1-1.1-6.1-1-3.8.2-8.3,3.2-10.7,2.9-4.7-.5-3.7-5.6-7-8.7-.2-1.3,1.7-.5,1.9-1.4-.9-5.2-3.3-9.3-5.1-13.5-1.8-4-5-7.9-6.1-12.1-1.1-4,.3-8.5-.5-13-1.9-11.3-12-18.2-10.7-32.8.9-10.5,11.4-19.5,4.2-29.4-.3-1.9,1.2-2,1.4-3.4-4.2-11.8-9.2-22.6-16.4-31.3,1.6-5.7,4.1-10.6,3.7-18.3-1.4-4.9-8.7-4.9-14.5-3.9-1.2-6.9-5.7-10.5-15-9.2-4,2.6-8.8,4.5-13.1,6.8-6.7-3.5-16.6-1.3-22,1.9-6-4.9-12.6-9.2-18.7-14-2-7.9-5-14.8-12.1-17.4-1.7-2-3.4-6.2-1.4-9.2a6.64,6.64,0,0,0-2.8-3.9c-.1-2.4,1.9-2.6,2.8-3.9.2-5.5,4.7-11.7.9-16.9a2.06,2.06,0,0,1,1.4-2.4c-.6-1.7-2.6-2.8-2.8-4.8-.2-2.4,1.3-2.7,2.8-6.3,1.8-4.1,1.7-9.2,6.1-9.6-.8-7.9,5.7-8.3,7-14,6.2-.7,8.4-5.5,12.1-8.7-2.1-15.8,13-13.9,15-25.6-2.2-4.7-4-6.5-10.7-4.8,2.3-3.1-.8-4.8-.9-7.7-.3-5.9,5.7-11.6,2.3-19.3,2.9.7,2.7-1.8,4.7-1.9,5.8,1,15.4,3.4,21.5.5.1-3.1,1.2-4.9.9-7.2-.8-7-7.6-8.2-11.2-12.5,1.3-2.9,8.2-2.3,10.7-1,.2-2.5-1.3-3.1-.9-5.8a31.07,31.07,0,0,0,4.7,2.9c3.4-1,6.3-2.5,7-6.3,5.5-.9,9.8-3,9.8-9.6,3.4-2.6,10.9-1,13.6-4.3-4.8-4.7-2.9-15,5.1-14.5-1.6,4.3,3.3,5.3,0,8.2,1.9-1.1,4.9-1.1,6.1-2.9-.8-4.3-4.7-5.4-4.7-10.6-4.7,3-10.9,8.1-16.4,2.4-.4-3.1,1.3-5.3-1.4-5.8-1.9-10.8,7.9-16.6,15-13.5,1.2-.5,1.6-1.9,2.8-2.4.4-8.1,7.3-9.5,10.3-14.9-.5-1.1-2.9-.2-4.2-.5,9-5,21.6-10.8,34.6-8.7,1.5-.4,2.2-1.6,3.7-1.9,3.2.2,5.5,1.4,8.4,1.9,0,1.4-1.2,1.6-1.4,2.9,10.9.2,20.9,5.5,31.8,7.2.9,9.2-12.3,6.2-19.6,5.3.1,1.2,1.6,1,2.8,1-2.7,5.5,5.4,8.1,9.3,8.2-.3-2.6-5.3-.3-4.7-3.9,3.2-2,6.7.2,9.8,1,1.3-1.4-1.5-1.3-.9-3.4,2.9-.6,4.7-2.2,6.5-3.9,1.9,0,2.2,1.6,4.7,1-.7-1.5-3.3-7.5-4.2-8.7,4.9-.4,9,0,9.8,3.9-1.2.1-1.6.9-2.3,1.4.8.7,1.4,1.7,3.3,1.4,4.2-4.4,10.6-6.4,17.8-7.7,0,1.3.2,2.8-.5,3.4,3-2.9,9.5-2.1,12.6-4.8,1.8.5,1.1,4.2,3.7,2.4-.6-3.4-4.9-2.9-7-4.8,1.7-3,4.9-1.1,6.5,1,9.7.1,16.5,3.2,23.8,5.8.1-3.8-3.9-3.4-6.5-4.3-.1-3.1-1.9-4.5-3.3-6.3,4.4-1,1.3-7.9,6.5-8.7,1.7,1,3.8,4.1,6.5,2.4,1,.3,1.5,3.6.5,4.3,2,.5,2.9,4.1,5.1,7.2,2.4,3.3,8.6,6.6,1.9,10.6,2.8,2.8,6.1-.7,6.5-3.4.2-1.9-2.9-2.1-1.4-3.9-1.5.3-3.5-1.4-5.1-2.4v-3.4c-1-1.4-2.9-1.8-4.2-2.9-.1-1.9.7-2.8,2.3-2.9-.1-2.5-3.2-1.8-3.3-4.3.8-.3,1.9-.2,2.3-1,3.2,2.1,3.6,11.3,9.3,7.7-1.8-.2-4.3-.1-4.2-3.4,4.8-4.4,11.6,3.1,15.9.5-3.6,1.5-6.1-3.1-9.3-4.8,2.7-2.9,8.9.3,13.1-1.4.9-.7-1.8-1.6-2.3-2.4,7.6-4.5,20.1-4.1,30.4-5.8,1.2-1.1-1.5-1.6,0-2.9a38,38,0,0,1,14-1.4c.4,1,1,1.9,1.4,2.9,8.4.8,19.7-1.3,22,5.8a53.63,53.63,0,0,1-8.4,4.8c4.9,2.4,6.4-3,10.3-3.4,2,.7,3.1,2.2,4.7,3.4,10.2-1.1,15.8,2.7,25.2,2.4,1.1-.7-2.3-.8-1.4-2.9,5.9-1.2,11.1,2.2,17.3,2.4,3.2,4,8.2,6.3,13.5,8.2,1.3-1.1-.7-2.8,0-4.8,4.2,2.2,10.9,1.9,17.3,1.9.8-1.3-3.3-1.7-3.3-3.9,7.6,0,16.6.4,24.3,1,2.6.2,5.3,2.2,7.9,2.9,8.6,2.2,21.6.8,30.8,2.9,1.2,1,1.8,2.6,3.3,3.4,11.3.1,22.2.5,31.3,2.9,0-1.2-3.1-3.2-4.7-4.3,22.9-.7,43.2,8.9,63.5,12.5,4.1.7,8.2.4,11.7,3.4-.1,1.4-.8,2.1-2.3,1.9,1.3,1.1,2.8,2,2.8,4.3-8.5.8-14.3-5.1-22.9-5.8a3.69,3.69,0,0,1-3.3,4.8c3.4,3.9,11.2,3.3,13.5,8.2-7.2-2-15,1.2-15.4,10.1-3.9-3-8.7-3.4-11.7.5-.5-.7-.6-2-1.4-2.4-2.7-.4-3.4,1.3-5.6,1.4.9,1,1.1,4.8,1.9,6.8,1.3-.2,4.3.6,6.1,1.4a2.9,2.9,0,0,1-.5,2.4c2.5.8,4.1,2.5,7,2.9a1.66,1.66,0,0,1-2.8,1.4c.3,3.4,3.3,3.9,4.2,6.7-1.4.2-2.4-1.3-2.8.5-.7,1.6,1.7,3.5,2.8,4.8-.4,1.7-2.4-1.2-2.8.5-.3,2,2.8,5,.5,8.2-4.7-.7-8.4-6.1-12.1-9.6-3.9-3.7-7.9-7.2-11.7-10.6-.1-2.8-1.2-4.6-1.9-6.7,4.3-2,3.2-9.6,5.6-13.5-1.3-2-1.5-5.2-4.2-5.8-2.6,1.3,1.5,2.4,1.4,3.4-.1,1.9-3,2.6-4.2,4.8-3.2-.7-4.5-3.4-6.1-5.8h-6.5c-.9,2-.3,5.5-1.9,6.8,1.7,1.5,4.7,1.5,5.1,4.3-3.8-.1-10.7,3.1-12.6-1-7.4,1-16.8,0-24.3,1-3.4,4.3-1.8,13.9-7,16.4,1.2,1.9,5.9.4,6.1,3.4,1.4-1-.4-2.7,0-4.3,2.2,1.6,2.7,4.9,4.7,6.8,1.3-.2,1.1-2.1,2.3-2.4,13.8-.1,14.5,13.3,20.6,21.2a68.31,68.31,0,0,1-2.8,24.6c-1.7,1.2-3.5,2.1-5.1,3.4-2,.1-2-1.8-3.7-1.9-6.6,1.9-1.6,12.8-8.4,14.5,5.8,5,13.1,8.4,15,17.4-1.9,3.2-9.4,8.4-12.1,3.4,3.2-4.9-3.5-6.7-1.9-11.1-2.1-1.4-4.9-2-7.9-2.4-.1-2.1-.7-3.7-.5-6.3-5.2-4.7-8.5,1.5-13.1,2.9,2.3-2.8-2.9-4.9.5-7.7a2.73,2.73,0,0,1-1.4-1.4c-4,1.8-4.8,6.9-9.3,8.2.4,3,3.9,2.7,6.1,3.9v2.9c3-1.8,11.1-4.6,13.5,0-4.6,1.4-6.7,5.3-8.9,9.2,5.6,3,8.4,9,13.1,13,.4,1.4-.7,1.2-.5,2.4.4.7,1.5.7,2.3,1-.3,1.9-1.5,3-1.9,4.8,2.7.5,2.7-1.7,4.7-1.9-.9,14.8-6,25.3-13.5,33.3-5,1.4-9.6,3.3-13.1,6.3-3.7-1.9-3.2,1-7,1-.1,1.6.4,3.9-.5,4.8-3.3.7-3.5-1.8-3.3-4.8-6.1-3.5-9.7,3.3-12.6,6.3-.4,10.2,11.5,13.3,15,21.7,1.6,3.8.3,7.1,1.4,13a17,17,0,0,1-7.9,6.3c-1.7,3.4-5.4,7.2-8.4,7.7-.1-2.6-.8-4,.5-5.8-1-1.4-2.2-1.6-4.2-1-.9-5-5.5-6.2-7.5-10.1-1.5,0-2.3.8-4.2.5-.4-2,.7-2.5.5-4.3a.68.68,0,0,1-.9-.5c-3.1.9-1.7,4.9-2.3,7.7s-2.4,4.5-1.9,7.2c.7,3.3,5.8,4.9,4.2,9.2,4.8,3.7,9.4,7.7,12.6,13-1.3,8.9,4.5,10.4,4.2,18.3-2.7-.4-4-2.3-4.7-4.8-5.9-2-12.8-7.4-10.3-14.9-2.3-3.8-4.2-8.2-7-11.6-1.5-.2-1.1,1.5-2.8,1,1.4-14.6-.9-26.1-5.6-39.5-4,1.7-6.4,7.5-11.7,3.9.1-6.3,1.2-11.5-4.2-12.5-.4-1.7.7-1.9.5-3.4-5.4-.2-6.4-8.3-9.3-12.5-.8.6-.7,2.1-1.4,2.9-3.7-.3-5.9,1-8.4,1.9-1.7.7-.3-1.6-1.4-1.4-3.7-.5-4.1,2.5-3.7,6.3-1.8.7-3.1,1.9-5.1,2.4-1.7,7.7-10.1,8.6-12.1,15.9a23.51,23.51,0,0,0-5.1,1.9c2.6,6.5,0,14.8.9,21.7,0,2-2.9.9-2.8,2.9-.5,1.8,1.6.9,1.9,1.9,1.6-.1-1.2-1.8.5-1.9,4.8.7,5.5,5.6,8.4,8.2-.8,4-1.9,7.7-5.6,8.7-3.2-1.4-3.9-7.9-2.8-12.1-.3-1.5-2.5-.9-2.8-2.4-2.7.7-2.8,4.1-4.7,5.8A16.53,16.53,0,0,1,965,410c-5.6-20.2-16.7-34.8-18.7-58.8-1.4.9-.3,1.5-.5,3.4-1.3,1.2-3.4,1.6-4.7,2.9-2.4-2-10.1-6.3-5.6-9.2-5.3-2.1-8.3-6.6-12.2-10.1-11.9.4-23-.4-33.6-3.4a11.31,11.31,0,0,1-.5-4.3c-.7,0-1.3.1-1.4-.5-3.6.5-5.5,2.9-8.9,2.4-2.3-.4-10.1-5.6-11.7-7.7-1.9-2.6-2.2-6.4-4.2-8.2-4.1-.6-6.3,2-6.5,3.9-.4,3.7,3.9,4.7,6.1,8.7,1.6,2.9.9,5.8,2.8,7.2,1.4-.7.7-3.4,2.8-3.4,1.1,2.5,3.1,4.2,2.3,8.7,7.3,2.9,12.2-6.8,16.4-8.7-.2,3.7,1.3,6.1,2.3,9.6,5.4.6,10.6,2.6,11.2,6.8.6,3.9-4.4,5.9-3.3,10.1-1.2.1-2.3.1-2.8-.5v5.3c-2.1,1-4.1,2.2-4.7,4.8h-2.8c-1,.7-.6,2.9-1.4,3.9-3.7,1.8-10.4.5-10.3,6.3-8.9,1.9-12.4,9.4-23.4,9.2-1,2.6-5.1,3.8-7,3.4-3.9-1-3-7.5-5.6-12.1-2-3.5-5.7-4.1-3.7-7.2C837.5,371.4,837.4,373.6,838.9,374.1Zm55.6-217.5c2.3-.1,3.8,1.1,4.2-1.4C896.7,155.1,895,155.2,894.5,156.6ZM753.9,174.5c-5.5,2.7-12.1,4.2-11.7,13,1.5,1.8,4.5,2.1,5.6,4.3-1.5,4.1-9.2,4.6-6.1,10.6-.9,1.2-1,3.2-2.3,3.9a5.73,5.73,0,0,0-4.2,1c0,1.4,2.7,2.7.9,4.3-1.6-2.9-4.1-2.1-7.5-2.9.3,3.2-2.3,3.4-3.3,5.3,2.9.1,3-2.7,6.1-2.4,1.2.5,1,2.5,2.3,2.9,4.6-1,7.6-3.8,12.1-4.8.4,1.2,1.3,1.9,1.4,3.4,2.9-1,5.7-2.2,7.5-4.3-5.1-5.7,3.5-13.3,7-6.3.6-1.2,1.7-1.8,1.4-3.9-.6-1.7-3-1.8-3.7-3.4,2.7-6.7,15,1.1,16.4-5.8-7-2.8-19.6,6.5-22.9-1.9-1-2.6.1-7.2,0-10.6a21.69,21.69,0,0,0,10.3-7.7,1.5,1.5,0,0,0-.9-1C758.2,168.7,751.3,168.7,753.9,174.5Zm49.5,74.7c1.5.7,3.6.8,4.7,1.9-2.6,1.4-6.1,1.8-7.9,3.9-2.4-1-3.2-3.7-5.6-4.8-.1-1,3.2-2.2.9-2.4a52.66,52.66,0,0,0-5.6-1.9c-3.9,5.4-8.3,11.5-9.3,18.3,2.3,2.3,5.8,3.3,9.3,4.3,4.7-1.9,9.3-5,14.5-4.3,2.7.4,5.4,3.2,8.9,3.9s6.3,0,9.8,1a17.14,17.14,0,0,0,3.7-3.9c-3.5-2.1-5.4-6.2-8.9-8.7-2.9-2.1-7.6-2-9.3-5.8,2.4-.8,4.9-6.4,4.2-7.2C808.6,244.3,804.6,245.3,803.4,249.2Zm51.9-5.8c-3.2,4.6-10.4,5-12.1,11.1.3,1.5,2.3,1.2,3.3,1.9a16.89,16.89,0,0,1-.9,3.4c3.1,5.2,9.1,7.4,11.7,13-.1.7-1.1.4-1.9.5,1,3.6-.2,4.9-1.9,6.8-.1,3.3,2.4,4.4,5.1,3.4,1.5,5.1,7.5,3.6,12.6,2.9-.8-2.3-2-4.8-.9-7.7-1.6-3.2-6.2-3.2-6.1-8.2,1.6-1.2,3.6.6,6.1,0a8.64,8.64,0,0,0-3.7-5.3c-.9,1.4-1,3.5-3.7,2.9v-5.3a24.33,24.33,0,0,1-9.3-8.7c2.2-1,3.1-5.1,7-2.9a22.45,22.45,0,0,1,1.4-4.8C859.6,245.4,857.1,244.8,855.3,243.4ZM752.5,267c-7.7-5-16.8-8.7-20.6-17.8-.6,0-.6-.6-1.4-.5-5.4,4,4.4,15.3,9.8,15.4.9,4.6,7.3,3.4,9.3,6.8-.3,1.2.6,3.5-.5,3.9-.4-2.5-3.7-4.2-5.6-2.4,3.3,4.1,1.1,9.6-4.7,10.6-.1,1.6.4,3.9-.5,4.8-3.4-2-8.7-2-10.3-5.8,2.2-1.4,6.1-1,8.4,0,1.6-1.6,3.5-2.9,3.7-5.8-5.4-8.7-18.5-9.5-21-21.2-5.5.1-7.1,4.3-11.2,5.8-3-1.6-6.7-2.5-9.8-.5-.3,2.2.6,2.9,0,4.3-4.6,4-12.5,6.4-11.2,14.9-2.2.3-2.9,2.1-3.3,4.3-4.2,3.7-15.8,2.3-15.4,9.2,2.8,1.4,7.6.8,11.2,1.4,4.2-6.2,12.7-7.8,23.4-7.2,3.1-3.4,11.3-1.5,15.9-3.4.2,2.1,3.5.9,4.7,1.9-2.3,2.9,2.5,9.1-1.9,13a16.29,16.29,0,0,1,5.6,4.8h5.6c3.2,2,6.6,3.8,8.4,7.2,6.2-.9,10.3,5.2,14,2.4-.2-1.8-1.9-1.9-1.4-4.3,1.6-4.1,5.9-5.5,10.3-6.7,0,.8-.1,1.7.9,1.4,6.9.9,12,7,19.2,7.7,5.5.5,11.8-3.6,18.2-.5,5.4-4.5,10.4-14.5,7-23.6-3.6.8-6,2.8-9.3,3.9-2.5-1.1-3.8-3.4-7.5-3.4-1.3.4-.3,3.2-2.3,2.9-3.4-1.7-6.3-3.8-10.7-4.3-.3-4.1-3.6-9-4.2-14.5-1-.5-2.3-.8-3.3-1.4-1.8.6-1.4,3.4-3.3,3.9-1.7.5-2.8-3.8-3.3-1.4-.2,4.8,4.8,4.4,5.1,8.7-1.6,2-4.7,2.5-4.7,6.3-.7-.7-2.4-.4-3.7-.5-1-1.6-2.2-2.8-1.9-5.8C754.7,279.4,751.8,274.6,752.5,267Z"/></g></g></g></svg>