<svg xmlns="http://www.w3.org/2000/svg" viewBox="0 0 1241 2206.99"><defs><style>.cls-1{fill:#2d2521;}.cls-2{opacity:0.3;}.cls-3{fill:#525466;fill-rule:evenodd;}</style></defs><g id="Capa_2" data-name="Capa 2"><g id="iphone_6_7_8_plus_portrait" data-name="iphone 6 7 8 plus portrait"><g id="_01_Index" data-name="01 Index"><g id="Seccion_1" data-name="Seccion 1"><g id="Mapa_copia" data-name="Mapa copia"><rect class="cls-1" width="1241" height="2206.99"/><g class="cls-2"><path class="cls-3" d="M506.37,817h6.46c5.46,2,12.36,2.56,17.89,4.48,1.5-.5.88,1.11,1,2,6.9.12,12-1.61,18.88-1.49a114.69,114.69,0,0,1-23.35,9.46c.1,3.21,2.58,4.05,3,7-2,.78-4.67,1-5,3.49-1.08,3.07,2.12,1.86,2,4-4.12,2.52-9,4.22-11.93,8,1,2.53.21,6.17-.5,8.47-9-1.11-15.19,2.82-23.36,5.47a44.13,44.13,0,0,0-8.94,3.49c-2.46,1.4-4.87,3.92-7.45,5-6.86,2.8-15.59,1.7-19.88,5.48-1.21,1.07-1.58,2.85-2.49,4-4.33,5.44-10.44,9.21-13.41,15.44-7.59,2.59-10.1-3.23-16.9-3-1.9-6.7-5.52-19.13-3-27.39,1.51-4.91,5.53-5.86,9.44-8-.38-1.79-4.6.52-6.46.5a10.8,10.8,0,0,0,.5-4.48c2.74.09,3.93-1.37,6.95-1a7.84,7.84,0,0,0-6.46-2c.88-3.79,4.51-5.38,3-10-2.92-8.75-29.51-2.24-29.81-12.45,5.69-3.26,15.53-2.37,22.86-4,.76-2.76-2.21-1.78-2-4,10.82-1.88,21.54-3.8,33.3-4.48,5.32-.31,11.28,1.08,16.89,0,1.78-.34,3-2,5-2.49C482.78,815.87,495.62,819.47,506.37,817Z"/><path class="cls-3" d="M430.84,820c-1.81,2.26-5.2,2.32-7.95,3-4.05,1-7.33,1-12.43,2-13.6,2.53-25.59,9-36.27,13.95-1.56.23-1.32-1.34-2.49-1.5-.88.46-.82,1.84-2,2-7.1-1.12-17.68-2.25-21.37,2.49,6.17-2.18,13.75-1.22,19.88.49-.56,4.51-5.7,2.2-9.44,2.5-7.34.58-15.22,3-21.37-.5-2.21-.43,1.53-2.84-1.49-3.49-2.32,1.17-2.85,4.12-5,5.48-4.24-2.39-12.67-.59-16.9-3a9,9,0,0,1,4-6.47,49.27,49.27,0,0,1,6.46,1.49v4h5c.92-1.4,0-4.65,1-6,5.37-.57,8.62,1,10.94,3.48,3.81-2.65,11.3-1.62,13.91-5.47-4.44,1.49-7.36.64-9.94-2a14.41,14.41,0,0,1,1-7c1.69-.37.81,1.84,2,2a16.2,16.2,0,0,0,7-4.48c18.63,2.1,35.79-5.08,54.67-3.48C415.47,819.94,425.13,819.79,430.84,820Z"/><path class="cls-3" d="M339.9,828.44c1.36,1.49,1.36,5.74,1,7.47h-4.47c-1-1.8-2.54-3.1-3-5.48C335.82,830,336.9,828.26,339.9,828.44Z"/><path class="cls-3" d="M332.44,832.42c-2.47,5.46-9.94,1.51-14.41.5C318.75,825.67,329,831.65,332.44,832.42Z"/><path class="cls-3" d="M304.61,830.93c-2.08,4-6.61,6.69-12.42,5.48C295.32,834,299.36,828,304.61,830.93Z"/><path class="cls-3" d="M282.25,834.42c.6,2.76-1.29,3-2,4.48a8.45,8.45,0,0,1,7.46,3c6.32.69,6.87-4.4,12.42-4.49-.64,2.71-.37,3.43,2.48,3.49-.29,2.2-2.08,2.89-3.47,4-8-2.76-14.36,3.84-20.38,3-3.47-.49-4.66-5.1-8.94-3-.85-5.48-9.28-1.76-10.94-5.48C267.64,838.7,273.25,834.86,282.25,834.42Z"/><path class="cls-3" d="M263.36,844.88c2,1.62,2.66,4.63,4.48,6.47,3.78-.57,10.49,0,11.92,3.48,2.35-3,5-5.62,9.94-6,.14,4,.22,7.85-2,9.46.75,1.57,2.21,2.43,2.48,4.48-2.37,4.73-6.71,3.37-11.93,2.49-9.64-1.62-19.39,2.41-26.34,4-.57-.59-.56-1.76-.49-3-2.36-.3-3.92-1.39-6-2,1.83-4.62,4.32-7.12,6-11-5,2.31-9.7,7-17.39,5,.89-2.82-2.85-2.76-1.5-4.48a96,96,0,0,0,11.43-4C245.42,842.23,256.69,846.41,263.36,844.88Z"/><path class="cls-3" d="M316.54,846.87c.12,2.61-2.22,2.76-1.49,6a45,45,0,0,1-11.93,4.48c-1.14-2-2-4.3-5-4.48-.29-2.28,1.66-2.32,2.49-3.48,1.22.59,1.62,2,3,2.49,1.13-.53.19-3.13.5-4.49C308.13,848.32,311.65,846.47,316.54,846.87Z"/><path class="cls-3" d="M26.32,924.56c15-5.59,30-11.09,44.73-16.93-.93-2.39-5.42-1.22-8.45-1.5-2.55-.88,1.71-2.71,1.49-4.48-1.31.68-3.39.59-5,1-.73-4.55,1.84-5.79,3-8.46,5-4,13-4.88,19.38-7.47,4,0,8.68.73,8.45-3.49-2,.62-7.55-.54-11.93-.5.32-1.67,1.43-2.55,1-5,6.25-1,11.39-3.19,17.39-4.48.23,1.57-1.34,1.32-1.49,2.49,2.35.37,3.42-.56,5.46-.5-.47-2.51-1-5-1.48-7.47,15.67-3,28.84-8.61,44.72-11.45-.84,1.85.11,1,1,2,10.85,3.08,24.14,3.7,36.78,5a12.44,12.44,0,0,0,3.48,2.49c4.48-.16,8.78-.5,11.43-2.49,6.28,2.52,16.08-.92,21.86-3.48,1.2.62,1.61,2,2,3.48,2.05-.43,3.41-1.56,5.47-2,.86.3,0,2.36,1,2.49,7.6-1.52,16.18,1.62,22.86,4-.59,1.41-2.46,1.52-4,2,3.05,2.81,11.07-1.06,16.39,1,1.12-3.86,6.27-3.68,9.94-5,3.15,5.67,11.2,4.06,19.38,4,1.13-.38.2-2.8.5-4,3.66-1.54,8.34-3.63,12.92-1.49,1.12-.37.2-2.8.5-4,6.68-3.26,12.49-7.4,16.9-12.95a47.68,47.68,0,0,1,13.91,0c-3.92,4.71-12.61,4.63-17.89,8,1.31,1.84,1,5.33,1,8.47.59,1.4,4.54-.56,4.48,1.49a2.85,2.85,0,0,0,.49,2c.1,3.11-4.66,1.61-3,5,4.71-1.26,11.13-5.12,13.92-10-2.37-.46-4.51-1.14-7.46-1-1.27-8.93,12.35-13.39,18.39-12.95,2.4,1.28-3.8,2-3.48,4.48a55.75,55.75,0,0,1,12.92-5c2.55,3.16,7.62.59,12.92,1,2.78.81,2.15,4.79,6,7,1.14.66,3.35-.45,4.47,0,.68.27.39,2.06,1,2.49,3.4,2.46,6.31.41,7,3.49.48,2.28-1.47,3.69-3,5.48.82,2.74,3.28,1.19,5.46,2,2.72,1.76,5,4,7.46,6-3.43.22-3.47,3.83-7.46,3.49-2,.2-1.58,2.73-3.48,3-3.75-.55-4.5-4.12-6.95-6-.88.45-1.45,1.2-2.49,1.5-.23,4.38,3.47,4.83,4.48,8-1,2.51-4.36,2.61-4,6.48-3.49-1-5.38-3.58-8.45-5-.39,2.07,3.81,3.81,3.48,7.47-5.19-.77-9.22-2.71-13.91-4-1.69-3.12-3.44-6.18-6.47-8-3.77,1.17-7.82,4.89-10.43.49,2.21-5.31,9.05-2.38,14.41-3,.35-5.46,7-4.65,9.44-8,0-1.18-.85-1.47-.49-3-6.44-1.18-6.23,6.53-12.93,3.49-.73-5.72,6.84-3.12,9.45-5.48-2.88-6-10.64-3.63-18.39-3.49-1.32.72,1.82,1.11,1,3a8,8,0,0,0-4,6c-2.77,3.2-9.31,2.62-11.93,6-2.13,0-1.66-2.64-4.47-2-.18,4.5,9.26,3.67,7.95,11-4.21.73-5.55-1.42-7.95-2.49-2.47,1.34-3.94,3.69-7.46,4-1.66-.49-.54-3.77-4-2.49,3.16-2.48,6.61-4.67,8.94-8-5,3.29-9.72,6.86-16.89,8-8.72,7.36-22.76,9.4-29.32,18.92,1.57-.24,1.75.9,3.48.5-.15,2.35-1.45,3.53-1,6.48.91,1.2,2.93-.69,5,0,2.07,1.91,5.9,2,6.46,5.47,3.58-.42,4.88,1.42,6.46,3,3.36-.37,5.17.8,8.45.5-.95,2.7-2.93,4.37-3.48,7.47-.07,1,4.11.12,2,1.49.35,2.8-.48,1.32-2.48,1.5-.58,1.1,1.74,3.54,1.49,6,7-1.29,7.73-8.85,9.44-15.43,8.1-1,13.79-4.44,16.4-11-.05-2.27-2.61-2-3-4,5.93-3.36,7.72-10.85,11.43-16.44,5.17-.12,10.11,1.9,13.41-.5,3.54,2.1,4.32,7,9.94,7-2.93,2.82-5.09,8.53,0,10.46,6.12-1.68,9.51-6.08,14.41-9,.08,6.1,4.41,13.24.5,17.43,4,4.77,12.64,7.78,11.93,15.44-.22,2.28-2.66,3.18-3.48,5-.52,1.15,1.63,4.47-1.49,4.48.52,1.47,2.51,1.46,2,4h5.46a11.68,11.68,0,0,0,.5,9c-1.69,1.29-3.76,2.21-5,4-1.43-.38-1.24-2.4-2-3.48-2.33,1.56-2.8,1.53-4-1H364.74c3.35-6.94,9.93-10.63,14.41-16.43-3.86.57-4.72,3.14-8.44,4.48-7.23,2.59-17-.92-24.85,1-2.45.59-3,2.89-5,4-3.33,1.84-7.52,1.11-8.45,4.48,4.81-2.06,11.14-6.87,16.9-3.48a28.5,28.5,0,0,1-5,9c1.16,3.88,4.23,5.8,7.95,5,3.13-.69,4.43-6.3,7.95-5.48-.66,2.73.07,3,.5,5.48-8.37,2.58-16.25,8.27-24.85,9-2.41-3.69,1.27-3.91,3-6-8.62,3-23.76,5.68-20.87,15.44-4.92,2.72-10.28,2-14.41,4.48-3.32,2-3.94,7.7-8.95,7a8.71,8.71,0,0,1-5,6.48,12.73,12.73,0,0,0,.5,5c-4.46,8.44-13.32,10.17-20.87,16.43-2.72,2.25-7.88,7.62-8.45,10.46-1.4,7,5.46,16.68-1,22.91-10.65-1.74-2.33-17.32-9.94-20.92a36,36,0,0,0-4,1.49c-1.66-3.17-8.34-4-12.92-3-3.22.72-4.78,4.27-7.45,4.48-3.45.27-6.82-2.94-9.94-2.49-3.35.48-6.44,4.33-8.95,6-3.35,2.21-6.28,3.57-9.44,5.48,2,8.53-5.16,15.51-5.47,22.41-.32,7.32,4.68,12.88,9.94,16.94,4.59-1,8.87-2.41,13.42-3.49,1.72-2.43,2.2-6.1,3.48-9,3.49-1.57,9.33-2,13.91-1-4,7.3-6.35,16.21-9.93,23.9,6.1,1.33,17.39-2,20.37,4-1.16,6.14-2.94,11.66-3.48,18.42,2.09,3.56,4.25,7,8,9,5.36-3.57,14.33-3,16.9,2.49,4.8-1.83,5.38-7.89,7.95-12,7.18.36,10.3-5.91,15.41-6,1.9,3.52-3.47,2.85-2,7.47,2-.16,5.32-3.29,6-6.47,2.86,1.82,3.68,4.93,7.95,6s9.39-.57,12.43,2.49c2.78-2.52,8-2.58,12.92-3-.71,1.45-3.4.91-4,2.49,1.88,2.6,7,1.94,6.46,7,4.53,1.43,8.72,3.21,9.44,8.46,3.4.29,6.13,4.2,9.94,5,3.4.7,6.62-.43,9.44.5,4.33,1.42,5.32,4.84,8.95,7,.45,5,1.46,9.49,5,11.46.38,1.88-.61,2.38-.5,4,1.49,2.83,6.62,2,5.47,7.47,1.34,1,1.92-3,4.47-2.49,3.56,1.58,6.3,4,10.93,4.48v4.49c3.45-1,12.1,3.65,16.9,0,7.63,3.14,10.2,11.35,19.38,13,4,7.12,2.5,10.08-.5,16.43-3.7,7.87-7.75,15.21-11.92,20.42-.56,15.21,1,34.22-10.44,40.83-2.81,1.63-6.26,1.72-8.94,3-5.12,2.43-8.67,5.76-12.92,9.46a26.09,26.09,0,0,1-4,20.92h-3.48c-1.94,8.51-4.13,16.78-10.93,20.42-4.41-.73-8.22-2.06-10.93-4.48,0,1.15,3,3.16,3,6,.34,1.82,3.14,1.17,3.48,3,1,5-.48,7.44-2,11-3.91,1.15-9,2.29-12.92,2-1.93,2.2.73,4.35-.5,6.48-.34,3.51-6.39,3.6-8.94,2,.31,4.33,2.16,7.13,7.45,6.47-1.92,3-5.24,5.11-3.48,10.46-6.59,4-1.25,11.25,4,13-3.68,2.29-2.37,9.58-5.47,12.45,2.94,8.84,9.47,14.08,19.38,15.93-.35,3.47-4.35,3.28-6,5.48-.58,0-.78.52-2,0-20.66-2.69-30.71-16-39.26-30.87,0-2,1.23-2.75,2-4-1-1.68-3.37-1.93-5.47-2.49a14.72,14.72,0,0,0,0-10.46,3.56,3.56,0,0,1,4-1.49,46.89,46.89,0,0,0-2-9.46c-2.74.42,1.38,4.34,0,5-7-.6-4.69-10.3-6-16.44-.79-3.79-3.28-5.75-4-8.47,1-7.29,3-15.23,2-23.9-.34-3-2.09-5.84-2.48-9-2.13-16.86,1.23-35.89-4-50.8-6.92-5-13.63-10.24-20.87-14.94-5.12-13.79-14.08-23.74-19.88-36.85a12.39,12.39,0,0,0-3.48-2.49c-2.17-5.68-3.65-12.11,2-14.94-6.13-5.15-1-11.31.49-17.93a33.46,33.46,0,0,0,4-1.5v-4c3-1.34,4.78-3.85,6.46-6.48-.67-3.31.87-8.07,0-12.44-.4-2-2.07-3.11-3-5-1.67-3.42-.2-5.18-3-5.47-4-.43-3.09,4.1-4.48,7-3.63,2.89-6.09-6.69-10.43-3-4.13-3-6.52-7.74-11.43-10,2.36-6.24-4.84-7-4.47-13-5.81-1.27-11.16-1.45-15.41-3.48-4.64-2.22-5.79-8.73-10.93-10-9.7,4.69-20-2.21-25.84-7.48-.76-.74-1.89.38-3,0-1.54-.52-9.39-6.88-9.93-8-1.82-3.63,1.93-7.59,1-12-1.42-6.6-9.5-9-11.93-14.93a19,19,0,0,1,1-4.49c-4.37-5.42-8.43-11.14-8.45-20.91-1.87.38-2.38-.61-4-.5-2.57,5-.3,8.26,1.49,12.95,2.89,7.52,5.11,17.19,8.95,22.9-.69,1.47-2.3,2-3,3.49-2-3.68-3.53-7.76-7.46-9.46.86-1.14.48-3.51,1.49-4.48-2.21-3.6-6.31-5.3-8.44-9-.06-2.21,2.58-1.73,3-3.48-4.54-4.35-1.75-12.6-3.48-18.93-1.34-4.89-5.65-5.24-8.94-8-1.53-8.54-2-18.45-2.49-25.4,4.4-2.83,4.27-7.54,6.46-11.95s7.7-7.16,10.44-12c2.35-4.12,1.74-8.16,5.46-11.45-1-4-7.78-4.82-5.46-10.46-.05-1.89,3.2.48,4.47.5-.38-5.29-1.24-12.46.5-16.94-1.21-1.34-4,0-5.47,0-.62-8.5,2.67-16.06-2.49-19.92-6.21-.74-11.83-2.08-16.4-4.48a74.82,74.82,0,0,1-21.86,6c1.81-2.67,5.64-3.31,7.45-6-3.73,1.57-7.4,3.21-12.42,3.49-1.32.72,1.82,1.11,1,3-4.65,4.53-10.93,4-16.89,5.48-4.18,1.06-7.43,4.23-11.43,6-10.9,4.76-23.23,6-36.28,8.47Zm257.92,194.72a4.62,4.62,0,0,0,2,3,7.22,7.22,0,0,0-1-4.48A1.37,1.37,0,0,1,284.24,1119.28Z"/><path class="cls-3" d="M533.21,879.24c-2.36,7.1-11.65,7.25-19.88,8.46-1.56-2.41-5.64-2.31-5.47-6.47a11.46,11.46,0,0,1-6.95-2c1.63-.5,3-3.94,6-4,1.87,0,3.17,2.59,5.47,3C519.76,879.53,529.41,873.05,533.21,879.24Z"/><path class="cls-3" d="M564,903.64c2.19,1.62-1.08,5.26-3,6,.26,2.06,4.47.16,5.46,1.49.42,3.08-2.27,3-3,5,2.92,4.71,7.45,7.81,8.45,14.44h4.47c1.58,2.1.36,4.71-2,5.48.56.6,1.42.9,1,2.49-.48,0-.39.61-.5,1-4.28,2.39-9.71-.08-14.41,1-2.3.53-6.06,3.69-9.94,2.49,2.76-1.55,3.26-5.37,7.46-5.48a10.22,10.22,0,0,0-5-1V934c1.09-.73,3.7.06,4-1.5.51-1.67-1.55-.77-2.48-1,1-2,3-3,6-3,.11-2.44-1.51-3.13-1.49-5.48-1.92-.26-2.43.89-4.47.5-.16-1.16-1-2.06,0-3-2.58.6-2.71-1.27-4-2-.15-1.31.69-1.63,2-1.49-.49-.67-1.34-1-1.49-2C551.07,907.29,559.69,907.61,564,903.64Z"/><path class="cls-3" d="M552.59,921.07c-.36,1.52.86,1.47.5,3-2.82,1.83-1.43,7.86-3.48,10.46-5.51-.38-9.73,5.07-14.41,1,.11-2.71,2.11-3.52,4-4.48.09-1.74-1.74-1.57-2.48-2.49,1.73-1.17-.34-3.23,1.49-4.48,1.78-.3,2.4.58,3.48,1C542.08,921.18,547,918.78,552.59,921.07Z"/><path class="cls-3" d="M1029.66,1051.05c3.34,4.39,1.55,12.06-.5,16.44C1023.51,1064.67,1023.74,1053.69,1029.66,1051.05Z"/><path class="cls-3" d="M280.76,1073c-1.14,5.66-10.34,3.25-16.4,4,1.49-10.46-9.26-8.65-13.91-13-4.48.34-4.24,5.39-8.45,6-2.68-4.22,2.28-5.77,4.47-8a68.27,68.27,0,0,1,23.85,4A12.72,12.72,0,0,0,280.76,1073Z"/><path class="cls-3" d="M284.24,1075.45c7.6,1.37,17.3-1.1,17.89,8-6.92-1-11,1-14.41,3.49-1.66-3.84-8.05.11-10.44-3,.15-2.84,4.18-1.78,7-2C285.32,1080.65,284.68,1076.86,284.24,1075.45Z"/><path class="cls-3" d="M992.89,1076c.06,5.21-2.1,8.19-7.95,7.47C982,1078.21,987.45,1074,992.89,1076Z"/><path class="cls-3" d="M1037.61,1098.86c2.83,2.61,7.12,1.4,10.44,4a6.2,6.2,0,0,1-1,4.48c3.78,0,8.37,3.11,7,10,1.38,1.93,3.83,2.81,5,5-1.68,4.17.2,7.66.5,12.45-1.43-.06-3.26.27-4-.5.72,1.61.47,4.18.5,6.47-3.92-1.37-7-3.57-6.46-9.46-.39-1.22-2.74.84-4-.5a21.63,21.63,0,0,0-3,4.49c-2.26-4.77,2.18-7.11,3.48-10,3.57,1.61,5.4-.69,8-1.5-1.48-2.83-1.88-6.74-3.48-9.46a7.12,7.12,0,0,0-2.48,2.49c1.07,1.58,3.2,2.1,2.48,5.48-2,.13-2.45,1.85-5,1.49-1.4-.58-1.64-2.33-2-4-3.25-.56-3.7-3.92-3.47-8,3.41,0,5.13,3.45,8.94,1.49-4-2.75-5.18-8.42-11.43-9-.81.22-.81,3.76,0,4-3,1.18-5.83-3.58-4.47-7-8.09-4.4-1-11.69-1.49-20.42C1041.74,1078,1037.8,1092.69,1037.61,1098.86Z"/><path class="cls-3" d="M1021.71,1131.73c2.86,3.32,9,5.41,9.44,9.46.51,4.43-5.6,6.5-5.46,12,.93,3,3.93,4,4.47,7.46-.27,1.9-3.57.74-4.47,2,.68,6.33-2.46,8.82-5.47,11.45-.36,2.85.53,4.45.5,7-6.32,6-14.76-3.65-21.87,0a9.46,9.46,0,0,1-4-3.48,19,19,0,0,0,.49-5.48c-4.19-3.39-4-10.53-3-15.44,2.41-.09,4,.66,6,1,1.55-.94,1.53-3.45,2.49-5,1.68-.81,2.22-2.76,5-2.49C1010.33,1143.23,1019.87,1141.34,1021.71,1131.73Z"/><path class="cls-3" d="M972,1164.1c-4.91,5,6.08,5.72,6,12,2.08.07,2.78-.9,4.47,0-4.78,4.73-.23,12.76-7,15.44-15.82-4.4-16.69-23.78-24.85-35.86-1.87-.94-3.71-1.92-5.47-3-1-5.27-4.59-8-9.44-9.47,0-1.81,1.41-2.23,2-3.48,5.69,2.1,10.21,5.37,15.9,7.47C956.76,1155.82,966.7,1157.64,972,1164.1Z"/><path class="cls-3" d="M1054.51,1156.13c2.72,4.47-.91,8.6-6.46,8.47-3.55-.08-6.4-4-8.94-3.49-3.55.67-4.34,5.36-1,8.47,3.3-.9,5.43-3.92,9.44-1.49-.71,2.76-3,4-5.46,5,2.11,4.51,5.24,8,5,14.94-2.08,1.88-4-.15-6,.5-1.14-5.22-.76-9.46-4.47-11.46-.48,3.85,1.88,8.35,0,13-2.32-.33-3.19.78-5,1,.6-6.69-.09-10.13-2-14.94,3.6-4.52,2.84-13.42,6.46-17.92C1042.86,1158.73,1051.07,1161.43,1054.51,1156.13Z"/><path class="cls-3" d="M1089.79,1167.09c-1.8,6,2.45,8.82,5.47,11.45,3.73-2.24,5-7,9.44-8.46,11.07,2.85,20.09,7.76,28.83,13,.49,1.65.89,3.42,1.49,5,4.91,0,7.19,2.74,8.44,6.47-1.63,0-2.47.84-4.47.5,2.18,7.45,10,9.26,12.42,16.43-4.18-1.83-7.23-.38-11.43-3-3.17-2-5.13-6.75-8.44-9.46-2.51-2-6.2,3.61-9,6.48-8.89.46-11.23-6-19.88-4.49-.15-2.8,2.56-2.74,3.48-4.48-.22-11.4-11-12.17-20.87-13.94-.57-1.77-3.11-4.17-1.49-6.48-1.83-3.64-8.13-2.8-8.45-8C1080.12,1166,1085,1166.16,1089.79,1167.09Z"/><path class="cls-3" d="M989.91,1195a18.84,18.84,0,0,1,5.46-.5c1.07-.42.42-2.57,1.5-3,3.93,2.76,9.54,1.27,13.41,3.49.24,2.07-2.87.78-3,2.49,2.86,1.28,6.63,1.65,9.44,3,7.93-4.06,18.73,5.1,25.84-1,5.59,3.88,13.13-1.72,18.89,1-5.53,3.42-11,6.93-15.41,11.45-2-5.16,4.52-6.09,6.46-9-3.59-.1-6.38,2.32-9.94,2.49-2.25.11-4.16-1.39-6.46-1.5-4.65-.22-10.4,2.87-14.41-1-7.32,3.33-15.63.06-26.34-1.5-5.67-.82-10.36-2.19-12.42-6-2.39-.1-4.21-.77-6.46-1C978.06,1188.06,988.25,1190.49,989.91,1195Z"/><path class="cls-3" d="M1079.36,1211.91c3.69,1.95,6.62,4.65,10.43,6.47,2.24-.91,4.14-2.16,7-2.49,4,5.22-4.19,8.32-5.47,12.95,5.28,4.85,8,12.22,16.9,13.45,7.22-6.38,5.67-21.55,10.44-30.38,3.84,3,3.75,9.85,4.47,15.94,1.87.38,2.37-.61,4-.5,2.41,10.87,3.54,23,11.93,27.89-.87,1.76-.39,4.1,0,6,5.46,2.84,5.51,11.08,9.94,14.94-3.18,12.81-5.16,24.59-12.92,32.38-1.17,1.17-3.2,1.87-4.47,3-6.69,5.82-10.5,14.21-16.9,20.42-8.31-.69-11,4.3-15.4,7.47-1.3-1.36-2.69-2.62-3-5-2,3.15-10.26,2.58-14.9.5-3.93-4.25-1.88-7.94-3-13-2.45.86-3.19,3.44-5,5-1.65-.51-2.94-1.38-3-3.48,4-.83,7.76-1.85,8.45-6-3-.2-2.3,3.34-6,2.49.8-3.68,4.85-4.1,6-7.47-4.24,1.23-6.1,4.84-9.44,7-3.61-.54-1.21-4.06-2-6-1.61-4-6-4.46-8.45-7.46-14.27-1-27.62,2.7-35.28,10-13.75-4.37-19.56,9.54-30.81,3,.4-1.72-.74-1.91-.5-3.48,8.77-6.41,7.55-24.42,3.48-34.86.12-1.88,2-2,3.48-2.49-.22-1.61-1-2.7-1-4.48,2.66-3,.89-10.41,4.48-12.46,1.06-.23.94.72,1,1.5,8.71-10.36,32-6.16,33.79-23.41,2.15,0,1.84-2.48,4-2.49-.41,1.41.7,1.29.5,2.49,1.64-3.5,6.17-4.11,7-8.46,1.52-.36,1.47.85,3,.49.29-7.54,9.52-7.95,10.43-.49,1.87-.46,3.51-1.13,5.47-1.5.79-5.35,4.81-11.32,11.92-11.95C1079.46,1215.87,1078,1213.61,1079.36,1211.91Z"/><path class="cls-3" d="M760.81,1233.82c-1.07.42-1.69,1.29-3.48,1,2.45,4.1-1.44,7.28-2.48,11-.57,2,0,4.23-.5,6.47-1,3.91-2.86,8.46-4,13-1.69,6.8-4,15-11.93,14.44-5.61-.43-9.14-8.2-7.45-15.93.77-3.56,4.17-4.83,5-9,.86-4.48-1.71-9.21-1.49-12s2.62-3.7,2.49-7c12.22-.87,13.41-12.79,21.86-17.43C761.26,1222.15,761.82,1227.91,760.81,1233.82Z"/><path class="cls-3" d="M1219,1329.94v1.49c-2.39,3-4.93,8.18-9.44,7.47-2.78,5.71-8.86,10.69-16.4,10-3.69,4.1-10.91,4.66-12.43,11-11.32.61-13.93,9.94-23.35,12.45-2.8-.85-5.79-1.5-7-4,12.06-8,26.49-13.63,36.77-23.41,2.81,1.72,3.52,1.14,6-.5,1.8-.47.5,2.15,1.49,2.49,2.32-.82,3.56-2.74,5-4.48-.89-1.6-3.27-1.7-3.48-4,2.34,0,3-1.61,5.47-1.5,3-4.58,3.78-11.48,4-18.92,2.17,0,2.72,1.59,4.48,2a38.22,38.22,0,0,1-1,7.47c2.77.38,1.8,4.51,4,5.48C1215.43,1332.34,1216.77,1330.69,1219,1329.94Z"/><path class="cls-3" d="M1088.3,1342.89c2.29,3.71,8.08,3.12,12.92,2-3,6.62-7.34,15.52-16.89,12.45C1085.47,1352.34,1087.18,1347.9,1088.3,1342.89Z"/><path class="cls-3" d="M730,1090.89c-1.37-5.6-7-7-8-12.94-3.17-3.43-7.22-5.56-8.45-10.46-.41-1.62.14-3.37-.5-5-1.48-3.82-4.72-7.72-7-11.46-2.33-3.9-5.74-7.06-7.95-10.46h-4.48c4.81,10.79,9.58,21.61,15.91,30.88-2.25,6.64,2.51,8.1,4.47,11.46,1.34,2.3,1.07,5.83,2,7.47,3.72,6.6,15.08,11.82,18.38,19.42-1.59,4.65,2.4,4.74,3.48,8,6.49-2.3,12.86-4.72,21.37-5,1.87.38,1.08-1.89,2.49-2,1.17,0,1.46.86,3,.5-.39,19.37-11.44,28-17.89,41.34-4.62,2.67-8.5,6.93-12.43,11.45-3.68,4.25-8.54,8.1-11.43,12.45-2.26,3.41-5.65,10.56-6,14.94-.59,8.31,5.53,16.12,6.46,25.4.54,5.45-1.23,10.39-.5,16.93-2.9,4.24-7.46,6.8-12.42,9-3.11,4.35-8.2,6.72-10.93,11.45,2.39,5.12,3.28,13.08,1,18.93-3.76,1.87-7.95,3.32-9.94,7,1.36,4.31-.55,8.41-2,11.45-7.21,7.39-12.8,16.4-20.88,22.91-4.29,0-7.59,1-9.94,3-2.35-.3-4.32-1.1-6.46-1-4.05.19-8.86,3.26-11.43,3-5-.52-3.91-5.77-7.45-9-.21-1.38,1.85-.47,2-1.5-.92-5.42-3.5-9.63-5.47-13.94-1.89-4.14-5.27-8.19-6.46-12.45s.31-8.74-.5-13.45c-2-11.7-12.81-18.75-11.43-33.86,1-10.89,12.08-20.13,4.48-30.38-.27-1.93,1.26-2,1.49-3.49-4.44-12.15-9.8-23.38-17.4-32.37,1.72-5.91,4.36-10.91,4-18.92-1.48-5.06-9.27-5.11-15.41-4-1.3-7.16-6-10.86-15.9-9.46-4.26,2.7-9.31,4.62-13.91,7-7.11-3.63-17.61-1.37-23.36,2-6.39-5.05-13.36-9.52-19.88-14.44-2.11-8.17-5.32-15.25-12.92-17.93-1.78-2.06-3.57-6.43-1.49-9.46a6.44,6.44,0,0,0-3-4c-.15-2.47,2-2.67,3-4,.25-5.65,5-12.13,1-17.43-.23-1.56.62-2,1.5-2.49-.62-1.74-2.8-2.88-3-5-.21-2.44,1.38-2.83,3-6.47,1.87-4.25,1.83-9.53,6.46-10-.88-8.18,6-8.54,7.45-14.44,6.58-.71,8.93-5.66,12.92-9-2.23-16.34,13.8-14.39,15.9-26.39-2.34-4.89-4.28-6.7-11.43-5,2.44-3.17-.83-5-1-8-.32-6.07,6.06-12,2.48-19.92,3.09.77,2.83-1.82,5-2,6.16,1,16.41,3.49,22.86.49.14-3.17,1.29-5,1-7.47-.86-7.22-8-8.46-11.93-12.94,1.36-3,8.7-2.34,11.43-1,.25-2.58-1.41-3.24-1-6a30.66,30.66,0,0,0,5,3c3.58-1.06,6.66-2.63,7.46-6.47,5.83-1,10.46-3.13,10.43-10,3.67-2.64,11.56-1,14.42-4.48-5.14-4.91-3.08-15.49,5.46-14.95-1.68,4.42,3.51,5.48,0,8.47,2-1.18,5.2-1.1,6.47-3-.84-4.48-5-5.6-5-11-5,3.06-11.56,8.37-17.39,2.49-.39-3.21,1.35-5.52-1.49-6-2-11.18,8.36-17.18,15.9-13.94,1.31-.52,1.68-2,3-2.49.42-8.39,7.75-9.84,10.94-15.44-.53-1.13-3.13-.19-4.48-.5,9.59-5.2,23-11.2,36.78-9,1.54-.45,2.32-1.67,4-2,3.39.25,5.88,1.41,8.94,2,0,1.48-1.29,1.69-1.49,3,11.56.22,22.2,5.64,33.79,7.47,1,9.53-13.05,6.39-20.87,5.48.06,1.27,1.66,1,3,1-2.83,5.72,5.74,8.41,9.94,8.46-.31-2.67-5.66-.3-5-4,3.39-2.05,7.11.17,10.44,1,1.38-1.45-1.64-1.3-1-3.49,3-.6,5-2.3,7-4,2,0,2.36,1.62,5,1-.72-1.52-3.52-7.69-4.47-9,5.24-.44,9.58,0,10.43,4-1.27.06-1.74.91-2.48,1.5.9.75,1.52,1.79,3.48,1.49,4.45-4.5,11.24-6.66,18.88-8,0,1.32.19,2.85-.5,3.49,3.18-3,10.14-2.13,13.42-5,1.89.48,1.18,4.34,4,2.49-.66-3.5-5.26-3-7.46-5,1.79-3.13,5.27-1.11,7,1,10.32.12,17.56,3.32,25.34,6,.1-3.91-4.14-3.48-7-4.48-.12-3.21-2-4.63-3.48-6.48,4.68-1,1.41-8.16,7-9,1.81,1,4,4.27,7,2.49,1.07.29,1.57,3.7.5,4.48,2.09.57,3,4.2,5.47,7.47s9.18,6.79,2,11c3,2.87,6.53-.68,7-3.49.17-1.95-3.09-2.13-1.49-4-1.6.36-3.73-1.5-5.47-2.49v-3.49c-1-1.47-3.12-1.84-4.47-3-.1-1.92.79-2.86,2.49-3-.12-2.53-3.44-1.86-3.48-4.48.89-.27,2.06-.25,2.48-1,3.43,2.2,3.83,11.64,9.94,8-1.9-.23-4.58-.08-4.47-3.48,5.15-4.56,12.35,3.23,16.89.5-3.85,1.53-6.53-3.16-9.93-5,2.92-3,9.48.32,13.91-1.5,1-.7-1.93-1.68-2.48-2.49,8.07-4.69,21.33-4.18,32.3-6,1.3-1.1-1.54-1.66,0-3a43.93,43.93,0,0,1,14.91-1.5c.47,1,1,2,1.49,3,8.91.87,20.94-1.39,23.35,6a60.69,60.69,0,0,1-8.94,5c5.25,2.43,6.83-3.11,10.93-3.49,2.11.71,3.34,2.3,5,3.49,10.87-1.09,16.76,2.79,26.84,2.49,1.12-.68-2.41-.87-1.49-3,6.31-1.23,11.85,2.31,18.38,2.49,3.45,4.18,8.74,6.52,14.41,8.47,1.42-1.14-.69-2.92,0-5,4.48,2.32,11.59,2,18.39,2,.84-1.36-3.49-1.8-3.48-4,8.06,0,17.68.41,25.84,1,2.77.2,5.6,2.3,8.45,3,9.17,2.23,23,.79,32.8,3,1.25,1.07,1.93,2.71,3.48,3.48,12,.08,23.66.53,33.3,3,0-1.19-3.33-3.29-5-4.48,24.36-.69,46,9.2,67.58,13,4.33.75,8.75.45,12.43,3.48-.1,1.4-.87,2.12-2.49,2,1.34,1.15,3,2,3,4.48-9,.86-15.19-5.32-24.35-6a3.81,3.81,0,0,1-3.48,5c3.64,4,11.87,3.38,14.41,8.47-7.66-2-15.91,1.19-16.4,10.46-4.16-3.12-9.2-3.54-12.42.49-.58-.74-.62-2-1.49-2.49-2.85-.36-3.66,1.32-6,1.5,1,1,1.17,4.91,2,7a16.1,16.1,0,0,1,6.46,1.49,3.25,3.25,0,0,1-.5,2.5c2.62.86,4.39,2.56,7.45,3a1.79,1.79,0,0,1-3,1.5c.34,3.48,3.56,4.07,4.47,7-1.51.19-2.52-1.31-3,.5-.71,1.6,1.86,3.61,3,5-.41,1.78-2.56-1.28-3,.49-.35,2.06,3,5.17.5,8.47-5-.67-9-6.32-12.92-10-4.12-3.81-8.44-7.45-12.42-11-.14-2.84-1.25-4.72-2-7,4.53-2.09,3.39-9.88,6-13.94-1.43-2.06-1.6-5.37-4.47-6-2.77,1.39,1.57,2.45,1.49,3.49-.16,2-3.17,2.66-4.47,5-3.45-.7-4.83-3.47-6.47-6h-7c-.94,2.05-.28,5.7-2,7,1.81,1.51,5,1.59,5.47,4.49-4-.09-11.42,3.19-13.42-1-7.87,1.07-17.9,0-25.84,1-3.67,4.45-2,14.32-7.46,16.93,1.32,2,6.24.39,6.46,3.49,1.53-1.08-.47-2.81,0-4.49,2.32,1.67,2.88,5.09,5,7,1.44-.22,1.18-2.14,2.49-2.48,14.71-.14,15.45,13.73,21.86,21.91a67.06,67.06,0,0,1-3,25.4c-1.79,1.19-3.75,2.22-5.46,3.48-2.09.1-2.09-1.89-4-2-7,1.94-1.69,13.21-8.95,14.94,6.12,5.16,13.9,8.66,15.91,17.93-2,3.31-10,8.67-12.92,3.48,3.39-5-3.69-6.88-2-11.45-2.22-1.43-5.22-2.07-8.45-2.49-.13-2.2-.79-3.85-.5-6.47-5.5-4.83-9,1.59-13.91,3,2.45-2.88-3.07-5.08.5-8a2.49,2.49,0,0,1-1.49-1.5c-4.24,1.9-5.1,7.18-9.94,8.47.38,3.1,4.15,2.81,6.46,4v3c3.19-1.81,11.84-4.73,14.41,0-4.86,1.44-7.16,5.44-9.44,9.46,6,3.13,8.93,9.31,13.91,13.45.41,1.41-.7,1.29-.5,2.49.43.74,1.6.72,2.49,1-.34,2-1.57,3.08-2,5,2.84.52,2.91-1.74,5-2-1,15.31-6.35,26.18-14.41,34.37-5.35,1.44-10.19,3.4-13.92,6.47-3.88-1.94-3.4,1-7.45,1-.13,1.69.39,4-.5,5-3.55.74-3.75-1.89-3.48-5-6.47-3.62-10.33,3.43-13.41,6.47-.44,10.51,12.18,13.75,15.9,22.41,1.68,3.91.37,7.31,1.49,13.45a17.35,17.35,0,0,1-8.45,6.47c-1.85,3.5-5.72,7.49-8.94,8-.11-2.67-.83-4.1.49-6-1.07-1.47-2.38-1.6-4.47-1-.93-5.21-5.82-6.45-7.95-10.46-1.64,0-2.47.84-4.47.5-.39-2,.76-2.56.5-4.48-.58.08-.89-.11-1-.5-3.32.94-1.8,5.08-2.49,8s-2.56,4.63-2,7.48c.69,3.4,6.12,5.09,4.47,9.46,5.1,3.85,9.95,8,13.42,13.44-1.36,9.17,4.82,10.77,4.47,18.93-2.89-.43-4.29-2.34-5-5-6.27-2.06-13.66-7.61-10.93-15.44-2.49-4-4.46-8.48-7.46-12-1.56-.24-1.12,1.53-3,1,1.48-15.1-.93-27-6-40.83-4.21,1.78-6.84,7.78-12.42,4,.13-6.49,1.29-11.83-4.48-13-.4-1.72.74-1.91.5-3.48-5.7-.22-6.81-8.58-9.94-13-.83.66-.77,2.21-1.49,3-4-.31-6.28,1-9,2-1.76.77-.3-1.69-1.49-1.49-4-.51-4.33,2.63-4,6.47-1.89.76-3.3,2-5.47,2.49-1.8,8-10.73,8.83-12.92,16.43a23.26,23.26,0,0,0-5.47,2c2.81,6.69,0,15.26,1,22.42,0,2-3.08.89-3,3-.52,1.86,1.68,1,2,2,1.75-.13-1.24-1.85.5-2,5.11.7,5.85,5.77,8.95,8.47-.88,4.1-2,7.94-6,9-3.4-1.4-4.12-8.14-3-12.45-.31-1.51-2.67-1-3-2.49-2.89.76-3,4.27-5,6a17.46,17.46,0,0,1-5-2c-6-20.89-17.77-36-19.88-60.76-1.53.9-.26,1.53-.49,3.49-1.38,1.27-3.63,1.67-5,3-2.51-2-10.7-6.53-6-9.47-5.65-2.13-8.79-6.78-12.92-10.46-12.64.37-24.42-.44-35.78-3.48a10.8,10.8,0,0,1-.5-4.48c-.7,0-1.4.08-1.49-.5-3.8.55-5.87,3-9.44,2.49-2.45-.38-10.77-5.8-12.42-8-2.05-2.7-2.38-6.56-4.47-8.47-4.4-.64-6.76,2.07-7,4-.41,3.81,4.12,4.86,6.46,9,1.73,3,1,6,3,7.47,1.44-.72.78-3.53,3-3.48,1.22,2.6,3.34,4.29,2.49,9,7.76,3,13-7,17.39-9-.24,3.8,1.41,6.29,2.48,10,5.73.65,11.3,2.73,11.93,7,.61,4-4.7,6.07-3.48,10.46-1.22.06-2.39.07-3-.5v5.48c-2.26,1-4.33,2.3-5,5h-3c-1.11.72-.69,3-1.49,4-3.93,1.88-11.06.54-10.93,6.47-9.46,2-13.19,9.7-24.85,9.47-1.08,2.65-5.47,4-7.46,3.48-4.17-1-3.2-7.74-6-12.45-2.09-3.57-6-4.25-4-7.47C728.45,1088.14,728.35,1090.39,730,1090.89Zm59.14-224.6c2.44-.11,4,1.14,4.47-1.49C791.51,864.68,789.67,864.84,789.14,866.29ZM639.56,884.72c-5.82,2.8-12.86,4.38-12.43,13.44,1.62,1.86,4.78,2.18,6,4.48-1.62,4.28-9.81,4.72-6.46,11-.91,1.25-1,3.28-2.49,4a6.17,6.17,0,0,0-4.47,1c0,1.49,2.82,2.78,1,4.48-1.73-3-4.35-2.14-7.95-3,.32,3.32-2.47,3.5-3.48,5.48,3,.07,3.22-2.75,6.46-2.49,1.3.53,1,2.61,2.49,3,4.93-1,8-3.89,12.92-5,.41,1.25,1.36,2,1.49,3.49,3.06-1.08,6-2.26,7.95-4.49-5.39-5.9,3.68-13.73,7.45-6.47.64-1.19,1.82-1.83,1.49-4-.68-1.81-3.14-1.84-4-3.49,2.9-6.92,16,1.09,17.39-6-7.45-2.89-20.87,6.76-24.35-2-1.06-2.69.15-7.39,0-10.95a22.84,22.84,0,0,0,10.93-8c-.1-.56-.55-.78-1-1C644.17,878.77,636.8,878.73,639.56,884.72Zm52.67,77.19c1.55.77,3.86.78,5,2-2.75,1.4-6.47,1.81-8.44,4-2.57-1.08-3.45-3.85-6-5-.07-1,3.38-2.31,1-2.49-2-.69-3.9-1.4-6-2-4.1,5.54-8.88,11.87-9.94,18.93,2.46,2.35,6.2,3.42,9.94,4.48,5-1.92,9.85-5.22,15.41-4.48,2.84.37,5.69,3.31,9.44,4s6.71,0,10.43,1a17.94,17.94,0,0,0,4-4c-3.71-2.15-5.79-6.39-9.44-9-3.1-2.18-8.11-2-9.94-6,2.56-.84,5.25-6.58,4.47-7.47C697.75,956.81,693.54,957.9,692.23,961.91Zm55.17-6c-3.38,4.76-11,5.21-12.93,11.46.28,1.54,2.44,1.21,3.48,2a18.62,18.62,0,0,1-1,3.48c3.28,5.35,9.64,7.61,12.42,13.45-.09.74-1.2.46-2,.5,1.05,3.75-.19,5-2,7-.15,3.4,2.52,4.58,5.47,3.49,1.55,5.21,8,3.72,13.41,3-.89-2.35-2.14-5-1-8-1.66-3.33-6.63-3.32-6.46-8.47,1.71-1.23,3.8.61,6.46,0a8.73,8.73,0,0,0-4-5.48c-.91,1.41-1.06,3.58-4,3v-5.48c-4-2.3-7.58-5-9.94-9,2.36-1.06,3.33-5.25,7.45-3a25.68,25.68,0,0,1,1.49-5C752,958,749.32,957.33,747.4,955.93Zm-109.33,24.4c-8.23-5.19-17.92-8.94-21.87-18.42-.64,0-.69-.64-1.49-.5-5.79,4.09,4.67,15.82,10.43,15.94.92,4.72,7.75,3.52,9.94,7-.3,1.19.63,3.61-.49,4-.45-2.63-4-4.32-6-2.49,3.53,4.27,1.12,9.88-5,11-.14,1.69.38,4-.5,5-3.59-2-9.23-2-10.93-6,2.31-1.44,6.51-1.06,8.94,0,1.66-1.65,3.67-3,4-6-5.73-9-19.64-9.86-22.36-21.92-5.82.15-7.53,4.41-11.92,6-3.19-1.63-7.12-2.57-10.44-.5-.29,2.32.68,3,0,4.48-4.93,4.09-13.31,6.62-11.93,15.44-2.33.32-3.1,2.21-3.48,4.49-4.49,3.81-16.78,2.4-16.4,9.46,3,1.48,8.12.83,11.93,1.49,4.42-6.36,13.55-8,24.85-7.47,3.29-3.51,12-1.54,16.9-3.48.17,2.14,3.72.91,5,2-2.45,3,2.64,9.4-2,13.44a16.5,16.5,0,0,1,6,5h6c3.36,2.12,7,3.89,8.95,7.47,6.58-1,11,5.41,14.91,2.49-.17-1.82-2-2-1.49-4.48,1.74-4.23,6.22-5.71,10.93-7,0,.78-.07,1.73,1,1.49,7.32,1,12.77,7.27,20.38,8,5.86.54,12.59-3.71,19.38-.5,5.74-4.68,11-15,7.45-24.4-3.8.84-6.42,2.86-9.93,4-2.71-1.11-4.07-3.56-8-3.49-1.42.4-.31,3.34-2.48,3-3.57-1.74-6.66-4-11.43-4.49-.36-4.25-3.87-9.3-4.47-14.94a28,28,0,0,1-3.48-1.49c-1.91.58-1.45,3.52-3.48,4-1.78.49-2.94-4-3.48-1.5-.18,5,5.11,4.51,5.47,9-1.75,2.08-5,2.59-5,6.48-.73-.77-2.55-.44-4-.5-1-1.62-2.37-2.93-2-6C640.47,993.07,637.29,988.1,638.07,980.33Z"/></g></g></g></g></g></g></svg>