<svg xmlns="http://www.w3.org/2000/svg" viewBox="0 0 18 18"><defs><style>.cls-1{fill:#fff;}</style></defs><g id="Capa_2" data-name="Capa 2"><g id="Web"><g id="_01_Index" data-name="01 Index"><g id="Footer"><g id="iconos_redes_sociales" data-name="iconos redes sociales"><g id="Instagram_icon" data-name="Instagram icon"><path class="cls-1" d="M9,11.21A2.21,2.21,0,0,1,9,6.79,2.21,2.21,0,0,1,9,11.21Z"/><path class="cls-1" d="M8.43,3.57h0C4,3.57,3.59,3.66,3.59,9S3.75,14.43,9,14.43c2.9,0,5.25.34,5.4-2.75C14.81,2.93,14.09,3.56,8.43,3.57ZM9,12.4A3.4,3.4,0,1,1,12.42,9,3.4,3.4,0,0,1,9,12.4Zm3.54-6.14a.8.8,0,1,1,.79-.8A.79.79,0,0,1,12.56,6.26Z"/><path class="cls-1" d="M18,3.92A3.86,3.86,0,0,0,14.59.11,15.75,15.75,0,0,0,12,0C4.34,0,2.67-.31,1.17,1.25S.05,4.27.05,9c0,3.92-.68,7.86,2.9,8.78a85.09,85.09,0,0,0,12.16,0A3.85,3.85,0,0,0,18,14.08C18,13.78,18,4.22,18,3.92ZM15.3,13.34c-1,2.56-3.68,2.29-6.28,2.29s-5.29.24-6.27-2.29A13.56,13.56,0,0,1,2.4,9a13,13,0,0,1,.35-4.34C3.73,2.14,6.31,2.38,9,2.38H9c2.53,0,4.24-.16,5.51,1.11S15.65,6.41,15.65,9A12.94,12.94,0,0,1,15.3,13.34Z"/></g></g></g></g></g></g></svg>