<?xml version="1.0" encoding="utf-8"?>
<!-- Generator: Adobe Illustrator 24.1.0, SVG Export Plug-In . SVG Version: 6.00 Build 0)  -->
<svg version="1.1" id="Capa_1" xmlns="http://www.w3.org/2000/svg" xmlns:xlink="http://www.w3.org/1999/xlink" x="0px" y="0px"
	 viewBox="0 0 28.3 28.3" style="enable-background:new 0 0 28.3 28.3;" xml:space="preserve">
<style type="text/css">
	.st0{fill:#FFFFFF;}
</style>
<g id="Capa_2_1_">
	<g id="Web">
		<g id="_01_Index">
			<g id="Footer">
				<g id="iconos_redes_sociales">
					<g id="Instagram_icon">
						<path class="st0" d="M14.2,17.6c-1.9,0-3.4-1.5-3.4-3.4s1.5-3.4,3.4-3.4s3.4,1.5,3.4,3.4C17.6,16.1,16.1,17.6,14.2,17.6
							L14.2,17.6z"/>
						<path class="st0" d="M13.3,5.8L13.3,5.8c-6.8,0-7.5,0.1-7.5,8.4s0.2,8.4,8.3,8.4c4.5,0,8.1,0.5,8.3-4.2
							C23.1,4.8,22,5.8,13.3,5.8z M14.2,19.4c-2.9,0-5.2-2.4-5.2-5.3s2.4-5.2,5.3-5.2c2.9,0,5.2,2.4,5.2,5.2
							C19.4,17.1,17.1,19.4,14.2,19.4C14.2,19.4,14.2,19.4,14.2,19.4z M19.6,10c-0.7,0-1.2-0.5-1.2-1.2c0-0.7,0.5-1.2,1.2-1.2
							c0.7,0,1.2,0.5,1.2,1.2c0,0,0,0,0,0C20.9,9.4,20.3,10,19.6,10L19.6,10z"/>
						<path class="st0" d="M28,6.4c0-3-2.3-5.5-5.3-5.9c-1.3-0.2-2.7-0.2-4-0.2C7,0.3,4.4-0.2,2.1,2.3S0.4,6.9,0.4,14.2
							c0,6-1,12.1,4.5,13.5c6.2,0.4,12.5,0.4,18.7,0c2.6-0.7,4.4-3,4.5-5.7C28,21.6,28,6.8,28,6.4z M23.9,20.9
							c-1.5,3.9-5.7,3.5-9.7,3.5s-8.2,0.4-9.7-3.5C4,18.7,3.8,16.4,4,14.2C3.8,12,4,9.7,4.5,7.5C6.1,3.6,10,4,14.2,4l0,0
							c3.9,0,6.5-0.2,8.5,1.7s1.8,4.5,1.8,8.5C24.6,16.4,24.4,18.7,23.9,20.9z"/>
					</g>
				</g>
			</g>
		</g>
	</g>
</g>
</svg>
