<?xml version="1.0" encoding="utf-8"?>
<!-- Generator: Adobe Illustrator 24.1.0, SVG Export Plug-In . SVG Version: 6.00 Build 0)  -->
<svg version="1.1" id="Capa_1" xmlns="http://www.w3.org/2000/svg" xmlns:xlink="http://www.w3.org/1999/xlink" x="0px" y="0px"
	 viewBox="0 0 28.3 28.3" style="enable-background:new 0 0 28.3 28.3;" xml:space="preserve">
<style type="text/css">
	.st0{fill:#FFFFFF;}
</style>
<g id="Capa_2_1_">
	<g id="Web">
		<g id="_01_Index">
			<g id="Footer">
				<g id="iconos_redes_sociales">
					<g id="linkedin_icon">
						<path class="st0" d="M27.8,27.2L27.8,27.2v-10c0-4.9-1.1-8.6-6.8-8.6c-2.2-0.1-4.2,1-5.3,2.9h-0.1V9h-5.4v18.1h5.6v-8.9
							c0-2.4,0.4-4.7,3.4-4.7s2.9,2.7,2.9,4.8v8.8L27.8,27.2z"/>
						<path class="st0" d="M1,9h5.6v18.1H1V9z"/>
						<path class="st0" d="M3.9,0C2,0,0.6,1.5,0.6,3.3c0,1.8,1.5,3.3,3.3,3.3s3.3-1.5,3.3-3.3c0,0,0,0,0,0C7.1,1.5,5.7,0,3.9,0
							C3.9,0,3.9,0,3.9,0z"/>
					</g>
				</g>
			</g>
		</g>
	</g>
</g>
</svg>
