<?xml version="1.0" encoding="utf-8"?>
<!-- Generator: Adobe Illustrator 24.1.0, SVG Export Plug-In . SVG Version: 6.00 Build 0)  -->
<svg version="1.1" id="Capa_1" xmlns="http://www.w3.org/2000/svg" xmlns:xlink="http://www.w3.org/1999/xlink" x="0px" y="0px"
	 viewBox="0 0 28.3 28.3" style="enable-background:new 0 0 28.3 28.3;" xml:space="preserve">
<style type="text/css">
	.st0{fill:#FFFFFF;}
</style>
<g id="Capa_2_1_">
	<g id="Web">
		<g id="_01_Index">
			<g id="Footer">
				<g id="iconos_redes_sociales">
					<path id="mail_icon" class="st0" d="M25.5,3.7H2.9c-1.4,0-2.6,1.2-2.6,2.6V22c0,1.4,1.2,2.6,2.6,2.6h22.6
						c1.4,0,2.6-1.2,2.6-2.6V6.4C28.1,4.9,26.9,3.7,25.5,3.7z M25.5,5.5c0.1,0,0.2,0,0.3,0.1L14.2,15.6L2.6,5.6
						c0.1,0,0.2-0.1,0.3-0.1H25.5z M25.5,22.9H2.9C2.4,22.9,2,22.5,2,22V7.4l11.6,10.1c0.3,0.3,0.8,0.3,1.2,0L26.3,7.4V22
						C26.3,22.5,25.9,22.9,25.5,22.9z"/>
				</g>
			</g>
		</g>
	</g>
</g>
</svg>
