<?xml version="1.0" encoding="utf-8"?>
<!-- Generator: Adobe Illustrator 24.1.0, SVG Export Plug-In . SVG Version: 6.00 Build 0)  -->
<svg version="1.1" id="Capa_1" xmlns="http://www.w3.org/2000/svg" xmlns:xlink="http://www.w3.org/1999/xlink" x="0px" y="0px"
	 viewBox="0 0 28.3 28.3" style="enable-background:new 0 0 28.3 28.3;" xml:space="preserve">
<style type="text/css">
	.st0{fill:#FFFFFF;}
</style>
<g id="Capa_2_1_">
	<g id="Web">
		<g id="_01_Index">
			<g id="Footer">
				<g id="iconos_redes_sociales">
					<g id="twitter_icon">
						<path class="st0" d="M28.2,5.4c-1.1,0.5-2.2,0.8-3.3,0.9c1.2-0.7,2.1-1.8,2.5-3.2c-1.1,0.7-2.4,1.1-3.7,1.4
							C21.6,2.2,18,2,15.7,4.2c-1.2,1.1-1.8,2.6-1.8,4.2c0,0.4,0,0.9,0.1,1.3C9.3,9.5,5,7.3,2.1,3.7c-1.5,2.6-0.8,6,1.8,7.7
							c-0.9,0-1.8-0.3-2.5-0.7l0,0c0,2.7,1.9,5.1,4.6,5.7c-0.5,0.2-1,0.2-1.6,0.3c-0.4,0-0.7,0-1.1-0.1c0.8,2.3,2.9,4,5.4,4
							c-2,1.6-4.6,2.4-7.1,2.4c-0.5,0-0.9,0-1.4,0c2.6,1.7,5.7,2.6,8.9,2.5c9,0,16.3-7.2,16.3-16.2c0-0.1,0-0.1,0-0.2
							c0-0.3,0-0.5,0-0.7C26.5,7.5,27.5,6.5,28.2,5.4z"/>
					</g>
				</g>
			</g>
		</g>
	</g>
</g>
</svg>
