<?xml version="1.0" encoding="utf-8"?>
<!-- Generator: Adobe Illustrator 24.1.0, SVG Export Plug-In . SVG Version: 6.00 Build 0)  -->
<svg version="1.1" id="Capa_1" xmlns="http://www.w3.org/2000/svg" xmlns:xlink="http://www.w3.org/1999/xlink" x="0px" y="0px"
	 viewBox="0 0 28.3 28.3" style="enable-background:new 0 0 28.3 28.3;" xml:space="preserve">
<style type="text/css">
	.st0{fill:#FFFFFF;}
</style>
<g id="Capa_2_1_">
	<g id="Web">
		<g id="_01_Index">
			<g id="Footer">
				<g id="iconos_redes_sociales">
					<path id="youtube_icon" class="st0" d="M27.6,7.4c-0.3-1.2-1.3-2.1-2.5-2.5c-2.2-0.6-10.9-0.6-10.9-0.6s-8.7,0-10.9,0.6
						C2,5.3,1.1,6.2,0.8,7.4c-0.4,2.2-0.6,4.5-0.6,6.7c0,2.3,0.2,4.5,0.6,6.7C1.1,22,2,23,3.2,23.3c2.2,0.6,10.9,0.6,10.9,0.6
						s8.7,0,10.9-0.6c1.2-0.3,2.1-1.3,2.5-2.5c0.4-2.2,0.6-4.5,0.6-6.7C28.2,11.9,28,9.6,27.6,7.4z M11.4,18.3V9.9l7.2,4.2
						L11.4,18.3z"/>
				</g>
			</g>
		</g>
	</g>
</g>
</svg>
