<svg xmlns="http://www.w3.org/2000/svg" viewBox="0 0 24.28 17"><defs><style>.cls-1{fill:#fff;}</style></defs><g id="Capa_2" data-name="Capa 2"><g id="Web"><g id="_01_Index" data-name="01 Index"><g id="Footer"><g id="iconos_redes_sociales" data-name="iconos redes sociales"><path id="youtube_icon" data-name="youtube icon" class="cls-1" d="M23.78,2.66A3,3,0,0,0,21.64.52C19.74,0,12.14,0,12.14,0s-7.6,0-9.5.5A3.1,3.1,0,0,0,.5,2.66,32.05,32.05,0,0,0,0,8.5a31.94,31.94,0,0,0,.5,5.84,3,3,0,0,0,2.14,2.14c1.92.52,9.5.52,9.5.52s7.6,0,9.5-.5a3,3,0,0,0,2.14-2.14,32.05,32.05,0,0,0,.5-5.84A30.44,30.44,0,0,0,23.78,2.66ZM9.72,12.14V4.86L16,8.5Z"/></g></g></g></g></g></svg>