<?xml version="1.0" encoding="utf-8"?>
<!-- Generator: Adobe Illustrator 24.1.0, SVG Export Plug-In . SVG Version: 6.00 Build 0)  -->
<svg version="1.1" id="Capa_1" xmlns="http://www.w3.org/2000/svg" xmlns:xlink="http://www.w3.org/1999/xlink" x="0px" y="0px"
	 viewBox="0 0 895.5 607.6" style="enable-background:new 0 0 895.5 607.6;" xml:space="preserve">
<style type="text/css">
	.st0{fill:#A48A7B;}
	.st1{clip-path:url(#SVGID_2_);}
	.st2{clip-path:url(#SVGID_4_);}
	.st3{fill:none;stroke:#B8B8DB;stroke-width:1.33;stroke-miterlimit:10;}
	.st4{fill:#634E42;}
	.st5{font-family:'FiraSans-Regular';}
	.st6{font-size:19.87px;}
	.st7{font-size:21.36px;}
	.st8{fill:#FECE00;}
	.st9{font-family:'BodoniSvtyTwoITCTT-Bold';}
	.st10{font-size:320.76px;}
	.st11{fill:#FFFFFF;}
	.st12{font-size:30.52px;}
	.st13{font-size:27.59px;}
	.st14{fill:none;stroke:#1D1D1B;stroke-width:2.8;stroke-linecap:round;stroke-linejoin:bevel;}
	.st15{fill:none;stroke:#FFFFFF;stroke-width:3.01;stroke-linecap:round;stroke-linejoin:bevel;}
	.st16{font-size:36.62px;}
	.st17{font-size:24.42px;}
	.st18{letter-spacing:-1;}
	.st19{fill:#D88100;}
	.st20{font-family:'FiraSans-Bold';}
	.st21{font-size:32.05px;}
</style>
<g>
	<g id="Capa_2_1_">
		<g id="iphone_6_7_8_plus_portrait">
			<g id="_03_El_Fraude_copia">
				<g id="Seccion_2">
					<g id="graph_2_Es">
						
							<image style="overflow:visible;opacity:0.65;enable-background:new    ;" width="594" height="389" xlink:href="447C181C7917D0A1.png"  transform="matrix(1 0 0 1 301.51 126.84)">
						</image>
						<rect x="322.9" y="139.3" class="st0" width="559.6" height="355"/>
						<g>
							<defs>
								<rect id="SVGID_1_" x="322.9" y="139.3" width="560.1" height="357.5"/>
							</defs>
							<clipPath id="SVGID_2_">
								<use xlink:href="#SVGID_1_"  style="overflow:visible;"/>
							</clipPath>
							<g class="st1">
								<g id="Honey_jar_05.psd">
									<g>
										<defs>
											<rect id="SVGID_3_" x="268" y="-15.4" width="651.2" height="635.9"/>
										</defs>
										<clipPath id="SVGID_4_">
											<use xlink:href="#SVGID_3_"  style="overflow:visible;"/>
										</clipPath>
										<g class="st2">
											
												<image style="overflow:visible;enable-background:new    ;" width="900" height="1542" id="Capa_2-2" xlink:href="447C181C7917D0A3.png"  transform="matrix(-0.67 0 0 0.39 895.16 0)">
											</image>
										</g>
									</g>
								</g>
							</g>
						</g>
						<line class="st3" x1="393.6" y1="139.3" x2="393.6" y2="494.3"/>
						<line class="st3" x1="463.3" y1="139.3" x2="463.3" y2="494.3"/>
						<line class="st3" x1="532.9" y1="139.3" x2="532.9" y2="494.3"/>
						<line class="st3" x1="602.6" y1="139.3" x2="602.6" y2="494.3"/>
						<line class="st3" x1="672.2" y1="139.3" x2="672.2" y2="494.3"/>
						<line class="st3" x1="741.8" y1="139.3" x2="741.8" y2="494.3"/>
						<line class="st3" x1="811.5" y1="139.3" x2="811.5" y2="494.3"/>
						<g id="x_copia_3">
							<text transform="matrix(1 0 0 1 331.54 528.45)" class="st4 st5 st6">20</text>
							<text transform="matrix(1 0 0 1 352.47 528.45)" class="st4 st5 st6">0</text>
							<text transform="matrix(1 0 0 1 363.16 528.45)" class="st4 st5 st6">7</text>
							<text transform="matrix(1 0 0 1 392.69 528.45)" class="st4 st5 st6">2008</text>
							<text transform="matrix(1 0 0 1 461 528.45)" class="st4 st5 st6">20</text>
							<text transform="matrix(1 0 0 1 481.93 528.45)" class="st4 st5 st6">0</text>
							<text transform="matrix(1 0 0 1 492.82 528.45)" class="st4 st5 st6">9</text>
							<text transform="matrix(1 0 0 1 524.69 528.45)" class="st4 st5 st6">2</text>
							<text transform="matrix(1 0 0 1 534.53 528.45)" class="st4 st5 st6">0</text>
							<text transform="matrix(1 0 0 1 545.12 528.45)" class="st4 st5 st6">10</text>
							<text transform="matrix(1 0 0 1 594.15 528.45)" class="st4 st5 st6">2</text>
							<text transform="matrix(1 0 0 1 603.9901 528.45)" class="st4 st5 st6">0</text>
							<text transform="matrix(1 0 0 1 614.58 528.45)" class="st4 st5 st6">1</text>
							<text transform="matrix(1 0 0 1 622.91 528.45)" class="st4 st5 st6">1</text>
							<text transform="matrix(1 0 0 1 655.64 528.45)" class="st4 st5 st6">2</text>
							<text transform="matrix(1 0 0 1 665.48 528.45)" class="st4 st5 st6">0</text>
							<text transform="matrix(1 0 0 1 676.07 528.45)" class="st4 st5 st6">12</text>
							<text transform="matrix(1 0 0 1 722.47 528.45)" class="st4 st5 st6">2</text>
							<text transform="matrix(1 0 0 1 732.31 528.45)" class="st4 st5 st6">0</text>
							<text transform="matrix(1 0 0 1 742.9 528.45)" class="st4 st5 st6">13</text>
							<text transform="matrix(1 0 0 1 786.91 528.45)" class="st4 st5 st6">2</text>
							<text transform="matrix(1 0 0 1 796.75 528.45)" class="st4 st5 st6">0</text>
							<text transform="matrix(1 0 0 1 807.34 528.45)" class="st4 st5 st6">14</text>
						</g>
						<g id="y_copia_3">
							<text transform="matrix(1 0 0 1 253.95 166.39)" class="st4 st5 st7">300 K</text>
							<text transform="matrix(1 0 0 1 255.26 218.29)" class="st4 st5 st7">250 K</text>
							<text transform="matrix(1 0 0 1 254.04 274.48)" class="st4 st5 st7">200 K</text>
							<text transform="matrix(1 0 0 1 256.58 334.29)" class="st4 st5 st7">150 K</text>
							<text transform="matrix(1 0 0 1 255.37 389.97)" class="st4 st5 st7">100 K</text>
							<text transform="matrix(1 0 0 1 265.83 445.55)" class="st4 st5 st7">50 K</text>
						</g>
						<text transform="matrix(1 0 0 1 494.54 419.36)" class="st8 st9 st10">?</text>
						<text transform="matrix(1 0 0 1 602.08 429.37)" class="st11 st5 st12">C</text>
						<text transform="matrix(1 0 0 1 618.87 429.37)" class="st11 st5 st12">antidad</text>
						<text transform="matrix(1 0 0 1 602.08 456.84)" class="st11 st5 st12">de </text>
						<text transform="matrix(1 0 0 1 645.05 456.84)" class="st11 st5 st12">c</text>
						<text transform="matrix(1 0 0 1 659.03 456.84)" class="st11 st5 st12">olmen</text>
						<text transform="matrix(1 0 0 1 746.47 456.84)" class="st11 st5 st12">a</text>
						<text transform="matrix(1 0 0 1 762.77 456.84)" class="st11 st5 st12">s</text>
						<text transform="matrix(1 0 0 1 652.81 183.11)" class="st5 st13">Expor</text>
						<text transform="matrix(1 0 0 1 724.09 183.11)" class="st5 st13">t</text>
						<text transform="matrix(1 0 0 1 733.86 183.11)" class="st5 st13">aciones</text>
						<text transform="matrix(1 0 0 1 652.81 207.94)" class="st5 st13">(</text>
						<text transform="matrix(1 0 0 1 661.75 207.94)" class="st5 st13">t</text>
						<text transform="matrix(1 0 0 1 671.29 207.94)" class="st5 st13">one</text>
						<text transform="matrix(1 0 0 1 718.6 207.94)" class="st5 st13">l</text>
						<text transform="matrix(1 0 0 1 726.55 207.94)" class="st5 st13">ad</text>
						<text transform="matrix(1 0 0 1 758.05 207.94)" class="st5 st13">a</text>
						<text transform="matrix(1 0 0 1 772.78 207.94)" class="st5 st13">s)</text>
						<polygon class="st11" points="851.5,400.3 821.2,360.2 791,400.3 810.9,400.3 810.9,422 831.2,422 831.2,400.3 						"/>
						<polygon points="851.5,259.7 821.2,219.6 791,259.7 810.9,259.7 810.9,281.4 831.2,281.4 831.2,259.7 						"/>
						<polyline class="st14" points="364.5,399.3 434.2,350 501.4,377.7 568.6,322.4 640.8,303.7 705.5,316.9 775.2,245.6 
							844.9,183.1 						"/>
						<line class="st15" x1="364.5" y1="475" x2="846.4" y2="467.1"/>
						<text transform="matrix(1 0 0 1 774.73 314.46)" class="st5 st16">196%</text>
						<text transform="matrix(1 0 0 1 789.04 455.63)" class="st11 st5 st16">13%</text>
						<text transform="matrix(1 0 0 1 9.0145 309.52)" class="st4 st5 st17">C</text>
						<text transform="matrix(1 0 0 1 22.4445 309.52)" class="st4 st5 st17">hina</text>
						<text transform="matrix(1 0 0 1 9.0145 338.82)" class="st4 st5 st17">India</text>
						<text transform="matrix(1 0 0 1 9.0145 368.12)" class="st4 st5 st17">Uc</text>
						<text transform="matrix(1 0 0 1 36.8445 368.12)" class="st4 st5 st17">r</text>
						<text transform="matrix(1 0 0 1 45.4145 368.12)" class="st4 st5 st17">ania</text>
						<text transform="matrix(1 0 0 1 9.0145 397.42)" class="st4 st5 st17">T</text>
						<text transform="matrix(1 0 0 1 20.6645 397.42)" class="st4 st5 st17">u</text>
						<text transform="matrix(1 0 0 1 34.8745 397.42)" class="st4 st5 st17">r</text>
						<text transform="matrix(1 0 0 1 43.5645 397.42)" class="st4 st5 st17">quía</text>
						<text transform="matrix(1 0 0 1 9.0145 426.72)" class="st4 st5 st17 st18">T</text>
						<text transform="matrix(1 0 0 1 20.4145 426.72)" class="st4 st5 st17">ai</text>
						<text transform="matrix(1 0 0 1 40.5845 426.72)" class="st4 st5 st17">w</text>
						<text transform="matrix(1 0 0 1 57.7945 426.72)" class="st4 st5 st17">án</text>
						<text transform="matrix(1 0 0 1 9.0145 456.02)" class="st4 st5 st17 st18">T</text>
						<text transform="matrix(1 0 0 1 20.4145 456.02)" class="st4 st5 st17">ai</text>
						<text transform="matrix(1 0 0 1 40.5845 456.02)" class="st4 st5 st17">l</text>
						<text transform="matrix(1 0 0 1 47.6145 456.02)" class="st4 st5 st17">andia</text>
						<text transform="matrix(1 0 0 1 9.0145 485.31)" class="st4 st5 st17">Vietnam</text>
						<text transform="matrix(1 0 0 1 9.6245 159.34)" class="st19 st20 st21">L</text>
						<text transform="matrix(1 0 0 1 25.2645 159.34)" class="st19 st20 st21">os sie</text>
						<text transform="matrix(1 0 0 1 109.2545 159.34)" class="st19 st20 st21">t</text>
						<text transform="matrix(1 0 0 1 121.0445 159.34)" class="st19 st20 st21">e</text>
						<text transform="matrix(1 0 0 1 9.6245 197.8)" class="st19 st20 st21">princi</text>
						<text transform="matrix(1 0 0 1 93.5145 197.8)" class="st19 st20 st21">pa</text>
						<text transform="matrix(1 0 0 1 129.5745 197.8)" class="st19 st20 st21">l</text>
						<text transform="matrix(1 0 0 1 138.9245 197.8)" class="st19 st20 st21">es</text>
						<text transform="matrix(1 0 0 1 9.6245 236.25)" class="st19 st20 st21">p</text>
						<text transform="matrix(1 0 0 1 28.4345 236.25)" class="st19 st20 st21">aíses</text>
						<text transform="matrix(1 0 0 1 9.6245 274.71)" class="st19 st20 st21">de Orien</text>
						<text transform="matrix(1 0 0 1 134.3445 274.71)" class="st19 st20 st21">t</text>
						<text transform="matrix(1 0 0 1 146.1345 274.71)" class="st19 st20 st21">e</text>
					</g>
				</g>
			</g>
		</g>
	</g>
</g>
</svg>
