<?xml version="1.0" encoding="utf-8"?>
<!-- Generator: Adobe Illustrator 24.1.0, SVG Export Plug-In . SVG Version: 6.00 Build 0)  -->
<svg version="1.1" id="Capa_1" xmlns="http://www.w3.org/2000/svg" xmlns:xlink="http://www.w3.org/1999/xlink" x="0px" y="0px"
	 viewBox="0 0 875.5 607.6" style="enable-background:new 0 0 875.5 607.6;" xml:space="preserve">
<style type="text/css">
	.st0{fill:#A48A7B;}
	.st1{clip-path:url(#SVGID_2_);}
	.st2{clip-path:url(#SVGID_4_);}
	.st3{fill:none;stroke:#B8B8DB;stroke-width:1.33;stroke-miterlimit:10;}
	.st4{fill:#634E42;}
	.st5{font-family:'FiraSans-Regular';}
	.st6{font-size:19.87px;}
	.st7{font-size:21.36px;}
	.st8{fill:#FECE00;}
	.st9{font-family:'BodoniSvtyTwoITCTT-Bold';}
	.st10{font-size:320.76px;}
	.st11{fill:#FFFFFF;}
	.st12{font-size:30.52px;}
	.st13{font-size:27.59px;}
	.st14{fill:none;stroke:#1D1D1B;stroke-width:2.8;stroke-linecap:round;stroke-linejoin:bevel;}
	.st15{fill:none;stroke:#FFFFFF;stroke-width:3.01;stroke-linecap:round;stroke-linejoin:bevel;}
	.st16{font-size:36.62px;}
	.st17{font-size:24.42px;}
	.st18{letter-spacing:-1;}
	.st19{fill:#D88100;}
	.st20{font-family:'FiraSans-Bold';}
	.st21{font-size:32.05px;}
</style>
<g>
	<g id="Capa_2_1_">
		<g id="iphone_6_7_8_plus_portrait">
			<g id="_03_El_Fraude_copia">
				<g id="Seccion_2">
					<g id="graph_2_Fr">
						
							<image style="overflow:visible;opacity:0.65;enable-background:new    ;" width="594" height="389" xlink:href="4578A39A46C5B12F.png"  transform="matrix(1 0 0 1 281.51 126.84)">
						</image>
						<rect x="302.9" y="139.3" class="st0" width="559.6" height="355"/>
						<g>
							<defs>
								<rect id="SVGID_1_" x="302.9" y="139.3" width="560.1" height="357.5"/>
							</defs>
							<clipPath id="SVGID_2_">
								<use xlink:href="#SVGID_1_"  style="overflow:visible;"/>
							</clipPath>
							<g class="st1">
								<g id="Honey_jar_05.psd">
									<g>
										<defs>
											<rect id="SVGID_3_" x="248" y="-15.4" width="651.2" height="635.9"/>
										</defs>
										<clipPath id="SVGID_4_">
											<use xlink:href="#SVGID_3_"  style="overflow:visible;"/>
										</clipPath>
										<g class="st2">
											
												<image style="overflow:visible;enable-background:new    ;" width="900" height="1542" id="Capa_2-2" xlink:href="4578A39A46C5B12D.png"  transform="matrix(-0.67 0 0 0.39 875.16 0)">
											</image>
										</g>
									</g>
								</g>
							</g>
						</g>
						<line class="st3" x1="373.6" y1="139.3" x2="373.6" y2="494.3"/>
						<line class="st3" x1="443.3" y1="139.3" x2="443.3" y2="494.3"/>
						<line class="st3" x1="512.9" y1="139.3" x2="512.9" y2="494.3"/>
						<line class="st3" x1="582.6" y1="139.3" x2="582.6" y2="494.3"/>
						<line class="st3" x1="652.2" y1="139.3" x2="652.2" y2="494.3"/>
						<line class="st3" x1="721.8" y1="139.3" x2="721.8" y2="494.3"/>
						<line class="st3" x1="791.5" y1="139.3" x2="791.5" y2="494.3"/>
						<g id="x_copia_13">
							<text transform="matrix(1 0 0 1 311.54 528.45)" class="st4 st5 st6">20</text>
							<text transform="matrix(1 0 0 1 332.47 528.45)" class="st4 st5 st6">0</text>
							<text transform="matrix(1 0 0 1 343.16 528.45)" class="st4 st5 st6">7</text>
							<text transform="matrix(1 0 0 1 372.69 528.45)" class="st4 st5 st6">2008</text>
							<text transform="matrix(1 0 0 1 441 528.45)" class="st4 st5 st6">20</text>
							<text transform="matrix(1 0 0 1 461.93 528.45)" class="st4 st5 st6">0</text>
							<text transform="matrix(1 0 0 1 472.82 528.45)" class="st4 st5 st6">9</text>
							<text transform="matrix(1 0 0 1 504.69 528.45)" class="st4 st5 st6">2</text>
							<text transform="matrix(1 0 0 1 514.53 528.45)" class="st4 st5 st6">0</text>
							<text transform="matrix(1 0 0 1 525.12 528.45)" class="st4 st5 st6">10</text>
							<text transform="matrix(1 0 0 1 574.15 528.45)" class="st4 st5 st6">2</text>
							<text transform="matrix(1 0 0 1 583.9901 528.45)" class="st4 st5 st6">0</text>
							<text transform="matrix(1 0 0 1 594.58 528.45)" class="st4 st5 st6">1</text>
							<text transform="matrix(1 0 0 1 602.91 528.45)" class="st4 st5 st6">1</text>
							<text transform="matrix(1 0 0 1 635.64 528.45)" class="st4 st5 st6">2</text>
							<text transform="matrix(1 0 0 1 645.48 528.45)" class="st4 st5 st6">0</text>
							<text transform="matrix(1 0 0 1 656.07 528.45)" class="st4 st5 st6">12</text>
							<text transform="matrix(1 0 0 1 702.47 528.45)" class="st4 st5 st6">2</text>
							<text transform="matrix(1 0 0 1 712.31 528.45)" class="st4 st5 st6">0</text>
							<text transform="matrix(1 0 0 1 722.9 528.45)" class="st4 st5 st6">13</text>
							<text transform="matrix(1 0 0 1 766.91 528.45)" class="st4 st5 st6">2</text>
							<text transform="matrix(1 0 0 1 776.75 528.45)" class="st4 st5 st6">0</text>
							<text transform="matrix(1 0 0 1 787.34 528.45)" class="st4 st5 st6">14</text>
						</g>
						<g id="y_copia_13">
							<text transform="matrix(1 0 0 1 233.95 166.39)" class="st4 st5 st7">300 K</text>
							<text transform="matrix(1 0 0 1 235.26 218.29)" class="st4 st5 st7">250 K</text>
							<text transform="matrix(1 0 0 1 234.04 274.48)" class="st4 st5 st7">200 K</text>
							<text transform="matrix(1 0 0 1 236.58 334.29)" class="st4 st5 st7">150 K</text>
							<text transform="matrix(1 0 0 1 235.37 389.97)" class="st4 st5 st7">100 K</text>
							<text transform="matrix(1 0 0 1 245.83 445.55)" class="st4 st5 st7">50 K</text>
						</g>
						<text transform="matrix(1 0 0 1 474.54 419.36)" class="st8 st9 st10">?</text>
						<text transform="matrix(1 0 0 1 582.08 429.37)" class="st11 st5 st12">Quanti</text>
						<text transform="matrix(1 0 0 1 675.04 429.37)" class="st11 st5 st12">t</text>
						<text transform="matrix(1 0 0 1 685.6 429.37)" class="st11 st5 st12">é</text>
						<text transform="matrix(1 0 0 1 582.08 456.84)" class="st11 st5 st12">ruches</text>
						<text transform="matrix(1 0 0 1 632.81 183.11)" class="st5 st13">Expor</text>
						<text transform="matrix(1 0 0 1 704.09 183.11)" class="st5 st13">t</text>
						<text transform="matrix(1 0 0 1 713.86 183.11)" class="st5 st13">ations</text>
						<text transform="matrix(1 0 0 1 632.81 207.94)" class="st5 st13">(</text>
						<text transform="matrix(1 0 0 1 641.75 207.94)" class="st5 st13">t</text>
						<text transform="matrix(1 0 0 1 651.29 207.94)" class="st5 st13">onnes)</text>
						<polygon class="st11" points="831.5,400.3 801.2,360.2 771,400.3 790.9,400.3 790.9,422 811.2,422 811.2,400.3 						"/>
						<polygon points="831.5,259.7 801.2,219.6 771,259.7 790.9,259.7 790.9,281.4 811.2,281.4 811.2,259.7 						"/>
						<polyline class="st14" points="344.5,399.3 414.2,350 481.4,377.7 548.6,322.4 620.8,303.7 685.5,316.9 755.2,245.6 
							824.9,183.1 						"/>
						<line class="st15" x1="344.5" y1="475" x2="826.4" y2="467.1"/>
						<text transform="matrix(1 0 0 1 754.73 314.46)" class="st5 st16">196%</text>
						<text transform="matrix(1 0 0 1 769.04 455.63)" class="st11 st5 st16">13%</text>
						<text transform="matrix(1 0 0 1 10.0158 309.52)" class="st4 st5 st17">C</text>
						<text transform="matrix(1 0 0 1 23.4458 309.52)" class="st4 st5 st17">hine</text>
						<text transform="matrix(1 0 0 1 10.0158 333.94)" class="st4 st5 st17">Inde</text>
						<text transform="matrix(1 0 0 1 10.0158 358.35)" class="st4 st5 st17">Uk</text>
						<text transform="matrix(1 0 0 1 38.6758 358.35)" class="st4 st5 st17">r</text>
						<text transform="matrix(1 0 0 1 47.2458 358.35)" class="st4 st5 st17">aine</text>
						<text transform="matrix(1 0 0 1 10.0158 382.77)" class="st4 st5 st17">dinde</text>
						<text transform="matrix(1 0 0 1 10.0158 407.18)" class="st4 st5 st17 st18">T</text>
						<text transform="matrix(1 0 0 1 21.4158 407.18)" class="st4 st5 st17">aï</text>
						<text transform="matrix(1 0 0 1 41.5859 407.18)" class="st4 st5 st17">w</text>
						<text transform="matrix(1 0 0 1 58.7958 407.18)" class="st4 st5 st17">an</text>
						<text transform="matrix(1 0 0 1 10.0158 431.6)" class="st4 st5 st17">Tha</text>
						<text transform="matrix(1 0 0 1 50.2258 431.6)" class="st4 st5 st17">ï</text>
						<text transform="matrix(1 0 0 1 57.3358 431.6)" class="st4 st5 st17">l</text>
						<text transform="matrix(1 0 0 1 64.3658 431.6)" class="st4 st5 st17">ande</text>
						<text transform="matrix(1 0 0 1 10.0158 456.02)" class="st4 st5 st17">Vietnam</text>
						<text transform="matrix(1 0 0 1 10.6258 159.34)" class="st19 st20 st21">L</text>
						<text transform="matrix(1 0 0 1 26.2658 159.34)" class="st19 st20 st21">es sept</text>
						<text transform="matrix(1 0 0 1 10.6258 197.8)" class="st19 st20 st21">princi</text>
						<text transform="matrix(1 0 0 1 94.5158 197.8)" class="st19 st20 st21">p</text>
						<text transform="matrix(1 0 0 1 113.3358 197.8)" class="st19 st20 st21">aux</text>
						<text transform="matrix(1 0 0 1 10.6258 236.25)" class="st19 st20 st21">l</text>
						<text transform="matrix(1 0 0 1 19.9858 236.25)" class="st19 st20 st21">es </text>
						<text transform="matrix(1 0 0 1 60.7458 236.25)" class="st19 st20 st21">p</text>
						<text transform="matrix(1 0 0 1 79.5558 236.25)" class="st19 st20 st21">a</text>
						<text transform="matrix(1 0 0 1 96.6358 236.25)" class="st19 st20 st21">y</text>
						<text transform="matrix(1 0 0 1 112.9458 236.25)" class="st19 st20 st21">s</text>
						<text transform="matrix(1 0 0 1 10.6258 274.71)" class="st19 st20 st21">E</text>
						<text transform="matrix(1 0 0 1 27.3258 274.71)" class="st19 st20 st21">st</text>
					</g>
				</g>
			</g>
		</g>
	</g>
</g>
</svg>
