<?xml version="1.0" encoding="utf-8"?>
<!-- Generator: Adobe Illustrator 24.1.0, SVG Export Plug-In . SVG Version: 6.00 Build 0)  -->
<svg version="1.1" id="Capa_1" xmlns="http://www.w3.org/2000/svg" xmlns:xlink="http://www.w3.org/1999/xlink" x="0px" y="0px"
	 viewBox="0 0 888.5 607.6" style="enable-background:new 0 0 888.5 607.6;" xml:space="preserve">
<style type="text/css">
	.st0{fill:#A48A7B;}
	.st1{clip-path:url(#SVGID_2_);}
	.st2{clip-path:url(#SVGID_4_);}
	.st3{fill:none;stroke:#B8B8DB;stroke-width:1.33;stroke-miterlimit:10;}
	.st4{fill:#634E42;}
	.st5{font-family:'FiraSans-Regular';}
	.st6{font-size:19.87px;}
	.st7{font-size:21.36px;}
	.st8{fill:#FECE00;}
	.st9{font-family:'BodoniSvtyTwoITCTT-Bold';}
	.st10{font-size:320.76px;}
	.st11{fill:#FFFFFF;}
	.st12{font-size:30.52px;}
	.st13{font-size:27.59px;}
	.st14{fill:none;stroke:#1D1D1B;stroke-width:2.8;stroke-linecap:round;stroke-linejoin:bevel;}
	.st15{fill:none;stroke:#FFFFFF;stroke-width:3.01;stroke-linecap:round;stroke-linejoin:bevel;}
	.st16{font-size:36.62px;}
	.st17{font-size:24.42px;}
	.st18{letter-spacing:-1;}
	.st19{fill:#D88100;}
	.st20{font-family:'FiraSans-Bold';}
	.st21{font-size:32.05px;}
</style>
<g>
	<g id="Capa_2_1_">
		<g id="iphone_6_7_8_plus_portrait">
			<g id="_03_El_Fraude_copia">
				<g id="Seccion_2">
					<g id="graph_2_En">
						
							<image style="overflow:visible;opacity:0.65;enable-background:new    ;" width="594" height="389" xlink:href="445200DCD6D02B32.png"  transform="matrix(1 0 0 1 294.51 126.84)">
						</image>
						<rect x="315.9" y="139.3" class="st0" width="559.6" height="355"/>
						<g>
							<defs>
								<rect id="SVGID_1_" x="315.9" y="139.3" width="560.1" height="357.5"/>
							</defs>
							<clipPath id="SVGID_2_">
								<use xlink:href="#SVGID_1_"  style="overflow:visible;"/>
							</clipPath>
							<g class="st1">
								<g id="Honey_jar_05.psd">
									<g>
										<defs>
											<rect id="SVGID_3_" x="261" y="-15.4" width="651.2" height="635.9"/>
										</defs>
										<clipPath id="SVGID_4_">
											<use xlink:href="#SVGID_3_"  style="overflow:visible;"/>
										</clipPath>
										<g class="st2">
											
												<image style="overflow:visible;enable-background:new    ;" width="900" height="1542" id="Capa_2-2" xlink:href="445200DCD6D02B36.png"  transform="matrix(-0.67 0 0 0.39 888.16 0)">
											</image>
										</g>
									</g>
								</g>
							</g>
						</g>
						<line class="st3" x1="386.6" y1="139.3" x2="386.6" y2="494.3"/>
						<line class="st3" x1="456.3" y1="139.3" x2="456.3" y2="494.3"/>
						<line class="st3" x1="525.9" y1="139.3" x2="525.9" y2="494.3"/>
						<line class="st3" x1="595.6" y1="139.3" x2="595.6" y2="494.3"/>
						<line class="st3" x1="665.2" y1="139.3" x2="665.2" y2="494.3"/>
						<line class="st3" x1="734.8" y1="139.3" x2="734.8" y2="494.3"/>
						<line class="st3" x1="804.5" y1="139.3" x2="804.5" y2="494.3"/>
						<g id="x_copia_14">
							<text transform="matrix(1 0 0 1 324.54 528.45)" class="st4 st5 st6">20</text>
							<text transform="matrix(1 0 0 1 345.47 528.45)" class="st4 st5 st6">0</text>
							<text transform="matrix(1 0 0 1 356.16 528.45)" class="st4 st5 st6">7</text>
							<text transform="matrix(1 0 0 1 385.69 528.45)" class="st4 st5 st6">2008</text>
							<text transform="matrix(1 0 0 1 454 528.45)" class="st4 st5 st6">20</text>
							<text transform="matrix(1 0 0 1 474.93 528.45)" class="st4 st5 st6">0</text>
							<text transform="matrix(1 0 0 1 485.82 528.45)" class="st4 st5 st6">9</text>
							<text transform="matrix(1 0 0 1 517.69 528.45)" class="st4 st5 st6">2</text>
							<text transform="matrix(1 0 0 1 527.53 528.45)" class="st4 st5 st6">0</text>
							<text transform="matrix(1 0 0 1 538.12 528.45)" class="st4 st5 st6">10</text>
							<text transform="matrix(1 0 0 1 587.15 528.45)" class="st4 st5 st6">2</text>
							<text transform="matrix(1 0 0 1 596.9901 528.45)" class="st4 st5 st6">0</text>
							<text transform="matrix(1 0 0 1 607.58 528.45)" class="st4 st5 st6">1</text>
							<text transform="matrix(1 0 0 1 615.91 528.45)" class="st4 st5 st6">1</text>
							<text transform="matrix(1 0 0 1 648.64 528.45)" class="st4 st5 st6">2</text>
							<text transform="matrix(1 0 0 1 658.48 528.45)" class="st4 st5 st6">0</text>
							<text transform="matrix(1 0 0 1 669.07 528.45)" class="st4 st5 st6">12</text>
							<text transform="matrix(1 0 0 1 715.47 528.45)" class="st4 st5 st6">2</text>
							<text transform="matrix(1 0 0 1 725.31 528.45)" class="st4 st5 st6">0</text>
							<text transform="matrix(1 0 0 1 735.9 528.45)" class="st4 st5 st6">13</text>
							<text transform="matrix(1 0 0 1 779.91 528.45)" class="st4 st5 st6">2</text>
							<text transform="matrix(1 0 0 1 789.75 528.45)" class="st4 st5 st6">0</text>
							<text transform="matrix(1 0 0 1 800.34 528.45)" class="st4 st5 st6">14</text>
						</g>
						<g id="y_copia_14">
							<text transform="matrix(1 0 0 1 246.95 166.39)" class="st4 st5 st7">300 K</text>
							<text transform="matrix(1 0 0 1 248.26 218.29)" class="st4 st5 st7">250 K</text>
							<text transform="matrix(1 0 0 1 247.04 274.48)" class="st4 st5 st7">200 K</text>
							<text transform="matrix(1 0 0 1 249.58 334.29)" class="st4 st5 st7">150 K</text>
							<text transform="matrix(1 0 0 1 248.37 389.97)" class="st4 st5 st7">100 K</text>
							<text transform="matrix(1 0 0 1 258.83 445.55)" class="st4 st5 st7">50 K</text>
						</g>
						<text transform="matrix(1 0 0 1 487.54 419.36)" class="st8 st9 st10">?</text>
						<text transform="matrix(1 0 0 1 595.08 429.37)" class="st11 st5 st12">Quanti</text>
						<text transform="matrix(1 0 0 1 688.04 429.37)" class="st11 st5 st12">t</text>
						<text transform="matrix(1 0 0 1 698.91 429.37)" class="st11 st5 st12">y</text>
						<text transform="matrix(1 0 0 1 595.08 456.84)" class="st11 st5 st12">beehi</text>
						<text transform="matrix(1 0 0 1 672.97 456.84)" class="st11 st5 st12">v</text>
						<text transform="matrix(1 0 0 1 687.86 456.84)" class="st11 st5 st12">es</text>
						<text transform="matrix(1 0 0 1 645.81 183.11)" class="st5 st13">Exports</text>
						<text transform="matrix(1 0 0 1 645.81 207.94)" class="st5 st13">(</text>
						<text transform="matrix(1 0 0 1 654.75 207.94)" class="st5 st13">t</text>
						<text transform="matrix(1 0 0 1 664.29 207.94)" class="st5 st13">ons)</text>
						<polygon class="st11" points="844.5,400.3 814.2,360.2 784,400.3 803.9,400.3 803.9,422 824.2,422 824.2,400.3 						"/>
						<polygon points="844.5,259.7 814.2,219.6 784,259.7 803.9,259.7 803.9,281.4 824.2,281.4 824.2,259.7 						"/>
						<polyline class="st14" points="357.5,399.3 427.2,350 494.4,377.7 561.6,322.4 633.8,303.7 698.5,316.9 768.2,245.6 
							837.9,183.1 						"/>
						<line class="st15" x1="357.5" y1="475" x2="839.4" y2="467.1"/>
						<text transform="matrix(1 0 0 1 767.73 314.46)" class="st5 st16">196%</text>
						<text transform="matrix(1 0 0 1 782.04 455.63)" class="st11 st5 st16">13%</text>
						<text transform="matrix(1 0 0 1 12.0151 309.52)" class="st4 st5 st17">C</text>
						<text transform="matrix(1 0 0 1 25.4451 309.52)" class="st4 st5 st17">hina</text>
						<text transform="matrix(1 0 0 1 12.0151 333.94)" class="st4 st5 st17">India</text>
						<text transform="matrix(1 0 0 1 12.0151 358.35)" class="st4 st5 st17">Uk</text>
						<text transform="matrix(1 0 0 1 40.6752 358.35)" class="st4 st5 st17">r</text>
						<text transform="matrix(1 0 0 1 49.2451 358.35)" class="st4 st5 st17">aine</text>
						<text transform="matrix(1 0 0 1 12.0151 382.77)" class="st4 st5 st17">T</text>
						<text transform="matrix(1 0 0 1 23.6651 382.77)" class="st4 st5 st17">ur</text>
						<text transform="matrix(1 0 0 1 47.2952 382.77)" class="st4 st5 st17">k</text>
						<text transform="matrix(1 0 0 1 59.5751 382.77)" class="st4 st5 st17">e</text>
						<text transform="matrix(1 0 0 1 72.7851 382.77)" class="st4 st5 st17">y</text>
						<text transform="matrix(1 0 0 1 12.0151 407.18)" class="st4 st5 st17 st18">T</text>
						<text transform="matrix(1 0 0 1 23.4151 407.18)" class="st4 st5 st17">ai</text>
						<text transform="matrix(1 0 0 1 43.5852 407.18)" class="st4 st5 st17">w</text>
						<text transform="matrix(1 0 0 1 60.7952 407.18)" class="st4 st5 st17">an</text>
						<text transform="matrix(1 0 0 1 12.0151 431.6)" class="st4 st5 st17">Thai</text>
						<text transform="matrix(1 0 0 1 59.1152 431.6)" class="st4 st5 st17">l</text>
						<text transform="matrix(1 0 0 1 66.1452 431.6)" class="st4 st5 st17">and</text>
						<text transform="matrix(1 0 0 1 12.0151 456.02)" class="st4 st5 st17">Vietnam</text>
						<text transform="matrix(1 0 0 1 12.6251 159.34)" class="st19 st20 st21">The s</text>
						<text transform="matrix(1 0 0 1 89.1851 159.34)" class="st19 st20 st21">ev</text>
						<text transform="matrix(1 0 0 1 122.7951 159.34)" class="st19 st20 st21">en</text>
						<text transform="matrix(1 0 0 1 12.6251 197.8)" class="st19 st20 st21">main</text>
						<text transform="matrix(1 0 0 1 12.6251 236.25)" class="st19 st20 st21">c</text>
						<text transform="matrix(1 0 0 1 27.3352 236.25)" class="st19 st20 st21">ountries</text>
						<text transform="matrix(1 0 0 1 12.6251 274.71)" class="st19 st20 st21">E</text>
						<text transform="matrix(1 0 0 1 29.1251 274.71)" class="st19 st20 st21">a</text>
						<text transform="matrix(1 0 0 1 46.3652 274.71)" class="st19 st20 st21">s</text>
						<text transform="matrix(1 0 0 1 61.8452 274.71)" class="st19 st20 st21">t</text>
						<text transform="matrix(1 0 0 1 73.6351 274.71)" class="st19 st20 st21">ern</text>
					</g>
				</g>
			</g>
		</g>
	</g>
</g>
</svg>
