<?xml version="1.0" encoding="utf-8"?>
<!-- Generator: Adobe Illustrator 24.1.0, SVG Export Plug-In . SVG Version: 6.00 Build 0)  -->
<svg version="1.1" id="Capa_1" xmlns="http://www.w3.org/2000/svg" xmlns:xlink="http://www.w3.org/1999/xlink" x="0px" y="0px"
	 viewBox="0 0 904.5 603.3" style="enable-background:new 0 0 904.5 603.3;" xml:space="preserve">
<style type="text/css">
	.st0{fill:#A48A7B;}
	.st1{clip-path:url(#SVGID_2_);}
	.st2{clip-path:url(#SVGID_4_);}
	.st3{fill:#634E42;}
	.st4{font-family:'FiraSans-Regular';}
	.st5{font-size:21.36px;}
	.st6{fill:none;stroke:#B8B8DB;stroke-width:1.33;stroke-miterlimit:10;}
	.st7{font-size:24.42px;}
	.st8{fill:#FFFFFF;}
	.st9{fill:none;stroke:#FFFFFF;stroke-width:2.81;stroke-linecap:round;stroke-linejoin:bevel;}
	.st10{font-size:27.59px;}
	.st11{font-size:30.52px;}
	.st12{font-size:36.62px;}
	.st13{fill:#D88100;}
	.st14{font-family:'FiraSans-Bold';}
	.st15{font-size:32.05px;}
	.st16{fill:none;stroke:#000000;stroke-width:2.82;stroke-linecap:round;stroke-linejoin:bevel;}
</style>
<g>
	<g id="Capa_2_1_">
		<g id="iphone_6_7_8_plus_portrait">
			<g id="_03_El_Fraude_copia">
				<g id="Seccion_2">
					<g id="graph_1_Fr">
						
							<image style="overflow:visible;opacity:0.65;enable-background:new    ;" width="593" height="389" xlink:href="71D72592BD435616.png"  transform="matrix(1 0 0 1 311.51 125.42)">
						</image>
						<rect x="332.4" y="138.3" class="st0" width="559.6" height="355"/>
						<g>
							<defs>
								<rect id="SVGID_1_" x="332.4" y="138.3" width="559.6" height="355"/>
							</defs>
							<clipPath id="SVGID_2_">
								<use xlink:href="#SVGID_1_"  style="overflow:visible;"/>
							</clipPath>
							<g class="st1">
								<g id="Honey_jar_05.psd">
									<g>
										<defs>
											<rect id="SVGID_3_" x="277.6" y="-15.3" width="650.6" height="631.5"/>
										</defs>
										<clipPath id="SVGID_4_">
											<use xlink:href="#SVGID_3_"  style="overflow:visible;"/>
										</clipPath>
										<g class="st2">
											
												<image style="overflow:visible;enable-background:new    ;" width="900" height="1542" id="Capa_2-2" xlink:href="71D72592BD43561A.png"  transform="matrix(-0.67 0 0 0.39 904.21 0)">
											</image>
										</g>
									</g>
								</g>
							</g>
						</g>
						<g id="x_copia_12">
							<text transform="matrix(1 0 0 1 345.88 531.45)" class="st3 st4 st5">20</text>
							<text transform="matrix(1 0 0 1 368.38 531.45)" class="st3 st4 st5">0</text>
							<text transform="matrix(1 0 0 1 379.87 531.45)" class="st3 st4 st5">7</text>
							<text transform="matrix(1 0 0 1 411.61 531.45)" class="st3 st4 st5">2008</text>
							<text transform="matrix(1 0 0 1 485.05 531.45)" class="st3 st4 st5">20</text>
							<text transform="matrix(1 0 0 1 507.55 531.45)" class="st3 st4 st5">0</text>
							<text transform="matrix(1 0 0 1 519.25 531.45)" class="st3 st4 st5">9</text>
							<text transform="matrix(1 0 0 1 553.52 531.45)" class="st3 st4 st5">2</text>
							<text transform="matrix(1 0 0 1 564.1 531.45)" class="st3 st4 st5">0</text>
							<text transform="matrix(1 0 0 1 575.48 531.45)" class="st3 st4 st5">10</text>
							<text transform="matrix(1 0 0 1 628.19 531.45)" class="st3 st4 st5">2</text>
							<text transform="matrix(1 0 0 1 638.77 531.45)" class="st3 st4 st5">0</text>
							<text transform="matrix(1 0 0 1 650.15 531.45)" class="st3 st4 st5">1</text>
							<text transform="matrix(1 0 0 1 659.1 531.45)" class="st3 st4 st5">1</text>
							<text transform="matrix(1 0 0 1 694.3 531.45)" class="st3 st4 st5">2</text>
							<text transform="matrix(1 0 0 1 704.88 531.45)" class="st3 st4 st5">0</text>
							<text transform="matrix(1 0 0 1 716.26 531.45)" class="st3 st4 st5">12</text>
							<text transform="matrix(1 0 0 1 766.14 531.45)" class="st3 st4 st5">2</text>
							<text transform="matrix(1 0 0 1 776.72 531.45)" class="st3 st4 st5">0</text>
							<text transform="matrix(1 0 0 1 788.1 531.45)" class="st3 st4 st5">13</text>
							<text transform="matrix(1 0 0 1 835.41 531.45)" class="st3 st4 st5">2</text>
							<text transform="matrix(1 0 0 1 845.99 531.45)" class="st3 st4 st5">0</text>
							<text transform="matrix(1 0 0 1 857.37 531.45)" class="st3 st4 st5">14</text>
						</g>
						<g id="y_copia_12">
							<text transform="matrix(1 0 0 1 264.51 182.06)" class="st3 st4 st5">180 K</text>
							<text transform="matrix(1 0 0 1 264.9 217.48)" class="st3 st4 st5">160 K</text>
							<text transform="matrix(1 0 0 1 264.92 252.9)" class="st3 st4 st5">140 K</text>
							<text transform="matrix(1 0 0 1 265.71 288.32)" class="st3 st4 st5">120 K</text>
							<text transform="matrix(1 0 0 1 264.36 323.75)" class="st3 st4 st5">100 K</text>
							<text transform="matrix(1 0 0 1 273.77 359.17)" class="st3 st4 st5">80 K</text>
							<text transform="matrix(1 0 0 1 274.15 394.59)" class="st3 st4 st5">60 K</text>
							<text transform="matrix(1 0 0 1 274.17 430.02)" class="st3 st4 st5">40 K</text>
							<text transform="matrix(1 0 0 1 274.96 465.44)" class="st3 st4 st5">20 K</text>
						</g>
						<line class="st6" x1="403.1" y1="138.3" x2="403.1" y2="493.3"/>
						<line class="st6" x1="472.8" y1="138.3" x2="472.8" y2="493.3"/>
						<line class="st6" x1="542.4" y1="138.3" x2="542.4" y2="493.3"/>
						<line class="st6" x1="612" y1="138.3" x2="612" y2="493.3"/>
						<line class="st6" x1="681.7" y1="138.3" x2="681.7" y2="493.3"/>
						<line class="st6" x1="751.3" y1="138.3" x2="751.3" y2="493.3"/>
						<line class="st6" x1="821" y1="138.3" x2="821" y2="493.3"/>
						<text transform="matrix(1 0 0 1 8.0139 306.64)" class="st3 st4 st7">A</text>
						<text transform="matrix(1 0 0 1 22.0039 306.64)" class="st3 st4 st7">r</text>
						<text transform="matrix(1 0 0 1 31.0639 306.64)" class="st3 st4 st7">g</text>
						<text transform="matrix(1 0 0 1 43.3639 306.64)" class="st3 st4 st7">entine</text>
						<text transform="matrix(1 0 0 1 8.0139 335.94)" class="st3 st4 st7">M</text>
						<text transform="matrix(1 0 0 1 27.0139 335.94)" class="st3 st4 st7">e</text>
						<text transform="matrix(1 0 0 1 40.0939 335.94)" class="st3 st4 st7">xique</text>
						<text transform="matrix(1 0 0 1 8.0139 365.24)" class="st3 st4 st7">B</text>
						<text transform="matrix(1 0 0 1 22.8539 365.24)" class="st3 st4 st7">r</text>
						<text transform="matrix(1 0 0 1 31.5539 365.24)" class="st3 st4 st7">ésil</text>
						<text transform="matrix(1 0 0 1 8.0139 394.54)" class="st3 st4 st7">C</text>
						<text transform="matrix(1 0 0 1 21.4439 394.54)" class="st3 st4 st7">anada</text>
						<text transform="matrix(1 0 0 1 8.0139 423.84)" class="st3 st4 st7">Uru</text>
						<text transform="matrix(1 0 0 1 47.8139 423.84)" class="st3 st4 st7">g</text>
						<text transform="matrix(1 0 0 1 60.2639 423.84)" class="st3 st4 st7">u</text>
						<text transform="matrix(1 0 0 1 74.4739 423.84)" class="st3 st4 st7">a</text>
						<text transform="matrix(1 0 0 1 87.3939 423.84)" class="st3 st4 st7">y</text>
						<text transform="matrix(1 0 0 1 8.0139 453.14)" class="st3 st4 st7">C</text>
						<text transform="matrix(1 0 0 1 21.4439 453.14)" class="st3 st4 st7">hili</text>
						<text transform="matrix(1 0 0 1 8.0139 482.43)" class="st3 st4 st7">C</text>
						<text transform="matrix(1 0 0 1 21.2739 482.43)" class="st3 st4 st7">u</text>
						<text transform="matrix(1 0 0 1 35.4839 482.43)" class="st3 st4 st7">b</text>
						<text transform="matrix(1 0 0 1 49.7439 482.43)" class="st3 st4 st7">a</text>
						<polygon points="800.4,287.2 830.7,327.3 861,287.2 841,287.2 841,265.5 820.7,265.5 820.7,287.2 						"/>
						<polygon class="st8" points="861,402.7 830.7,362.6 800.4,402.7 820.4,402.7 820.4,424.4 840.6,424.4 840.6,402.7 						"/>
						<line class="st9" x1="363.6" y1="478" x2="853.9" y2="478"/>
						<text transform="matrix(1 0 0 1 615.59 276.64)" class="st4 st10">Expor</text>
						<text transform="matrix(1 0 0 1 686.87 276.64)" class="st4 st10">t</text>
						<text transform="matrix(1 0 0 1 696.64 276.64)" class="st4 st10">ations</text>
						<text transform="matrix(1 0 0 1 615.59 301.47)" class="st4 st10">(</text>
						<text transform="matrix(1 0 0 1 624.53 301.47)" class="st4 st10">t</text>
						<text transform="matrix(1 0 0 1 634.07 301.47)" class="st4 st10">onnes)</text>
						<text transform="matrix(1 0 0 1 613.64 434.9)" class="st8 st4 st11">Quanti</text>
						<text transform="matrix(1 0 0 1 706.6 434.9)" class="st8 st4 st11">t</text>
						<text transform="matrix(1 0 0 1 717.16 434.9)" class="st8 st4 st11">é</text>
						<text transform="matrix(1 0 0 1 613.64 462.37)" class="st8 st4 st11">ruches</text>
						<text transform="matrix(1 0 0 1 794.66 255.96)" class="st4 st12">-</text>
						<text transform="matrix(1 0 0 1 809.05 255.96)" class="st4 st12">9%</text>
						<text transform="matrix(1 0 0 1 806.41 460.21)" class="st8 st4 st12">3%</text>
						<text transform="matrix(1 0 0 1 8.0139 156.65)" class="st13 st14 st15">L</text>
						<text transform="matrix(1 0 0 1 23.6539 156.65)" class="st13 st14 st15">es sept</text>
						<text transform="matrix(1 0 0 1 8.0139 195.11)" class="st13 st14 st15">princi</text>
						<text transform="matrix(1 0 0 1 91.9039 195.11)" class="st13 st14 st15">p</text>
						<text transform="matrix(1 0 0 1 110.7239 195.11)" class="st13 st14 st15">aux</text>
						<text transform="matrix(1 0 0 1 8.0139 233.56)" class="st13 st14 st15">l</text>
						<text transform="matrix(1 0 0 1 17.3739 233.56)" class="st13 st14 st15">es </text>
						<text transform="matrix(1 0 0 1 58.1339 233.56)" class="st13 st14 st15">p</text>
						<text transform="matrix(1 0 0 1 76.9439 233.56)" class="st13 st14 st15">a</text>
						<text transform="matrix(1 0 0 1 94.0239 233.56)" class="st13 st14 st15">y</text>
						<text transform="matrix(1 0 0 1 110.3339 233.56)" class="st13 st14 st15">s</text>
						<text transform="matrix(1 0 0 1 8.0139 272.02)" class="st13 st14 st15">d</text>
						<text transform="matrix(1 0 0 1 27.2439 272.02)" class="st13 st14 st15">&apos;</text>
						<text transform="matrix(1 0 0 1 33.9039 272.02)" class="st13 st14 st15">Amérique</text>
						<polyline class="st16" points="361.6,196.9 433,177 501.5,240.2 572.9,247.2 646.5,209.9 715.1,193.9 784.8,219.3 
							855.7,220.3 						"/>
					</g>
				</g>
			</g>
		</g>
	</g>
</g>
</svg>
