<?xml version="1.0" encoding="utf-8"?>
<!-- Generator: Adobe Illustrator 23.0.2, SVG Export Plug-In . SVG Version: 6.00 Build 0)  -->
<svg version="1.1" id="Capa_1" xmlns="http://www.w3.org/2000/svg" xmlns:xlink="http://www.w3.org/1999/xlink" x="0px" y="0px"
	 viewBox="0 0 720 673" style="enable-background:new 0 0 720 673;" xml:space="preserve">
<style type="text/css">
	.st0{fill:#FFF8DC;}
	.st1{clip-path:url(#SVGID_2_);}
	.st2{clip-path:url(#SVGID_4_);}
</style>
<title>Recurso 11</title>
<g>
	<g>
		<g id="Page_1-_Inicio">
			<g id="Sector_4">
				<g id="Sector_4_2">
					<rect y="-1" class="st0" width="720" height="673"/>
					<g id="PiOcaH">
						
							<image style="overflow:visible;opacity:0.75;enable-background:new    ;" width="353" height="152" xlink:href="601A945F.png"  transform="matrix(0.9934 0 0 0.9934 237.9412 471.28)">
						</image>
						
							<image style="overflow:visible;enable-background:new    ;" width="907" height="313" id="PiOcaH-2" xlink:href="601A945D.png"  transform="matrix(0.3378 0 0 0.3378 267.0652 488.24)">
						</image>
					</g>
					<g id="DGu1dv">
						
							<image style="overflow:visible;opacity:0.75;enable-background:new    ;" width="442" height="165" xlink:href="601A9463.png"  transform="matrix(0.9939 0 0 0.9939 149.1194 332.28)">
						</image>
						
							<image style="overflow:visible;enable-background:new    ;" width="1154" height="343" id="DGu1dv-2" xlink:href="601A9465.png"  transform="matrix(0.339 0 0 0.339 177.6319 349.39)">
						</image>
					</g>
					<g id="fNzZ1m">
						
							<image style="overflow:visible;opacity:0.75;enable-background:new    ;" width="416" height="190" xlink:href="601A9467.png"  transform="matrix(0.9947 0 0 0.9947 174.8747 169.28)">
						</image>
						
							<image style="overflow:visible;enable-background:new    ;" width="1013" height="392" id="fNzZ1m-2" xlink:href="601A9464.png"  transform="matrix(0.3591 0 0 0.3591 203.1852 186.48)">
						</image>
					</g>
					<g id="Capa_24">
						
							<image style="overflow:visible;opacity:0.75;enable-background:new    ;" width="485" height="245" xlink:href="601A946C.png"  transform="matrix(0.9959 0 0 0.9959 105.7698 5.28)">
						</image>
						<g>
							<defs>
								<rect id="SVGID_1_" x="133.9" y="71.6" width="437.2" height="37.3"/>
							</defs>
							<clipPath id="SVGID_2_">
								<use xlink:href="#SVGID_1_"  style="overflow:visible;"/>
							</clipPath>
							<g class="st1">
								<g id="aTZaMX">
									<g id="aTZaMX-2" transform="translate(133.89 91.58) scale(0.36)">
										
											<image style="overflow:visible;enable-background:new    ;" width="1228" height="417" id="image" xlink:href="601A946D.png"  transform="matrix(0.3583 0 0 0.3583 134.4101 71.58)">
										</image>
									</g>
								</g>
							</g>
						</g>
						<g>
							<defs>
								<rect id="SVGID_3_" x="133.9" y="107" width="437.2" height="63.8"/>
							</defs>
							<clipPath id="SVGID_4_">
								<use xlink:href="#SVGID_3_"  style="overflow:visible;"/>
							</clipPath>
							<g class="st2">
								<g id="aTZaMX-3">
									<g id="aTZaMX-4" transform="translate(133.89 42.71) scale(0.36)">
										
											<image style="overflow:visible;enable-background:new    ;" width="1228" height="417" xlink:href="601A946F.png"  transform="matrix(0.3583 0 0 0.3583 134.4101 22.71)">
										</image>
									</g>
								</g>
							</g>
						</g>
					</g>
				</g>
			</g>
		</g>
	</g>
</g>
</svg>
