<?xml version="1.0" encoding="utf-8"?>
<!-- Generator: Adobe Illustrator 24.1.0, SVG Export Plug-In . SVG Version: 6.00 Build 0)  -->
<svg version="1.1" id="Capa_1" xmlns="http://www.w3.org/2000/svg" xmlns:xlink="http://www.w3.org/1999/xlink" x="0px" y="0px"
	 viewBox="0 0 720 303" style="enable-background:new 0 0 720 303;" xml:space="preserve">
<style type="text/css">
	.st0{fill:#A48A7B;}
	.st1{clip-path:url(#SVGID_4_);}
	.st2{clip-path:url(#SVGID_6_);}
	.st3{fill:none;stroke:#B8B8DB;stroke-width:1.33;stroke-miterlimit:10;}
	.st4{fill:#D88100;}
	.st5{font-family:'FiraSans-Bold';}
	.st6{font-size:15.1px;}
	.st7{fill:none;stroke:#000000;stroke-width:2.82;stroke-linecap:round;stroke-linejoin:bevel;}
	.st8{fill:none;stroke:#FFFFFF;stroke-width:2.81;stroke-linecap:round;stroke-linejoin:bevel;}
	.st9{fill:#634E42;}
	.st10{font-family:'FiraSans-Regular';}
	.st11{font-size:10.07px;}
	.st12{font-size:13px;}
	.st13{fill:#FFFFFF;}
	.st14{font-size:14.38px;}
	.st15{font-size:17.26px;}
	.st16{font-size:11.51px;}
</style>
<g id="Seccion_03">
	<g>
		<g>
			<g id="Honey_jar_05.psd">
				<g>
					<defs>
						<line id="SVGID_1_" x1="290.6" y1="253.4" x2="597.5" y2="253.4"/>
					</defs>
					<clipPath id="SVGID_2_">
						<use xlink:href="#SVGID_1_"  style="overflow:visible;"/>
					</clipPath>
				</g>
			</g>
		</g>
	</g>
	
		<image style="overflow:visible;opacity:0.65;enable-background:new    ;" width="299" height="202" xlink:href="51B1F478BDD8B8F8.png"  transform="matrix(0.995 0 0 0.995 295.7501 52.88)">
	</image>
	<rect x="316.7" y="65.2" class="st0" width="263.7" height="167.3"/>
	<g>
		<defs>
			<rect id="SVGID_3_" x="316.7" y="65.2" width="263.7" height="167.3"/>
		</defs>
		<clipPath id="SVGID_4_">
			<use xlink:href="#SVGID_3_"  style="overflow:visible;"/>
		</clipPath>
		<g class="st1">
			<g id="Honey_jar_05.psd-2">
				<g>
					<defs>
						<rect id="SVGID_5_" x="290.9" y="-7.2" width="306.6" height="297.6"/>
					</defs>
					<clipPath id="SVGID_6_">
						<use xlink:href="#SVGID_5_"  style="overflow:visible;"/>
					</clipPath>
					<g class="st2">
						<g id="Capa_2-3" transform="matrix(-0.32, 0, 0, 0.18, 586.15, 7.19)">
							
								<image style="overflow:visible;enable-background:new    ;" width="900" height="1542" id="image_2_" xlink:href="51B1F478BDD8B8F9.png"  transform="matrix(-0.32 0 0 0.18 586.15 7.19)">
							</image>
						</g>
					</g>
				</g>
			</g>
		</g>
	</g>
	<line class="st3" x1="350" y1="65.2" x2="350" y2="232.4"/>
	<line class="st3" x1="382.9" y1="65.2" x2="382.9" y2="232.4"/>
	<line class="st3" x1="415.7" y1="65.2" x2="415.7" y2="232.4"/>
	<line class="st3" x1="448.5" y1="65.2" x2="448.5" y2="232.4"/>
	<line class="st3" x1="481.3" y1="65.2" x2="481.3" y2="232.4"/>
	<line class="st3" x1="514.1" y1="65.2" x2="514.1" y2="232.4"/>
	<line class="st3" x1="546.9" y1="65.2" x2="546.9" y2="232.4"/>
	<text transform="matrix(1 0 0 1 60.16 73.83)" class="st4 st5 st6">L</text>
	<text transform="matrix(1 0 0 1 67.53 73.83)" class="st4 st5 st6">os sie</text>
	<text transform="matrix(1 0 0 1 107.11 73.83)" class="st4 st5 st6">t</text>
	<text transform="matrix(1 0 0 1 112.67 73.83)" class="st4 st5 st6">e</text>
	<text transform="matrix(1 0 0 1 60.16 91.95)" class="st4 st5 st6">princi</text>
	<text transform="matrix(1 0 0 1 99.69 91.95)" class="st4 st5 st6">pa</text>
	<text transform="matrix(1 0 0 1 116.68 91.95)" class="st4 st5 st6">l</text>
	<text transform="matrix(1 0 0 1 121.09 91.95)" class="st4 st5 st6">es</text>
	<text transform="matrix(1 0 0 1 60.16 110.07)" class="st4 st5 st6">p</text>
	<text transform="matrix(1 0 0 1 69.02 110.07)" class="st4 st5 st6">aíses</text>
	<text transform="matrix(1 0 0 1 60.16 128.19)" class="st4 st5 st6">de Améri</text>
	<text transform="matrix(1 0 0 1 121.45 128.19)" class="st4 st5 st6">c</text>
	<text transform="matrix(1 0 0 1 128.54 128.19)" class="st4 st5 st6">a</text>
	<polyline class="st7" points="330.4,92.8 364.1,83.4 396.4,113.2 430,116.5 464.7,98.9 497.1,91.4 529.9,103.4 563.3,103.8 	"/>
	<line class="st8" x1="331.4" y1="225.3" x2="562.4" y2="225.3"/>
	<text transform="matrix(1 0 0 1 284.71 85.8)" class="st9 st10 st11">180 K</text>
	<text transform="matrix(1 0 0 1 450.15 130.37)" class="st10 st12">Expor</text>
	<text transform="matrix(1 0 0 1 483.74 130.37)" class="st10 st12">t</text>
	<text transform="matrix(1 0 0 1 488.34 130.37)" class="st10 st12">aciones</text>
	<text transform="matrix(1 0 0 1 450.15 142.07)" class="st10 st12">(</text>
	<text transform="matrix(1 0 0 1 454.36 142.07)" class="st10 st12">t</text>
	<text transform="matrix(1 0 0 1 458.86 142.07)" class="st10 st12">one</text>
	<text transform="matrix(1 0 0 1 481.15 142.07)" class="st10 st12">l</text>
	<text transform="matrix(1 0 0 1 484.9 142.07)" class="st10 st12">ad</text>
	<text transform="matrix(1 0 0 1 499.74 142.07)" class="st10 st12">a</text>
	<text transform="matrix(1 0 0 1 506.69 142.07)" class="st10 st12">s)</text>
	<text transform="matrix(1 0 0 1 449.23 204.95)" class="st13 st10 st14">C</text>
	<text transform="matrix(1 0 0 1 457.14 204.95)" class="st13 st10 st14">antidad</text>
	<text transform="matrix(1 0 0 1 449.23 217.89)" class="st13 st10 st14">de </text>
	<text transform="matrix(1 0 0 1 469.48 217.89)" class="st13 st10 st14">c</text>
	<text transform="matrix(1 0 0 1 476.07 217.89)" class="st13 st10 st14">olmen</text>
	<text transform="matrix(1 0 0 1 517.27 217.89)" class="st13 st10 st14">a</text>
	<text transform="matrix(1 0 0 1 524.95 217.89)" class="st13 st10 st14">s</text>
	<text transform="matrix(1 0 0 1 534.53 120.63)" class="st10 st15">-</text>
	<text transform="matrix(1 0 0 1 541.3101 120.63)" class="st10 st15">9%</text>
	<text transform="matrix(1 0 0 1 540.07 216.88)" class="st13 st10 st15">3%</text>
	<text transform="matrix(1 0 0 1 284.89 102.5)" class="st9 st10 st11">160 K</text>
	<text transform="matrix(1 0 0 1 284.9 119.19)" class="st9 st10 st11">140 K</text>
	<text transform="matrix(1 0 0 1 285.27 135.88)" class="st9 st10 st11">120 K</text>
	<text transform="matrix(1 0 0 1 284.63 152.57)" class="st9 st10 st11">100 K</text>
	<text transform="matrix(1 0 0 1 289.07 169.26)" class="st9 st10 st11">80 K</text>
	<text transform="matrix(1 0 0 1 289.25 185.96)" class="st9 st10 st11">60 K</text>
	<text transform="matrix(1 0 0 1 289.26 202.65)" class="st9 st10 st11">40 K</text>
	<text transform="matrix(1 0 0 1 289.63 219.34)" class="st9 st10 st11">20 K</text>
	<text transform="matrix(1 0 0 1 323.05 250.45)" class="st9 st10 st11">20</text>
	<text transform="matrix(1 0 0 1 333.65 250.45)" class="st9 st10 st11">0</text>
	<text transform="matrix(1 0 0 1 339.07 250.45)" class="st9 st10 st11">7</text>
	<text transform="matrix(1 0 0 1 354.03 250.45)" class="st9 st10 st11">2008</text>
	<text transform="matrix(1 0 0 1 388.63 250.45)" class="st9 st10 st11">20</text>
	<text transform="matrix(1 0 0 1 399.23 250.45)" class="st9 st10 st11">0</text>
	<text transform="matrix(1 0 0 1 404.75 250.45)" class="st9 st10 st11">9</text>
	<text transform="matrix(1 0 0 1 420.9 250.45)" class="st9 st10 st11">2</text>
	<text transform="matrix(1 0 0 1 425.88 250.45)" class="st9 st10 st11">0</text>
	<text transform="matrix(1 0 0 1 431.25 250.45)" class="st9 st10 st11">10</text>
	<text transform="matrix(1 0 0 1 456.09 250.45)" class="st9 st10 st11">2</text>
	<text transform="matrix(1 0 0 1 461.07 250.45)" class="st9 st10 st11">0</text>
	<text transform="matrix(1 0 0 1 466.44 250.45)" class="st9 st10 st11">1</text>
	<text transform="matrix(1 0 0 1 470.66 250.45)" class="st9 st10 st11">1</text>
	<text transform="matrix(1 0 0 1 487.24 250.45)" class="st9 st10 st11">2</text>
	<text transform="matrix(1 0 0 1 492.22 250.45)" class="st9 st10 st11">0</text>
	<text transform="matrix(1 0 0 1 497.59 250.45)" class="st9 st10 st11">12</text>
	<text transform="matrix(1 0 0 1 521.09 250.45)" class="st9 st10 st11">2</text>
	<text transform="matrix(1 0 0 1 526.07 250.45)" class="st9 st10 st11">0</text>
	<text transform="matrix(1 0 0 1 531.44 250.45)" class="st9 st10 st11">13</text>
	<text transform="matrix(1 0 0 1 553.73 250.45)" class="st9 st10 st11">2</text>
	<text transform="matrix(1 0 0 1 558.71 250.45)" class="st9 st10 st11">0</text>
	<text transform="matrix(1 0 0 1 564.08 250.45)" class="st9 st10 st11">14</text>
	<polygon class="st13" points="565.8,189.8 551.5,170.9 537.2,189.8 546.7,189.8 546.7,200 556.2,200 556.2,189.8 	"/>
	<polygon points="537.2,135.4 551.5,154.2 565.8,135.4 556.3,135.4 556.3,125.1 546.8,125.1 546.8,135.4 	"/>
	<text transform="matrix(1 0 0 1 60.16 144.51)" class="st9 st10 st16">A</text>
	<text transform="matrix(1 0 0 1 66.75 144.51)" class="st9 st10 st16">r</text>
	<text transform="matrix(1 0 0 1 71.02 144.51)" class="st9 st10 st16">g</text>
	<text transform="matrix(1 0 0 1 76.82 144.51)" class="st9 st10 st16">entina</text>
	<text transform="matrix(1 0 0 1 60.16 158.32)" class="st9 st10 st16">M</text>
	<text transform="matrix(1 0 0 1 69.11 158.32)" class="st9 st10 st16">é</text>
	<text transform="matrix(1 0 0 1 75.28 158.32)" class="st9 st10 st16">xi</text>
	<text transform="matrix(1 0 0 1 84.1 158.32)" class="st9 st10 st16">c</text>
	<text transform="matrix(1 0 0 1 89.37 158.32)" class="st9 st10 st16">o</text>
	<text transform="matrix(1 0 0 1 60.16 172.12)" class="st9 st10 st16">B</text>
	<text transform="matrix(1 0 0 1 67.16 172.12)" class="st9 st10 st16">r</text>
	<text transform="matrix(1 0 0 1 71.19 172.12)" class="st9 st10 st16">a</text>
	<text transform="matrix(1 0 0 1 77.34 172.12)" class="st9 st10 st16">sil</text>
	<text transform="matrix(1 0 0 1 60.16 185.93)" class="st9 st10 st16">C</text>
	<text transform="matrix(1 0 0 1 66.49 185.93)" class="st9 st10 st16">anadá</text>
	<text transform="matrix(1 0 0 1 60.16 199.74)" class="st9 st10 st16">Uru</text>
	<text transform="matrix(1 0 0 1 78.91 199.74)" class="st9 st10 st16">g</text>
	<text transform="matrix(1 0 0 1 84.78 199.74)" class="st9 st10 st16">u</text>
	<text transform="matrix(1 0 0 1 91.48 199.74)" class="st9 st10 st16">a</text>
	<text transform="matrix(1 0 0 1 97.56 199.74)" class="st9 st10 st16">y</text>
	<text transform="matrix(1 0 0 1 60.16 213.54)" class="st9 st10 st16">C</text>
	<text transform="matrix(1 0 0 1 66.49 213.54)" class="st9 st10 st16">hi</text>
	<text transform="matrix(1 0 0 1 76.47 213.54)" class="st9 st10 st16">l</text>
	<text transform="matrix(1 0 0 1 79.79 213.54)" class="st9 st10 st16">e</text>
	<text transform="matrix(1 0 0 1 60.16 227.35)" class="st9 st10 st16">C</text>
	<text transform="matrix(1 0 0 1 66.41 227.35)" class="st9 st10 st16">u</text>
	<text transform="matrix(1 0 0 1 73.1 227.35)" class="st9 st10 st16">b</text>
	<text transform="matrix(1 0 0 1 79.82 227.35)" class="st9 st10 st16">a</text>
</g>
</svg>
