<?xml version="1.0" encoding="utf-8"?>
<!-- Generator: Adobe Illustrator 24.1.0, SVG Export Plug-In . SVG Version: 6.00 Build 0)  -->
<svg version="1.1" id="Capa_1" xmlns="http://www.w3.org/2000/svg" xmlns:xlink="http://www.w3.org/1999/xlink" x="0px" y="0px"
	 viewBox="0 0 578.5 327.6" style="enable-background:new 0 0 578.5 327.6;" xml:space="preserve">
<style type="text/css">
	.st0{fill:#413D25;}
	.st1{fill:none;stroke:#FFFFFF;stroke-width:0.48;stroke-linejoin:round;}
	.st2{fill:none;stroke:#989898;stroke-width:1.16;stroke-linejoin:round;}
	.st3{fill:none;stroke:#C7C1B8;stroke-width:1.16;stroke-linejoin:round;}
	.st4{fill:#EF7B10;}
	.st5{fill:none;}
	.st6{fill:#FCC24F;}
	.st7{fill:#B35D00;}
	.st8{fill:#FCD2A0;}
	.st9{font-family:'BodoniSvtyTwoITCTT-Book';}
	.st10{font-size:15.3px;}
	.st11{font-size:13.39px;}
	.st12{fill:#776DB0;}
	.st13{font-family:'BodoniSvtyTwoITCTT-Bold';}
	.st14{font-size:17.21px;}
	.st15{font-size:22.85px;}
</style>
<g>
	<g id="Capa_2_1_">
		<g id="_04_Import_Export">
			<g id="Seccion_03">
				
					<image style="overflow:visible;opacity:0.75;enable-background:new    ;" width="536" height="281" xlink:href="E9C1E065ADCB5453.png"  transform="matrix(0.9964 0 0 0.9964 43.9937 12.9)">
				</image>
				<rect x="76.2" y="32.8" class="st0" width="485.9" height="230"/>
				<path class="st1" d="M76.5,33.2H562 M76.5,56.1H562 M76.5,79H562 M76.5,101.8H562 M76.5,124.8H562 M76.5,147.6H562 M76.5,170.5
					H562 M76.5,193.4H562 M76.5,216.3H562 M76.5,240.2H562"/>
				<path class="st1" d="M562,33.2v229.6 M532.2,33.2v229.6 M500.9,33.2v229.6 M471,33.2v229.6 M441,33.2v229.6 M409.8,33.2v229.6
					 M379.9,33.2v229.6 M349.9,33.2v229.6 M318.6,33.2v229.6 M288.7,33.2v229.6 M258.8,33.2v229.6 M227.5,33.2v229.6 M197.6,33.2
					v229.6 M167.6,33.2v229.6 M136.4,33.2v229.6 M106.4,33.2v229.6"/>
				<line class="st2" x1="76.2" y1="262.8" x2="76.2" y2="32.8"/>
				<path class="st3" d="M72.6,33.2h3.6 M72.6,56.1h3.6 M72.6,79h3.6 M72.6,101.9h3.6 M72.6,124.8h3.6 M72.6,147.7h3.6 M72.6,170.6
					h3.6 M72.6,193.5h3.6 M72.6,216.3h3.6 M72.6,240.3h3.6 M72.6,262.8h3.6"/>
				<line class="st2" x1="76.2" y1="262.8" x2="562" y2="262.8"/>
				<path class="st2" d="M562,263.1v2.9 M532.2,263.1v2.9 M500.9,263.1v2.9 M471,263.1v2.9 M441,263.1v2.9 M409.8,263.1v2.9
					 M379.8,263.1v2.9 M349.9,263.1v2.9 M318.6,263.1v2.9 M288.7,263.1v2.9 M258.8,263.1v2.9 M227.5,263.1v2.9 M197.6,263.1v2.9
					 M167.6,263.1v2.9 M136.4,263.1v2.9 M106.4,263.1v2.9 M76.5,263.1v2.9"/>
				<path class="st4" d="M90.8,235.1c-1.6,0-2.9-1.3-2.9-2.9c0-0.6,0.2-1.3,0.6-1.8l31.2-39.5l0.1-0.2c0.2-0.3,0.5-0.5,0.8-0.6
					c0.4-0.2,0.8-0.3,1.2-0.3c0.4,0,0.8,0.1,1.2,0.2c0.3,0.1,0.6,0.3,0.8,0.5l0.2,0.1l28.7,28.9l28-8.8l31-16.5
					c0.5-0.3,1-0.4,1.5-0.4l29.3,1l29.3-11.2l0.1-0.1h0.1l31.2-9.3c0.2-0.1,0.4-0.1,0.6-0.1c0.2,0,0.4,0,0.6,0l29,2l28.9-16l31-30.9
					l0,0l0,0c0.2-0.2,0.5-0.4,0.8-0.6l0,0c0.4-0.1,0.8-0.2,1.2-0.2l0,0c0.4,0,0.8,0.1,1.2,0.3l0,0c0.3,0.1,0.5,0.3,0.8,0.6l0.1,0.1
					l27.1,29.2l28.2-55.7L484,40.6c0.1-0.2,0.3-0.5,0.5-0.7l0,0c0.2-0.3,0.5-0.5,0.8-0.6c0.3-0.2,0.7-0.3,1.1-0.3
					c0.4,0,0.8,0,1.2,0.2c0.3,0.1,0.6,0.3,0.9,0.5c0.2,0.2,0.4,0.4,0.5,0.6l28.8,45.1l28-6.8c1.6-0.3,3.1,0.7,3.4,2.3
					c0.3,1.5-0.6,2.9-2,3.3l-29.9,7.3c-0.2,0.1-0.4,0.1-0.6,0.1c-0.4,0-0.8-0.1-1.2-0.2c-0.4-0.2-0.7-0.4-1-0.7
					c-0.1-0.1-0.3-0.3-0.4-0.5l-27.2-42.5l-29,57.9l0,0L428,164.8c-0.1,0.2-0.2,0.3-0.3,0.5c-0.2,0.3-0.5,0.5-0.7,0.7
					c-1,0.7-2.3,0.6-3.3-0.1c-0.2-0.1-0.3-0.2-0.4-0.4l-27.9-30l-29.1,29.1c-0.1,0.1-0.2,0.2-0.4,0.3c-0.1,0.1-0.3,0.2-0.4,0.2
					l-29.9,16.6c-0.2,0.1-0.5,0.2-0.8,0.3c-0.3,0.1-0.6,0.1-0.9,0.1l-29.4-2l-30.6,9.1l-29.8,11.4c-0.2,0.1-0.4,0.1-0.6,0.2
					c-0.2,0-0.4,0-0.6,0l-29.1-1L183.3,216l-0.3,0.1l-0.3,0.1l-29.8,9.3c-0.1,0-0.2,0.1-0.4,0.1c-0.4,0.1-0.8,0.1-1.2,0
					c-0.4-0.1-0.8-0.3-1.1-0.5c-0.1-0.1-0.2-0.2-0.3-0.3L122.3,197L93,234C92.5,234.7,91.7,235.1,90.8,235.1z"/>
				<rect x="75.2" y="32.5" class="st5" width="487" height="231"/>
				<path class="st6" d="M90.8,265.5c-1.6,0-2.9-1.3-2.9-2.8c0-1.2,0.7-2.3,1.9-2.7l31.2-11l0,0l30-10.4l0,0l29.9-10.4
					c0.1-0.1,0.3-0.1,0.4-0.1l0.4-0.1l30.7-3l29.4-15.3l0.2-0.1c0.4-0.1,0.8-0.2,1.2-0.2c0.4,0,0.8,0.1,1.2,0.2l0.2,0.1l28.2,14.7
					l29.8-23.8c0.2-0.1,0.4-0.3,0.6-0.4l0,0c0.4-0.2,0.8-0.3,1.2-0.3h28.9l28.9-24.1l31.1-38.3l0,0l0,0c0.1-0.2,0.3-0.3,0.5-0.5h0
					c0.4-0.3,0.9-0.5,1.4-0.5h0.1c0.4,0,0.9,0,1.3,0.2l0,0c0.3,0.1,0.5,0.3,0.7,0.4l0,0l28.3,23.6l28.1-19.5
					c0.2-0.1,0.4-0.2,0.6-0.3c0.8-0.3,1.7-0.3,2.5,0.1c0.2,0.1,0.4,0.2,0.5,0.4l28.2,23.5l28.4-69.2c0.1-0.2,0.2-0.4,0.3-0.6
					c0.4-0.6,1.1-1.1,1.8-1.2c0.4-0.1,0.8-0.1,1.2,0c0.3,0.1,0.6,0.2,0.9,0.4c0.2,0.1,0.3,0.3,0.5,0.4l29.9,31.2
					c1.1,1.1,1.1,3-0.1,4.1s-3,1.1-4.1-0.1l0,0l-26.9-28l-28.2,68.7c-0.1,0.2-0.1,0.3-0.2,0.5c-0.2,0.3-0.4,0.5-0.6,0.7
					c-0.7,0.5-1.5,0.7-2.4,0.6c-0.3-0.1-0.7-0.2-0.9-0.4c-0.1-0.1-0.3-0.2-0.4-0.3l-29.5-24.6L427,166.8c-0.2,0.1-0.4,0.2-0.6,0.3
					c-0.4,0.2-0.8,0.2-1.2,0.2c-0.4,0-0.8-0.1-1.2-0.3c-0.2-0.1-0.4-0.2-0.6-0.4l-27.7-23.1l-29.4,36.2c-0.1,0.1-0.1,0.2-0.2,0.3
					c-0.1,0.1-0.2,0.1-0.2,0.2L336.1,205c-0.1,0.1-0.3,0.2-0.4,0.3l0,0c-0.1,0.1-0.3,0.1-0.4,0.2l0,0c-0.2,0.1-0.3,0.1-0.5,0.1l0,0
					c-0.2,0-0.3,0-0.5,0h-29L274.9,230c-0.1,0.1-0.2,0.2-0.4,0.3c-0.4,0.2-0.8,0.4-1.2,0.4c-0.4,0-0.8,0-1.2-0.1
					c-0.1-0.1-0.3-0.1-0.4-0.2l-28.6-14.9l-28.6,14.9c-0.2,0.1-0.4,0.2-0.6,0.2c-0.2,0.1-0.4,0.1-0.6,0.1l-30.9,3.1L152.9,244l0,0
					L123,254.4l-31.2,11C91.4,265.5,91.1,265.5,90.8,265.5z"/>
				<rect x="75.2" y="32.5" class="st5" width="487" height="231"/>
				<path class="st7" d="M90.8,263.7c-1.6,0-2.8-1.4-2.8-3c0-1.4,1.1-2.6,2.5-2.8l31-2.7l29.7-7.2c0.2,0,0.4-0.1,0.5-0.1
					c0.2,0,0.4,0,0.6,0l29.9,3.1h0.1h0.1l30.9,5.1l29.5-3.1h0.4h0.2l29.9,2.1l0,0l31,2.1l29.7-2h0.4l29.9,1h31l29.5-4.1l29.3-9.1
					l30.8-25.6c0.1-0.1,0.3-0.2,0.4-0.3c0.2-0.1,0.3-0.2,0.5-0.2l29.8-11.4c0.2-0.1,0.4-0.1,0.7-0.2c0.2,0,0.5,0,0.7,0l29.9,2.1
					c1.6,0.2,2.7,1.6,2.5,3.2c-0.2,1.5-1.4,2.6-2.9,2.5l-29.3-2l-28.9,11.1l-30.8,25.7c-0.2,0.1-0.3,0.3-0.5,0.4
					c-0.2,0.1-0.4,0.2-0.6,0.2l-29.8,9.3l-0.3,0.1h-0.3l-29.9,4.2h-0.2h-31.6l-29.8-1l-29.8,2.1h-0.5l-31.2-2.1l0,0l-29.7-2.1
					l-29.7,3.1c-0.1,0-0.3,0-0.4,0c-0.2,0-0.3,0-0.5,0l-31.1-5.2l-29.4-3.1l-29.4,7.1c-0.1,0-0.2,0-0.2,0.1h-0.3L91,263.7
					L90.8,263.7z"/>
				<rect x="75.2" y="32.5" class="st5" width="487" height="231"/>
				<path class="st8" d="M425.4,262h-0.2c-0.1,0-0.3,0-0.4-0.1l-29.6-6.2h-31.1l-29.6-1l-29.5,6.1l-0.4,0.1h-0.4l-31.1-1h-0.2h-0.2
					l-29.5-4.1l-29.4,5.1c-0.1,0-0.2,0-0.3,0H213l-31.1-1H152c-0.3,0-0.5,0-0.8-0.1c-0.3-0.1-0.5-0.2-0.7-0.3l-28.6-15.9L92,257.6
					c-1.5,0.6-3.1-0.1-3.7-1.6c-0.5-1.4,0-2.9,1.3-3.6l31.2-14.6l0.2-0.1c0.4-0.1,0.8-0.2,1.2-0.2c0.4,0,0.8,0.1,1.1,0.3l0.2,0.1
					l29.3,16.3H182l30.9,1l29.6-5.1c0.2,0,0.3-0.1,0.5-0.1c0.2,0,0.3,0,0.5,0l29.7,4.1l30.8,1l29.5-6.2l0.4,0c0.1,0,0.3,0,0.4,0
					l29.8,1h31.1c0.1,0,0.3,0,0.4,0l0.3,0.1l29.5,6.1l29.1-2l30.2-12.1l29.5-32.8l0.1-0.1c0.2-0.2,0.5-0.4,0.7-0.5l0,0
					c0.4-0.2,0.8-0.3,1.2-0.3l0,0c0,0,0.1,0,0.1,0c0.4,0,0.8,0.1,1.2,0.3c0.3,0.1,0.5,0.3,0.8,0.5c0,0,0.1,0.1,0.1,0.1l29.9,30.2
					c1.2,1,1.4,2.8,0.4,4c-1,1.2-2.8,1.4-4,0.4c-0.2-0.1-0.3-0.3-0.4-0.4l-27.8-28l-27.9,31c-0.2,0.2-0.3,0.3-0.5,0.5
					c-0.2,0.1-0.4,0.3-0.6,0.3l-31.1,12.5c-0.2,0.1-0.3,0.1-0.5,0.2c-0.2,0-0.3,0.1-0.5,0.1l-29.8,2.1H425.4z"/>
				<text transform="matrix(1 0 0 1 50.3 267.81)" class="st9 st10">0</text>
				<text transform="matrix(1 0 0 1 30 244.51)" class="st9 st10">5000</text>
				<text transform="matrix(1 0 0 1 23.24 220.28)" class="st9 st10">10000</text>
				<text transform="matrix(1 0 0 1 23.24 197.96)" class="st9 st10">15000</text>
				<text transform="matrix(1 0 0 1 23.24 175.64)" class="st9 st10">20000</text>
				<text transform="matrix(1 0 0 1 23.24 151.41)" class="st9 st10">25000</text>
				<text transform="matrix(1 0 0 1 23.24 129.09)" class="st9 st10">30000</text>
				<text transform="matrix(1 0 0 1 23.24 106.76)" class="st9 st10">35000</text>
				<text transform="matrix(1 0 0 1 23.24 84.45)" class="st9 st10">40000</text>
				<text transform="matrix(1 0 0 1 23.24 62.13)" class="st9 st10">45000</text>
				<text transform="matrix(1 0 0 1 23.24 37.89)" class="st9 st10">50000</text>
				<text transform="matrix(6.123234e-17 -1 1 6.123234e-17 102.17 299.5703)" class="st9 st11">2001</text>
				<text transform="matrix(6.123234e-17 -1 1 6.123234e-17 131.78 299.7695)" class="st9 st11">2002</text>
				<text transform="matrix(6.123234e-17 -1 1 6.123234e-17 161.39 299.5703)" class="st9 st11">2003</text>
				<text transform="matrix(6.123234e-17 -1 1 6.123234e-17 190.99 299.7695)" class="st9 st11">2004</text>
				<text transform="matrix(6.123234e-17 -1 1 6.123234e-17 220.6 299.5703)" class="st9 st11">2005</text>
				<text transform="matrix(6.123234e-17 -1 1 6.123234e-17 250.21 299.5703)" class="st9 st11">2006</text>
				<text transform="matrix(6.123234e-17 -1 1 6.123234e-17 279.82 301.04)" class="st9 st11">2007</text>
				<text transform="matrix(6.123234e-17 -1 1 6.123234e-17 309.43 299.7695)" class="st9 st11">2008</text>
				<text transform="matrix(6.123234e-17 -1 1 6.123234e-17 339.03 299.5703)" class="st9 st11">2009</text>
				<text transform="matrix(6.123234e-17 -1 1 6.123234e-17 368.64 299.7695)" class="st9 st11">2010</text>
				<text transform="matrix(6.123234e-17 -1 1 6.123234e-17 398.25 299.5703)" class="st9 st11">2011</text>
				<text transform="matrix(6.123234e-17 -1 1 6.123234e-17 427.86 299.7695)" class="st9 st11">2012</text>
				<text transform="matrix(6.123234e-17 -1 1 6.123234e-17 457.46 299.5703)" class="st9 st11">2013</text>
				<text transform="matrix(6.123234e-17 -1 1 6.123234e-17 487.07 299.7695)" class="st9 st11">2014</text>
				<text transform="matrix(6.123234e-17 -1 1 6.123234e-17 516.68 299.5703)" class="st9 st11">2015</text>
				<text transform="matrix(6.123234e-17 -1 1 6.123234e-17 546.29 299.5703)" class="st9 st11">2016</text>
				<text transform="matrix(6.123234e-17 -1 1 6.123234e-17 14.61 263.1396)" class="st12 st13 st14">Toneladas</text>
				<text transform="matrix(1 0 0 1 54.05 296.43)" class="st12 st13 st14">Año</text>
				<text transform="matrix(1 0 0 1 71.75 19.4)" class="st13 st15">7. </text>
				<text transform="matrix(1 0 0 1 94.39 19.4)" class="st0 st13 st15">Crecimiento anormal de importaciones en E.U.A.</text>
				<path class="st4" d="M188.6,322.6h-24.4c-1.6,0-2.9-1.3-2.9-2.9c0-1.6,1.3-2.9,2.9-2.9h24.4c1.6,0,2.9,1.3,2.9,2.9
					C191.5,321.3,190.2,322.6,188.6,322.6z"/>
				<text transform="matrix(1 0 0 1 193.43 322.91)" class="st9 st14">Viet Nam</text>
				<path class="st6" d="M307.3,322.5h-24.4c-1.6,0-2.9-1.3-2.9-2.9c0-1.6,1.3-2.9,2.9-2.9c0,0,0,0,0,0h24.4c1.6,0,2.9,1.3,2.9,2.9
					C310.2,321.2,308.9,322.5,307.3,322.5C307.3,322.5,307.3,322.5,307.3,322.5z"/>
				<text transform="matrix(1 0 0 1 312.11 322.76)" class="st9 st14">India</text>
				<path class="st7" d="M394.3,322.5h-24.4c-1.6,0-2.9-1.3-2.9-2.9c0-1.6,1.3-2.9,2.9-2.9c0,0,0,0,0,0h24.4c1.6,0,2.9,1.3,2.9,2.9
					C397.2,321.2,395.9,322.5,394.3,322.5C394.3,322.5,394.3,322.5,394.3,322.5z"/>
				<text transform="matrix(1 0 0 1 399.12 322.76)" class="st9 st14">Ucrania</text>
				<path class="st8" d="M490.2,322.3h-24.4c-1.6,0-2.9-1.3-2.9-2.9c0-1.6,1.3-2.9,2.9-2.9c0,0,0,0,0,0h24.4c1.6,0,2.9,1.3,2.9,2.9
					C493,321,491.7,322.3,490.2,322.3z"/>
				<text transform="matrix(1 0 0 1 494.96 322.62)" class="st9 st14">Tailandia</text>
			</g>
		</g>
	</g>
</g>
</svg>
