<?xml version="1.0" encoding="utf-8"?>
<!-- Generator: Adobe Illustrator 24.1.0, SVG Export Plug-In . SVG Version: 6.00 Build 0)  -->
<svg version="1.1" id="Capa_1" xmlns="http://www.w3.org/2000/svg" xmlns:xlink="http://www.w3.org/1999/xlink" x="0px" y="0px"
	 viewBox="0 0 720 265.5" style="enable-background:new 0 0 720 265.5;" xml:space="preserve">
<style type="text/css">
	.st0{fill:#FECE00;}
	.st1{fill:#A48A7B;}
	.st2{clip-path:url(#SVGID_2_);}
	.st3{clip-path:url(#SVGID_4_);}
	.st4{font-family:'BodoniSvtyTwoITCTT-Bold';}
	.st5{font-size:151.16px;}
	.st6{fill:none;stroke:#B8B8DB;stroke-width:1.33;stroke-miterlimit:10;}
	.st7{fill:#634E42;}
	.st8{font-family:'FiraSans-Regular';}
	.st9{font-size:10.07px;}
	.st10{font-size:17.26px;}
	.st11{fill:#FFFFFF;}
	.st12{fill:none;stroke:#1D1D1B;stroke-width:2.8;stroke-linecap:round;stroke-linejoin:bevel;}
	.st13{fill:none;stroke:#FFFFFF;stroke-width:3.01;stroke-linecap:round;stroke-linejoin:bevel;}
	.st14{font-size:11.51px;}
	.st15{font-size:13px;}
	.st16{font-size:14.38px;}
	.st17{fill:#D88100;}
	.st18{font-family:'FiraSans-Bold';}
	.st19{font-size:15.1px;}
</style>
<g>
	<g id="Capa_2_1_">
		<g id="_03_Afectaciones">
			<g id="Seccion_03">
				<path class="st0" d="M0,0"/>
				<path class="st0" d="M720,0"/>
				
					<image style="overflow:visible;opacity:0.65;enable-background:new    ;" width="298" height="202" xlink:href="51BA5F8577E70D43.png"  transform="matrix(0.995 0 0 0.995 295.7476 32.5)">
				</image>
				<rect x="316.5" y="44.8" class="st1" width="263.7" height="167.3"/>
				<g>
					<defs>
						<rect id="SVGID_1_" x="316.5" y="44.8" width="263.9" height="168.5"/>
					</defs>
					<clipPath id="SVGID_2_">
						<use xlink:href="#SVGID_1_"  style="overflow:visible;"/>
					</clipPath>
					<g class="st2">
						<g id="Honey_jar_05.psd">
							<g>
								<defs>
									<rect id="SVGID_3_" x="290.6" y="-28" width="306.9" height="299.7"/>
								</defs>
								<clipPath id="SVGID_4_">
									<use xlink:href="#SVGID_3_"  style="overflow:visible;"/>
								</clipPath>
								<g class="st3">
									<g id="Capa_2-2" transform="matrix(-0.32, 0, 0, 0.19, 586.13, 260.59)">
										
											<image style="overflow:visible;enable-background:new    ;" width="900" height="1542" id="image" xlink:href="51BA5F8577E70D41.png"  transform="matrix(-0.32 0 0 0.19 586.13 -20.79)">
										</image>
									</g>
								</g>
							</g>
						</g>
					</g>
				</g>
				<text transform="matrix(1 0 0 1 416.35 176.81)" class="st0 st4 st5">?</text>
				<g>
					<g>
						<g id="Honey_jar_05.psd-2">
							<g>
								<defs>
									<line id="SVGID_5_" x1="597.5" y1="9" x2="290.9" y2="9"/>
								</defs>
								<clipPath id="SVGID_6_">
									<use xlink:href="#SVGID_5_"  style="overflow:visible;"/>
								</clipPath>
							</g>
						</g>
					</g>
				</g>
				<line class="st6" x1="349.8" y1="44.8" x2="349.8" y2="212.1"/>
				<line class="st6" x1="382.6" y1="44.8" x2="382.6" y2="212.1"/>
				<line class="st6" x1="415.4" y1="44.8" x2="415.4" y2="212.1"/>
				<line class="st6" x1="448.2" y1="44.8" x2="448.2" y2="212.1"/>
				<line class="st6" x1="481.1" y1="44.8" x2="481.1" y2="212.1"/>
				<line class="st6" x1="513.9" y1="44.8" x2="513.9" y2="212.1"/>
				<line class="st6" x1="546.7" y1="44.8" x2="546.7" y2="212.1"/>
				<text transform="matrix(1 0 0 1 283.97 57.6)" class="st7 st8 st9">300 K</text>
				<text transform="matrix(1 0 0 1 529.38 127.38)" class="st8 st10">196%</text>
				<text transform="matrix(1 0 0 1 536.13 193.9)" class="st11 st8 st10">13%</text>
				<text transform="matrix(1 0 0 1 284.58 82.06)" class="st7 st8 st9">250 K</text>
				<text transform="matrix(1 0 0 1 284.01 108.54)" class="st7 st8 st9">200 K</text>
				<text transform="matrix(1 0 0 1 285.21 136.72)" class="st7 st8 st9">150 K</text>
				<text transform="matrix(1 0 0 1 284.64 162.97)" class="st7 st8 st9">100 K</text>
				<text transform="matrix(1 0 0 1 289.57 189.16)" class="st7 st8 st9">50 K</text>
				<text transform="matrix(1 0 0 1 322.84 208.76)" class="st7 st8 st9">20</text>
				<text transform="matrix(1 0 0 1 333.44 208.76)" class="st7 st8 st9">0</text>
				<text transform="matrix(1 0 0 1 338.86 208.76)" class="st7 st8 st9">7</text>
				<text transform="matrix(1 0 0 1 353.82 208.76)" class="st7 st8 st9">2008</text>
				<text transform="matrix(1 0 0 1 388.43 208.76)" class="st7 st8 st9">20</text>
				<text transform="matrix(1 0 0 1 399.03 208.76)" class="st7 st8 st9">0</text>
				<text transform="matrix(1 0 0 1 404.55 208.76)" class="st7 st8 st9">9</text>
				<text transform="matrix(1 0 0 1 420.69 208.76)" class="st7 st8 st9">2</text>
				<text transform="matrix(1 0 0 1 425.67 208.76)" class="st7 st8 st9">0</text>
				<text transform="matrix(1 0 0 1 431.04 208.76)" class="st7 st8 st9">10</text>
				<text transform="matrix(1 0 0 1 455.88 208.76)" class="st7 st8 st9">2</text>
				<text transform="matrix(1 0 0 1 460.86 208.76)" class="st7 st8 st9">0</text>
				<text transform="matrix(1 0 0 1 466.23 208.76)" class="st7 st8 st9">1</text>
				<text transform="matrix(1 0 0 1 470.45 208.76)" class="st7 st8 st9">1</text>
				<text transform="matrix(1 0 0 1 487.03 208.76)" class="st7 st8 st9">2</text>
				<text transform="matrix(1 0 0 1 492.01 208.76)" class="st7 st8 st9">0</text>
				<text transform="matrix(1 0 0 1 497.38 208.76)" class="st7 st8 st9">12</text>
				<text transform="matrix(1 0 0 1 520.89 208.76)" class="st7 st8 st9">2</text>
				<text transform="matrix(1 0 0 1 525.87 208.76)" class="st7 st8 st9">0</text>
				<text transform="matrix(1 0 0 1 531.24 208.76)" class="st7 st8 st9">13</text>
				<text transform="matrix(1 0 0 1 553.53 208.76)" class="st7 st8 st9">2</text>
				<text transform="matrix(1 0 0 1 558.51 208.76)" class="st7 st8 st9">0</text>
				<text transform="matrix(1 0 0 1 563.88 208.76)" class="st7 st8 st9">14</text>
				<polygon class="st11" points="565.6,167.8 551.3,148.9 537,167.8 546.5,167.8 546.5,178.1 556,178.1 556,167.8 				"/>
				<polygon points="565.6,101.6 551.3,82.7 537,101.6 546.5,101.6 546.5,111.8 556,111.8 556,101.6 				"/>
				<polyline class="st12" points="336.1,167.4 368.9,144.1 400.6,157.2 432.3,131.1 466.2,122.3 496.8,128.5 529.6,94.9 
					562.4,65.5 				"/>
				<line class="st13" x1="336.1" y1="203" x2="563.1" y2="199.3"/>
				<text transform="matrix(1 0 0 1 60.16 125.05)" class="st7 st8 st14">C</text>
				<text transform="matrix(1 0 0 1 66.49 125.05)" class="st7 st8 st14">hina</text>
				<text transform="matrix(1 0 0 1 60.16 138.86)" class="st7 st8 st14">India</text>
				<text transform="matrix(1 0 0 1 60.16 152.66)" class="st7 st8 st14">Uc</text>
				<text transform="matrix(1 0 0 1 73.28 152.66)" class="st7 st8 st14">r</text>
				<text transform="matrix(1 0 0 1 77.32 152.66)" class="st7 st8 st14">ania</text>
				<text transform="matrix(1 0 0 1 60.16 166.47)" class="st7 st8 st14">T</text>
				<text transform="matrix(1 0 0 1 65.65 166.47)" class="st7 st8 st14">u</text>
				<text transform="matrix(1 0 0 1 72.34 166.47)" class="st7 st8 st14">r</text>
				<text transform="matrix(1 0 0 1 76.44 166.47)" class="st7 st8 st14">quía</text>
				<text transform="matrix(1 0 0 1 60.16 180.28)" class="st7 st8 st14">T</text>
				<text transform="matrix(1 0 0 1 65.53 180.28)" class="st7 st8 st14">ai</text>
				<text transform="matrix(1 0 0 1 75.04 180.28)" class="st7 st8 st14">w</text>
				<text transform="matrix(1 0 0 1 83.15 180.28)" class="st7 st8 st14">án</text>
				<text transform="matrix(1 0 0 1 60.16 194.08)" class="st7 st8 st14">T</text>
				<text transform="matrix(1 0 0 1 65.53 194.08)" class="st7 st8 st14">ai</text>
				<text transform="matrix(1 0 0 1 75.04 194.08)" class="st7 st8 st14">l</text>
				<text transform="matrix(1 0 0 1 78.35 194.08)" class="st7 st8 st14">andia</text>
				<text transform="matrix(1 0 0 1 60.16 207.89)" class="st7 st8 st14">Vietnam</text>
				<text transform="matrix(1 0 0 1 471.93 65.48)" class="st8 st15">Expor</text>
				<text transform="matrix(1 0 0 1 505.52 65.48)" class="st8 st15">t</text>
				<text transform="matrix(1 0 0 1 510.12 65.48)" class="st8 st15">aciones</text>
				<text transform="matrix(1 0 0 1 471.93 77.18)" class="st8 st15">(</text>
				<text transform="matrix(1 0 0 1 476.14 77.18)" class="st8 st15">t</text>
				<text transform="matrix(1 0 0 1 480.64 77.18)" class="st8 st15">one</text>
				<text transform="matrix(1 0 0 1 502.93 77.18)" class="st8 st15">l</text>
				<text transform="matrix(1 0 0 1 506.68 77.18)" class="st8 st15">ad</text>
				<text transform="matrix(1 0 0 1 521.52 77.18)" class="st8 st15">a</text>
				<text transform="matrix(1 0 0 1 528.47 77.18)" class="st8 st15">s)</text>
				<text transform="matrix(1 0 0 1 448.02 181.53)" class="st11 st8 st16">C</text>
				<text transform="matrix(1 0 0 1 455.93 181.53)" class="st11 st8 st16">antidad</text>
				<text transform="matrix(1 0 0 1 448.02 194.47)" class="st11 st8 st16">de </text>
				<text transform="matrix(1 0 0 1 468.27 194.47)" class="st11 st8 st16">c</text>
				<text transform="matrix(1 0 0 1 474.86 194.47)" class="st11 st8 st16">olmen</text>
				<text transform="matrix(1 0 0 1 516.06 194.47)" class="st11 st8 st16">a</text>
				<text transform="matrix(1 0 0 1 523.74 194.47)" class="st11 st8 st16">s</text>
				<text transform="matrix(1 0 0 1 60.44 54.28)" class="st17 st18 st19">L</text>
				<text transform="matrix(1 0 0 1 67.81 54.28)" class="st17 st18 st19">os sie</text>
				<text transform="matrix(1 0 0 1 107.39 54.28)" class="st17 st18 st19">t</text>
				<text transform="matrix(1 0 0 1 112.95 54.28)" class="st17 st18 st19">e</text>
				<text transform="matrix(1 0 0 1 60.44 72.4)" class="st17 st18 st19">princi</text>
				<text transform="matrix(1 0 0 1 99.97 72.4)" class="st17 st18 st19">pa</text>
				<text transform="matrix(1 0 0 1 116.96 72.4)" class="st17 st18 st19">l</text>
				<text transform="matrix(1 0 0 1 121.37 72.4)" class="st17 st18 st19">es</text>
				<text transform="matrix(1 0 0 1 60.44 90.52)" class="st17 st18 st19">p</text>
				<text transform="matrix(1 0 0 1 69.3 90.52)" class="st17 st18 st19">aíses</text>
				<text transform="matrix(1 0 0 1 60.44 108.64)" class="st17 st18 st19">de Orien</text>
				<text transform="matrix(1 0 0 1 119.21 108.64)" class="st17 st18 st19">t</text>
				<text transform="matrix(1 0 0 1 124.77 108.64)" class="st17 st18 st19">e</text>
			</g>
		</g>
	</g>
</g>
</svg>
