<?xml version="1.0" encoding="utf-8"?>
<!-- Generator: Adobe Illustrator 24.1.0, SVG Export Plug-In . SVG Version: 6.00 Build 0)  -->
<svg version="1.1"
	 id="Capa_1" xmlns:cc="http://creativecommons.org/ns#" xmlns:dc="http://purl.org/dc/elements/1.1/" xmlns:inkscape="http://www.inkscape.org/namespaces/inkscape" xmlns:rdf="http://www.w3.org/1999/02/22-rdf-syntax-ns#" xmlns:sodipodi="http://sodipodi.sourceforge.net/DTD/sodipodi-0.dtd" xmlns:svg="http://www.w3.org/2000/svg"
	 xmlns="http://www.w3.org/2000/svg" xmlns:xlink="http://www.w3.org/1999/xlink" x="0px" y="0px" viewBox="0 0 75.7 60.2"
	 style="enable-background:new 0 0 75.7 60.2;" xml:space="preserve">
<g transform="translate(0,-952.36218)">
	<path d="M4,954.4c-1.1,0-2,0.9-2,2s0.9,2,2,2h68c1.1,0,2-0.9,2-2s-0.9-2-2-2H4z M4,980.4c-1.1,0-2,0.9-2,2s0.9,2,2,2h68
		c1.1,0,2-0.9,2-2s-0.9-2-2-2H4z M4,1006.4c-1.1,0-2,0.9-2,2s0.9,2,2,2h68c1.1,0,2-0.9,2-2s-0.9-2-2-2H4z"/>
</g>
</svg>
